<svg xmlns="http://www.w3.org/2000/svg" xmlns:xlink="http://www.w3.org/1999/xlink" width="500" zoomAndPan="magnify" viewBox="0 0 375 374.999991" height="500" preserveAspectRatio="xMidYMid meet" version="1.0"><defs><clipPath id="7986416791"><path d="M 93 50 L 282.554688 50 L 282.554688 241 L 93 241 Z M 93 50 " clip-rule="nonzero"/></clipPath><clipPath id="8de1cfd9d9"><path d="M 49.070312 252 L 89 252 L 89 322 L 49.070312 322 Z M 49.070312 252 " clip-rule="nonzero"/></clipPath><clipPath id="8bd071d08e"><path d="M 218 241.078125 L 264 241.078125 L 264 322 L 218 322 Z M 218 241.078125 " clip-rule="nonzero"/></clipPath><clipPath id="26c477dae0"><path d="M 287 251 L 325.820312 251 L 325.820312 323 L 287 323 Z M 287 251 " clip-rule="nonzero"/></clipPath></defs><path fill="#f5bf02" d="M 280.199219 145.671875 C 280.199219 147.164062 280.164062 148.65625 280.089844 150.144531 C 280.015625 151.636719 279.90625 153.121094 279.761719 154.605469 C 279.613281 156.089844 279.433594 157.570312 279.214844 159.046875 C 278.996094 160.523438 278.738281 161.992188 278.449219 163.457031 C 278.15625 164.917969 277.832031 166.375 277.46875 167.820312 C 277.105469 169.269531 276.710938 170.707031 276.277344 172.132812 C 275.84375 173.5625 275.375 174.976562 274.875 176.382812 C 274.371094 177.789062 273.835938 179.179688 273.265625 180.558594 C 272.695312 181.9375 272.089844 183.300781 271.453125 184.648438 C 270.816406 185.996094 270.144531 187.328125 269.441406 188.644531 C 268.738281 189.960938 268.003906 191.257812 267.238281 192.539062 C 266.472656 193.816406 265.671875 195.078125 264.84375 196.316406 C 264.015625 197.558594 263.160156 198.777344 262.269531 199.976562 C 261.382812 201.175781 260.464844 202.351562 259.519531 203.503906 C 258.574219 204.65625 257.601562 205.785156 256.597656 206.890625 C 255.597656 207.996094 254.570312 209.078125 253.515625 210.132812 C 252.460938 211.1875 251.382812 212.214844 250.277344 213.21875 C 249.171875 214.21875 248.042969 215.195312 246.890625 216.140625 C 245.738281 217.085938 244.5625 218.003906 243.363281 218.894531 C 242.167969 219.78125 240.949219 220.640625 239.710938 221.46875 C 238.46875 222.296875 237.210938 223.097656 235.929688 223.863281 C 234.652344 224.628906 233.355469 225.363281 232.039062 226.070312 C 230.726562 226.773438 229.394531 227.441406 228.046875 228.082031 C 226.699219 228.71875 225.335938 229.324219 223.957031 229.894531 C 222.582031 230.464844 221.191406 231 219.785156 231.503906 C 218.382812 232.007812 216.964844 232.472656 215.539062 232.90625 C 214.113281 233.339844 212.675781 233.738281 211.230469 234.101562 C 209.785156 234.464844 208.328125 234.789062 206.867188 235.082031 C 205.40625 235.371094 203.9375 235.628906 202.460938 235.847656 C 200.988281 236.066406 199.507812 236.246094 198.023438 236.394531 C 196.539062 236.539062 195.054688 236.648438 193.5625 236.722656 C 192.074219 236.796875 190.585938 236.832031 189.09375 236.832031 C 187.601562 236.832031 186.113281 236.796875 184.621094 236.722656 C 183.132812 236.648438 181.648438 236.539062 180.164062 236.394531 C 178.679688 236.246094 177.199219 236.066406 175.726562 235.847656 C 174.25 235.628906 172.78125 235.371094 171.320312 235.082031 C 169.855469 234.789062 168.402344 234.464844 166.957031 234.101562 C 165.511719 233.738281 164.074219 233.339844 162.648438 232.90625 C 161.21875 232.472656 159.804688 232.007812 158.402344 231.503906 C 156.996094 231 155.605469 230.464844 154.230469 229.894531 C 152.851562 229.324219 151.488281 228.71875 150.140625 228.082031 C 148.792969 227.441406 147.460938 226.773438 146.144531 226.070312 C 144.832031 225.363281 143.535156 224.628906 142.253906 223.863281 C 140.976562 223.097656 139.71875 222.296875 138.476562 221.46875 C 137.238281 220.640625 136.019531 219.78125 134.820312 218.894531 C 133.625 218.003906 132.449219 217.085938 131.296875 216.140625 C 130.144531 215.195312 129.015625 214.21875 127.910156 213.21875 C 126.804688 212.214844 125.726562 211.1875 124.671875 210.132812 C 123.617188 209.078125 122.589844 207.996094 121.589844 206.890625 C 120.585938 205.785156 119.613281 204.65625 118.667969 203.503906 C 117.722656 202.351562 116.804688 201.175781 115.917969 199.976562 C 115.027344 198.777344 114.167969 197.558594 113.339844 196.316406 C 112.511719 195.078125 111.714844 193.816406 110.949219 192.539062 C 110.183594 191.257812 109.449219 189.960938 108.746094 188.644531 C 108.042969 187.328125 107.371094 185.996094 106.734375 184.648438 C 106.097656 183.300781 105.492188 181.9375 104.921875 180.558594 C 104.351562 179.179688 103.816406 177.789062 103.3125 176.382812 C 102.8125 174.976562 102.34375 173.5625 101.910156 172.132812 C 101.476562 170.707031 101.078125 169.269531 100.71875 167.820312 C 100.355469 166.375 100.027344 164.917969 99.738281 163.457031 C 99.445312 161.992188 99.191406 160.523438 98.972656 159.046875 C 98.753906 157.570312 98.570312 156.089844 98.425781 154.605469 C 98.28125 153.121094 98.171875 151.636719 98.097656 150.144531 C 98.023438 148.65625 97.988281 147.164062 97.988281 145.671875 C 97.988281 144.179688 98.023438 142.6875 98.097656 141.199219 C 98.171875 139.707031 98.28125 138.222656 98.425781 136.738281 C 98.570312 135.25 98.753906 133.769531 98.972656 132.296875 C 99.191406 130.820312 99.445312 129.351562 99.738281 127.886719 C 100.027344 126.421875 100.355469 124.96875 100.71875 123.519531 C 101.078125 122.074219 101.476562 120.636719 101.910156 119.210938 C 102.34375 117.78125 102.8125 116.363281 103.3125 114.960938 C 103.816406 113.554688 104.351562 112.164062 104.921875 110.785156 C 105.492188 109.40625 106.097656 108.042969 106.734375 106.695312 C 107.371094 105.347656 108.042969 104.015625 108.746094 102.699219 C 109.449219 101.382812 110.183594 100.085938 110.949219 98.804688 C 111.714844 97.527344 112.511719 96.265625 113.339844 95.023438 C 114.167969 93.785156 115.027344 92.566406 115.917969 91.367188 C 116.804688 90.167969 117.722656 88.992188 118.667969 87.839844 C 119.613281 86.6875 120.585938 85.558594 121.589844 84.453125 C 122.589844 83.347656 123.617188 82.265625 124.671875 81.210938 C 125.726562 80.15625 126.804688 79.128906 127.910156 78.125 C 129.015625 77.125 130.144531 76.148438 131.296875 75.203125 C 132.449219 74.257812 133.625 73.339844 134.820312 72.449219 C 136.019531 71.5625 137.238281 70.703125 138.476562 69.875 C 139.71875 69.046875 140.976562 68.246094 142.253906 67.480469 C 143.535156 66.714844 144.832031 65.976562 146.144531 65.273438 C 147.460938 64.570312 148.792969 63.902344 150.140625 63.261719 C 151.488281 62.625 152.851562 62.019531 154.230469 61.449219 C 155.605469 60.878906 156.996094 60.34375 158.402344 59.839844 C 159.804688 59.335938 161.21875 58.871094 162.648438 58.4375 C 164.074219 58.003906 165.511719 57.605469 166.957031 57.242188 C 168.402344 56.878906 169.855469 56.554688 171.320312 56.261719 C 172.78125 55.972656 174.25 55.714844 175.726562 55.496094 C 177.199219 55.277344 178.679688 55.097656 180.164062 54.949219 C 181.648438 54.804688 183.132812 54.695312 184.621094 54.621094 C 186.113281 54.546875 187.601562 54.511719 189.09375 54.511719 C 190.585938 54.511719 192.074219 54.546875 193.5625 54.621094 C 195.054688 54.695312 196.539062 54.804688 198.023438 54.949219 C 199.507812 55.097656 200.988281 55.277344 202.460938 55.496094 C 203.9375 55.714844 205.40625 55.972656 206.867188 56.261719 C 208.328125 56.554688 209.785156 56.878906 211.230469 57.242188 C 212.675781 57.605469 214.113281 58.003906 215.539062 58.4375 C 216.964844 58.871094 218.382812 59.335938 219.785156 59.839844 C 221.191406 60.34375 222.582031 60.878906 223.957031 61.449219 C 225.335938 62.019531 226.699219 62.625 228.046875 63.261719 C 229.394531 63.902344 230.726562 64.570312 232.039062 65.273438 C 233.355469 65.976562 234.652344 66.714844 235.929688 67.480469 C 237.210938 68.246094 238.46875 69.046875 239.710938 69.875 C 240.949219 70.703125 242.167969 71.5625 243.363281 72.449219 C 244.5625 73.339844 245.738281 74.257812 246.890625 75.203125 C 248.042969 76.148438 249.171875 77.125 250.277344 78.125 C 251.382812 79.128906 252.460938 80.15625 253.515625 81.210938 C 254.570312 82.265625 255.597656 83.347656 256.597656 84.453125 C 257.601562 85.558594 258.574219 86.6875 259.519531 87.839844 C 260.464844 88.992188 261.382812 90.167969 262.269531 91.367188 C 263.160156 92.566406 264.015625 93.785156 264.84375 95.023438 C 265.671875 96.265625 266.472656 97.527344 267.238281 98.804688 C 268.003906 100.085938 268.738281 101.382812 269.441406 102.699219 C 270.144531 104.015625 270.816406 105.347656 271.453125 106.695312 C 272.089844 108.042969 272.695312 109.40625 273.265625 110.785156 C 273.835938 112.164062 274.371094 113.554688 274.875 114.960938 C 275.375 116.363281 275.84375 117.78125 276.277344 119.210938 C 276.710938 120.636719 277.105469 122.074219 277.46875 123.519531 C 277.832031 124.96875 278.15625 126.421875 278.449219 127.886719 C 278.738281 129.351562 278.996094 130.820312 279.214844 132.296875 C 279.433594 133.769531 279.613281 135.25 279.761719 136.738281 C 279.90625 138.222656 280.015625 139.707031 280.089844 141.199219 C 280.164062 142.6875 280.199219 144.179688 280.199219 145.671875 Z M 280.199219 145.671875 " fill-opacity="1" fill-rule="nonzero"/><path fill="#fad3c2" d="M 126.238281 185.613281 C 127.179688 187.726562 127.886719 195.714844 128.828125 198.769531 L 144.835938 198.066406 L 145.304688 191.488281 L 146.484375 185.613281 L 146.484375 175.746094 L 145.304688 170.105469 L 144.128906 170.105469 L 140.125 172.925781 L 138.714844 172.222656 L 138.007812 169.167969 L 136.359375 164.703125 L 136.832031 162.824219 L 138.714844 157.890625 L 140.832031 161.414062 L 144.128906 162.824219 L 146.71875 161.882812 L 146.011719 158.359375 L 143.65625 154.601562 L 140.832031 152.015625 L 135.652344 152.015625 L 133.300781 153.191406 L 130.710938 159.769531 L 127.886719 150.839844 L 122.46875 138.859375 L 120.824219 136.742188 C 120.351562 136.507812 119.082031 136.039062 117.761719 136.039062 C 116.445312 136.039062 116.742188 137.136719 117.054688 137.683594 L 118.703125 142.382812 L 123.648438 154.601562 L 123.175781 156.480469 L 119.410156 152.015625 L 115.878906 147.550781 L 113.289062 145.4375 L 111.171875 144.730469 C 110.777344 144.730469 109.804688 144.917969 109.050781 145.671875 C 108.296875 146.421875 108.738281 147.238281 109.050781 147.550781 L 111.171875 149.902344 L 117.054688 157.183594 L 117.761719 161.882812 L 113.054688 157.183594 C 112.660156 156.714844 111.5 155.773438 109.992188 155.773438 C 108.488281 155.773438 108.265625 156.714844 108.34375 157.183594 L 109.992188 160.238281 L 120.824219 174.335938 C 122.3125 177.390625 125.484375 183.921875 126.238281 185.613281 Z M 126.238281 185.613281 " fill-opacity="1" fill-rule="nonzero"/><path fill="#fad3c2" d="M 184.386719 177.625 L 192.152344 195.246094 L 194.742188 199.945312 L 206.75 208.636719 L 223.933594 203.46875 L 240.179688 193.367188 L 243.238281 184.671875 L 246.769531 177.625 L 256.894531 166.113281 L 256.894531 150.839844 L 251.007812 144.027344 L 244.886719 146.140625 L 242.0625 126.640625 L 232.644531 126.640625 L 184.386719 130.398438 L 182.738281 150.839844 Z M 184.386719 177.625 " fill-opacity="1" fill-rule="nonzero"/><path stroke-linecap="butt" transform="matrix(0.470832, 0, 0, 0.469902, 92.808162, 49.811716)" fill="none" stroke-linejoin="miter" d="M 71.002241 288.999942 C 73.001694 293.497225 74.503357 310.497124 76.50281 316.997818 L 110.501808 315.501495 L 111.497386 301.502556 L 114.002925 288.999942 L 114.002925 268.001534 L 111.497386 255.997694 L 109.000144 255.997694 L 100.496247 261.999614 L 97.501215 260.50329 L 95.999551 254.002596 L 92.498435 244.500941 L 93.502309 240.502432 L 97.501215 230.003228 L 101.99791 237.501472 L 109.000144 240.502432 L 114.500714 238.499021 L 112.99905 231.000777 L 107.996269 223.003759 L 101.99791 217.500613 L 90.996771 217.500613 L 86.002286 220.002799 L 80.501716 234.001737 L 74.503357 214.998428 L 62.996132 189.502737 L 59.503312 184.99714 C 58.499437 184.498366 55.803079 183.500817 52.998867 183.500817 C 50.202952 183.500817 50.833484 185.836744 51.497203 187.000551 L 54.99832 197.00098 L 65.501671 223.003759 L 64.497796 227.002268 L 56.499984 217.500613 L 48.999961 207.998959 L 43.499391 203.501675 L 39.002696 201.997038 C 38.164751 201.997038 36.098926 202.396058 34.497704 204.00045 C 32.896483 205.596528 33.833986 207.333926 34.497704 207.998959 L 39.002696 213.00333 L 51.497203 228.498592 L 52.998867 238.499021 L 43.001602 228.498592 C 42.163657 227.501043 39.699601 225.497632 36.497157 225.497632 C 33.303011 225.497632 32.830111 227.501043 32.996041 228.498592 L 36.497157 234.999286 L 59.503312 265.000574 C 62.664273 271.501269 69.401019 285.400452 71.002241 288.999942 Z M 71.002241 288.999942 " stroke="#000000" stroke-width="1" stroke-opacity="1" stroke-miterlimit="4"/><path stroke-linecap="butt" transform="matrix(0.470832, 0, 0, 0.469902, 92.808162, 49.811716)" fill="none" stroke-linejoin="miter" d="M 194.503724 272.000043 L 210.997137 309.499575 L 216.497707 319.500004 L 242.001103 337.996226 L 278.497343 326.998247 L 313.002426 305.501065 L 319.498574 286.996531 L 326.998597 272.000043 L 348.503087 247.501901 L 348.503087 214.998428 L 336.000283 200.500715 L 322.999691 204.997999 L 317.001332 163.499958 L 296.998505 163.499958 L 194.503724 171.496976 L 191.002607 214.998428 Z M 194.503724 272.000043 " stroke="#000000" stroke-width="1" stroke-opacity="1" stroke-miterlimit="4"/><path fill="#ffffff" d="M 146.246094 173.867188 L 144.363281 163.996094 L 146.71875 161.414062 L 148.132812 160.003906 C 148.601562 159.613281 149.261719 159.347656 150.015625 159.535156 C 150.957031 159.769531 152.367188 161.648438 152.839844 161.648438 C 153.214844 161.648438 154.878906 165.640625 155.664062 167.757812 L 156.371094 173.628906 L 156.839844 184.203125 L 157.3125 192.898438 L 159.902344 201.589844 L 151.191406 203.941406 L 147.1875 203 L 145.777344 192.898438 L 145.777344 183.265625 Z M 146.246094 173.867188 " fill-opacity="1" fill-rule="nonzero"/><path fill="#ffffff" d="M 216.167969 233.777344 L 195.683594 237.300781 C 192.859375 232.996094 187.117188 223.722656 186.738281 221.089844 C 186.363281 218.460938 185.167969 212.164062 184.621094 209.34375 L 191.449219 208.636719 C 190.347656 206.914062 188.152344 203.234375 188.152344 202.292969 C 188.152344 201.355469 189.09375 199.242188 189.5625 198.300781 L 192.625 197.359375 L 195.683594 199.945312 L 205.574219 208.636719 L 212.636719 207.699219 L 229.585938 199.945312 L 240.414062 192.898438 L 241.355469 198.300781 C 238.84375 203.941406 233.726562 215.359375 233.351562 215.921875 C 232.976562 216.484375 221.738281 228.0625 216.167969 233.777344 Z M 216.167969 233.777344 " fill-opacity="1" fill-rule="nonzero"/><path fill="#ffffff" d="M 192.859375 154.601562 L 188.386719 154.601562 L 184.855469 153.660156 L 183.441406 151.78125 L 183.679688 148.492188 L 187.445312 147.785156 L 197.804688 149.195312 L 197.804688 151.308594 Z M 192.859375 154.601562 " fill-opacity="1" fill-rule="nonzero"/><path fill="#ffffff" d="M 206.042969 148.960938 L 208.867188 148.492188 L 215.222656 148.492188 L 222.757812 149.195312 L 223.699219 151.78125 L 219.460938 156.714844 L 214.046875 157.652344 C 210.988281 157.652344 206.230469 154.789062 206.042969 154.601562 C 205.855469 154.410156 205.023438 152.5625 204.394531 151.78125 Z M 206.042969 148.960938 " fill-opacity="1" fill-rule="nonzero"/><path fill="#ffffff" d="M 246.535156 119.828125 L 225.113281 121.472656 L 226.996094 110.429688 L 226.996094 65.554688 L 232.175781 52.160156 L 250.066406 55.449219 L 254.304688 61.792969 Z M 246.535156 119.828125 " fill-opacity="1" fill-rule="nonzero"/><g clip-path="url(#7986416791)"><path fill="#000000" d="M 197.128906 50.75 C 195.558594 51.003906 191.605469 51.253906 188.339844 51.253906 C 142.324219 51.628906 104.65625 82.078125 94.675781 127 C 92.792969 135.332031 92.667969 155.257812 94.363281 163.777344 C 101.140625 197.109375 123.492188 223.363281 155.066406 235.078125 C 175.28125 242.535156 200.140625 242.535156 220.355469 235.078125 C 245.71875 225.679688 266.183594 205.945312 275.664062 181.632812 C 281.0625 168.039062 282.882812 156.886719 282.316406 141.851562 C 281.503906 120.984375 274.597656 102.628906 261.289062 86.152344 L 257.835938 81.828125 L 258.839844 75.1875 C 260.722656 63.59375 259.96875 59.273438 255.636719 56.765625 C 252.9375 55.199219 243.019531 52.820312 233.039062 51.316406 C 223.996094 50 203.15625 49.625 197.128906 50.75 Z M 241.074219 55.199219 C 247.351562 56.265625 248.167969 56.640625 247.726562 58.707031 C 246.03125 66.664062 242.769531 95.359375 242.390625 105.386719 C 242.078125 114.71875 241.765625 117.289062 241.074219 117.726562 C 239.878906 118.480469 230.589844 118.542969 230.148438 117.789062 C 229.773438 117.226562 231.53125 55.828125 231.96875 54.636719 C 232.222656 53.882812 233.539062 53.945312 241.074219 55.199219 Z M 180.804688 57.203125 C 180.804688 57.332031 180.367188 58.457031 179.863281 59.710938 C 179.050781 61.589844 178.984375 65.351562 179.300781 85.898438 C 179.550781 99.121094 179.550781 112.339844 179.300781 115.347656 L 178.796875 120.859375 L 169.882812 120.859375 C 161.722656 120.859375 160.78125 120.984375 159.777344 122.113281 C 158.773438 123.179688 158.710938 123.679688 159.335938 125.746094 C 159.714844 127 160.90625 129.132812 161.972656 130.382812 L 163.917969 132.765625 L 179.992188 132.765625 L 180.367188 136.964844 C 180.617188 139.28125 180.617188 147.113281 180.429688 154.378906 C 180.054688 165.21875 180.179688 168.476562 181.058594 172.988281 C 182.125 178.691406 185.640625 189.527344 187.773438 193.664062 L 189.03125 196.109375 L 185.074219 197.925781 C 182.878906 198.925781 175.910156 202.121094 169.507812 205.003906 L 157.894531 210.269531 L 156.824219 213.652344 C 156.261719 215.53125 155.128906 219.289062 154.25 221.984375 L 152.808594 226.996094 L 151.425781 217.285156 C 150.671875 211.960938 150.046875 207.199219 150.046875 206.632812 C 150.046875 205.882812 151.550781 205.128906 155.382812 203.941406 C 158.332031 203 160.71875 202.183594 160.71875 202.058594 C 160.71875 201.933594 160.027344 200.242188 159.148438 198.363281 C 157.640625 195.105469 157.515625 194.164062 157.328125 183.074219 C 157.140625 172.925781 156.949219 170.734375 155.757812 166.972656 C 154 161.710938 151.804688 159.265625 148.226562 158.703125 C 146.089844 158.390625 145.398438 157.890625 143.957031 155.570312 C 141.882812 152.3125 140 151.4375 135.859375 151.6875 C 132.90625 151.875 132.71875 152 131.402344 154.695312 L 130.082031 157.511719 L 129.390625 155.632812 C 127.695312 151.121094 127.195312 149.933594 126.753906 149.304688 C 126.441406 148.929688 125.625 146.738281 124.933594 144.480469 C 123.363281 139.40625 120.539062 135.898438 118.027344 135.898438 C 115.265625 135.898438 114.578125 137.277344 116.019531 140.09375 C 117.589844 143.164062 121.796875 153.878906 121.796875 154.757812 C 121.796875 155.507812 117.839844 150.933594 115.390625 147.238281 C 113.507812 144.480469 111.25 143.542969 108.675781 144.417969 C 106.164062 145.359375 106.351562 146.863281 109.742188 151.121094 C 113.257812 155.570312 116.335938 160.332031 115.957031 160.707031 C 115.832031 160.832031 114.953125 159.832031 114.011719 158.453125 C 112.253906 155.820312 109.742188 154.695312 108.046875 155.757812 C 105.789062 157.199219 106.539062 158.953125 112.316406 165.785156 C 117.085938 171.484375 118.53125 173.679688 121.859375 180.945312 C 125.058594 187.835938 125.875 190.28125 126.191406 193.664062 L 126.503906 197.863281 L 124.308594 198.238281 C 120.476562 198.863281 120.351562 199.113281 121.734375 203.5625 C 122.421875 205.757812 122.925781 207.699219 122.800781 207.824219 C 122.359375 208.199219 115.957031 200.117188 112.691406 195.105469 C 106.289062 185.332031 102.273438 175.621094 99.699219 163.902344 C 97.75 154.820312 97.6875 137.152344 99.699219 128.253906 C 107.609375 92.289062 134.414062 65.726562 170.132812 58.269531 C 175.597656 57.140625 180.804688 56.640625 180.804688 57.203125 Z M 261.726562 95.421875 C 272.585938 111.148438 278.113281 130.382812 277.296875 149.679688 C 276.730469 162.652344 273.527344 175.117188 268.066406 186.082031 C 265.304688 191.472656 258.210938 202.308594 257.394531 202.308594 C 256.957031 202.308594 242.578125 193.914062 241.828125 193.226562 C 241.699219 193.101562 242.078125 190.96875 242.707031 188.402344 C 243.710938 184.140625 244.023438 183.578125 247.726562 180.257812 C 259.152344 169.667969 261.476562 158.578125 256.515625 138.089844 C 255.636719 134.644531 255.074219 131.699219 255.199219 131.574219 C 255.324219 131.449219 256.957031 131.699219 258.714844 132.136719 L 262.039062 132.953125 L 263.863281 130.824219 C 268.253906 125.683594 269.261719 122.113281 266.75 119.859375 C 265.746094 118.980469 264.175781 118.667969 259.46875 118.480469 L 253.441406 118.230469 L 253.878906 112.777344 C 254.320312 106.828125 255.953125 93.167969 256.515625 90.914062 C 256.957031 88.96875 257.644531 89.597656 261.726562 95.421875 Z M 239.441406 132.890625 C 241.636719 141.035156 241.136719 153.378906 238.3125 158.953125 C 236.679688 162.148438 235.484375 163.464844 232.722656 164.84375 C 231.027344 165.65625 231.027344 165.785156 232.097656 166.722656 C 234.167969 168.539062 238.183594 170.355469 240.195312 170.355469 C 243.710938 170.355469 245.277344 167.289062 247.039062 156.824219 C 248.042969 150.808594 249.171875 148.429688 250.929688 148.429688 C 252.308594 148.429688 253.628906 152.4375 253.628906 156.761719 C 253.628906 164.59375 250.425781 170.921875 245.214844 173.425781 C 242.140625 174.929688 242.453125 174.117188 240.382812 185.332031 C 239.441406 190.21875 237.558594 192.535156 230.839844 197.171875 C 221.925781 203.3125 212.320312 207.324219 206.546875 207.324219 C 203.847656 207.324219 203.34375 207.074219 200.769531 204.316406 C 191.730469 194.667969 186.707031 184.703125 184.257812 171.421875 C 183.316406 166.097656 182.691406 155.070312 183.378906 154.441406 C 183.570312 154.191406 184.574219 154.441406 185.578125 155.007812 C 187.648438 156.070312 191.667969 156.261719 193.425781 155.320312 C 195.121094 154.378906 194.929688 154.882812 191.855469 159.644531 C 188.652344 164.59375 188.089844 166.097656 188.589844 168.226562 C 189.09375 170.230469 192.296875 171.609375 196.5 171.609375 C 198.257812 171.609375 200.707031 172.046875 201.960938 172.550781 C 204.976562 173.804688 205.289062 173.742188 205.289062 171.921875 C 205.289062 169.792969 203.28125 169.105469 198.132812 169.292969 C 191.351562 169.480469 190.601562 167.476562 194.554688 159.769531 C 197.441406 154.066406 199.011719 149.179688 199.011719 145.546875 C 199.011719 142.351562 199.765625 141.722656 201.835938 143.039062 C 203.21875 143.917969 203.34375 144.355469 203.03125 146.800781 C 201.585938 157.199219 216.152344 162.964844 223.054688 154.695312 C 223.933594 153.691406 224.8125 152.3125 225.066406 151.625 C 225.253906 150.996094 226.007812 150.308594 226.632812 150.121094 C 227.890625 149.808594 227.890625 150.246094 227.890625 168.851562 C 227.890625 185.394531 228.015625 187.898438 228.832031 187.898438 C 229.648438 187.898438 229.773438 185.269531 229.773438 167.976562 L 229.773438 148.050781 L 227.640625 147.300781 C 226.070312 146.738281 225.441406 146.046875 225.191406 144.730469 C 224.3125 140.597656 219.476562 137.152344 214.519531 137.152344 C 210.878906 137.152344 209.121094 137.839844 206.355469 140.285156 C 204.472656 141.914062 203.847656 142.101562 202.839844 141.597656 C 202.152344 141.222656 200.894531 140.910156 200.078125 140.910156 C 199.136719 140.910156 197.632812 140.03125 196.375 138.78125 C 193.988281 136.398438 189.785156 134.957031 186.644531 135.460938 C 184.761719 135.773438 184.574219 135.648438 184.574219 134.269531 C 184.574219 133.015625 184.886719 132.765625 186.644531 132.765625 C 187.710938 132.703125 190.222656 132.578125 192.105469 132.390625 C 203.09375 131.261719 224.25 129.820312 230.839844 129.695312 L 238.5 129.570312 Z M 120.164062 138.089844 C 121.605469 139.65625 122.863281 142.164062 124.496094 147.175781 C 125.058594 148.742188 126.191406 151.9375 127.070312 154.378906 C 127.949219 156.761719 128.703125 159.707031 128.703125 160.832031 C 128.703125 164.15625 129.957031 162.902344 131.777344 157.761719 C 133.410156 153.128906 133.410156 153.128906 135.859375 152.941406 C 137.238281 152.8125 138.933594 152.875 139.6875 153.066406 C 141.195312 153.441406 144.082031 157.386719 144.773438 159.957031 C 145.085938 161.273438 144.898438 161.585938 143.453125 161.960938 C 142.074219 162.273438 141.507812 162.085938 140.566406 160.894531 C 139.9375 160.082031 139.375 158.953125 139.375 158.390625 C 139.375 156.949219 138.683594 156.511719 137.742188 157.261719 C 137.175781 157.699219 136.546875 157.699219 135.667969 157.261719 C 134.917969 156.824219 134.289062 156.824219 134.039062 157.136719 C 133.847656 157.511719 134.289062 158.078125 135.042969 158.453125 C 136.046875 159.015625 136.234375 159.519531 135.921875 160.832031 C 135.667969 161.773438 135.105469 162.964844 134.601562 163.527344 C 133.597656 164.65625 133.410156 166.222656 134.351562 165.65625 C 135.105469 165.21875 136.234375 167.914062 136.234375 170.105469 C 136.234375 171.609375 138.179688 174.117188 139.4375 174.117188 C 139.8125 174.117188 140.878906 173.300781 141.882812 172.300781 C 144.207031 170.042969 144.332031 170.421875 144.835938 179.441406 C 145.148438 185.957031 145.085938 186.523438 143.640625 189.464844 C 142.386719 192.035156 142.199219 192.976562 142.636719 194.730469 C 142.953125 195.855469 143.140625 196.921875 143.015625 197.046875 C 142.890625 197.109375 139.4375 197.296875 135.292969 197.359375 L 127.757812 197.421875 L 127.570312 193.789062 C 127.445312 191.21875 126.503906 187.835938 124.496094 182.886719 C 120.289062 172.363281 119.535156 170.984375 113.507812 164.46875 C 110.433594 161.210938 107.984375 158.078125 107.984375 157.574219 C 107.984375 155.882812 110.558594 156.449219 112.316406 158.515625 C 119.535156 166.910156 123.050781 170.292969 123.050781 168.726562 C 123.050781 168.476562 121.796875 165.972656 120.226562 163.152344 C 116.960938 157.074219 112.628906 151.183594 109.554688 148.492188 C 107.484375 146.738281 107.417969 146.550781 108.550781 145.921875 C 110.558594 144.917969 112.820312 146.234375 115.203125 149.808594 C 116.460938 151.625 118.53125 154.503906 119.914062 156.199219 C 121.230469 157.890625 122.863281 160.644531 123.492188 162.273438 C 124.683594 165.46875 125.9375 166.160156 125.6875 163.464844 C 125.25 159.457031 122.046875 149.996094 119.222656 144.105469 C 116.710938 139.03125 116.207031 137.464844 116.898438 137.089844 C 118.15625 136.273438 118.59375 136.398438 120.164062 138.089844 Z M 195.101562 139.84375 C 195.605469 140.160156 193.03125 139.640625 191.210938 139.453125 C 189.078125 139.265625 187.210938 139.21875 185.890625 139.84375 C 183.882812 140.847656 183.128906 140.222656 185.074219 139.09375 C 186.394531 138.277344 193.972656 139.09375 195.101562 139.84375 Z M 219.351562 140.222656 C 221.863281 141.597656 223.433594 143.917969 223.933594 146.738281 L 224.3125 149.117188 L 221.863281 148.617188 C 220.542969 148.367188 216.085938 148.113281 212.007812 148.113281 C 203.910156 148.113281 203.59375 147.925781 205.539062 144.167969 C 208.113281 139.15625 214.328125 137.402344 219.351562 140.222656 Z M 195.9375 140.722656 C 196.753906 141.722656 197.316406 140.902344 196.375 140.085938 C 195.746094 139.648438 194.617188 140.03125 194.617188 139.90625 C 194.617188 139.40625 195.121094 139.71875 195.9375 140.722656 Z M 192.359375 141.160156 C 194.996094 142.226562 197.128906 144.980469 197.128906 147.238281 C 197.128906 148.867188 197.066406 148.929688 195.121094 148.367188 C 193.988281 148.050781 190.851562 147.738281 188.214844 147.738281 L 183.316406 147.738281 L 183.632812 145.484375 C 183.757812 144.230469 184.195312 142.914062 184.511719 142.601562 C 184.886719 142.226562 188.558594 140.925781 189.5625 140.738281 C 190.503906 140.738281 191.164062 140.660156 192.359375 141.160156 Z M 185.328125 150.933594 C 185.5625 152.609375 184.824219 153.253906 183.882812 151.5 C 183.316406 150.433594 183.378906 150.058594 184.007812 149.617188 C 185.390625 148.742188 185.089844 149.257812 185.328125 150.933594 Z M 195.121094 150.121094 C 196.5 150.433594 196.5 150.496094 195.433594 151.75 C 193.046875 154.378906 189.0625 154.128906 186.015625 153.253906 C 182.972656 152.375 185.796875 152.375 186.332031 153.003906 C 186.863281 153.628906 189.847656 151.5 188.214844 149.746094 C 187.523438 149.054688 187.964844 148.992188 190.539062 149.367188 C 192.296875 149.554688 194.304688 149.933594 195.121094 150.121094 Z M 218.472656 149.746094 C 220.734375 150.058594 222.804688 150.621094 223.117188 150.933594 C 224.125 151.9375 218.976562 156.449219 216.339844 156.886719 C 213.136719 157.511719 209.558594 156.386719 207.171875 153.941406 C 204.976562 151.75 204.914062 150.121094 207.046875 149.808594 C 208.367188 149.617188 208.429688 149.679688 207.738281 150.808594 C 207.109375 151.8125 207.109375 152.25 207.738281 153.066406 C 209.683594 155.382812 213.828125 153.378906 212.320312 150.871094 C 211.882812 150.246094 211.566406 149.554688 211.566406 149.367188 C 211.566406 148.867188 214.015625 148.992188 218.472656 149.746094 Z M 141.257812 163.277344 C 143.769531 163.964844 143.515625 168.664062 140.753906 171.734375 C 139.4375 173.300781 137.488281 172.113281 137.488281 169.730469 C 137.488281 168.726562 137.238281 167.226562 136.863281 166.285156 C 136.421875 165.15625 136.484375 163.839844 136.988281 161.898438 L 137.742188 159.140625 L 138.871094 161.085938 C 139.5625 162.085938 140.628906 163.089844 141.257812 163.277344 Z M 151.050781 161.460938 C 150.484375 162.023438 148.726562 160.957031 149.105469 160.332031 C 149.417969 159.832031 149.792969 159.894531 150.421875 160.394531 C 150.925781 160.769531 151.175781 161.273438 151.050781 161.460938 Z M 153.183594 163.777344 C 153.183594 164.28125 152.808594 164.71875 152.304688 164.71875 C 151.238281 164.71875 150.546875 163.839844 151.113281 163.214844 C 151.867188 162.460938 153.183594 162.839844 153.183594 163.777344 Z M 145.714844 164.40625 C 145.777344 165.46875 144.585938 165.46875 144.144531 164.40625 C 143.894531 163.714844 144.082031 163.464844 144.773438 163.589844 C 145.273438 163.714844 145.714844 164.03125 145.714844 164.40625 Z M 154.441406 167.601562 C 154.441406 168.164062 154 168.476562 153.371094 168.351562 C 151.804688 168.039062 151.613281 166.597656 153.121094 166.597656 C 153.875 166.597656 154.441406 166.972656 154.441406 167.601562 Z M 147.535156 168.164062 C 147.535156 168.664062 147.15625 169.105469 146.65625 169.105469 C 145.589844 169.105469 144.898438 168.226562 145.460938 167.601562 C 146.214844 166.847656 147.535156 167.226562 147.535156 168.164062 Z M 155.695312 171.296875 C 155.695312 171.734375 155.257812 172.300781 154.753906 172.488281 C 153.5 172.925781 152.683594 171.046875 153.875 170.355469 C 154.878906 169.730469 155.695312 170.105469 155.695312 171.296875 Z M 148.164062 172.238281 C 148.164062 172.925781 147.722656 173.488281 147.222656 173.488281 C 146.277344 173.488281 145.902344 172.175781 146.71875 171.421875 C 147.472656 170.609375 148.164062 170.984375 148.164062 172.238281 Z M 155.695312 175.996094 C 155.695312 176.683594 155.257812 177.25 154.753906 177.25 C 154.25 177.25 153.8125 176.683594 153.8125 175.996094 C 153.8125 175.308594 154.25 174.742188 154.753906 174.742188 C 155.257812 174.742188 155.695312 175.308594 155.695312 175.996094 Z M 148.789062 177.25 C 148.789062 178.0625 148.351562 178.503906 147.535156 178.503906 C 146.339844 178.503906 145.839844 177.25 146.71875 176.433594 C 147.535156 175.558594 148.789062 176.058594 148.789062 177.25 Z M 155.695312 181.632812 C 155.695312 182.324219 155.257812 182.886719 154.753906 182.886719 C 154.25 182.886719 153.8125 182.324219 153.8125 181.632812 C 153.8125 180.945312 154.25 180.382812 154.753906 180.382812 C 155.257812 180.382812 155.695312 180.945312 155.695312 181.632812 Z M 149.292969 183.074219 C 149.417969 183.828125 149.105469 184.140625 148.226562 184.140625 C 147.285156 184.140625 146.90625 183.765625 146.90625 182.824219 C 146.90625 181.257812 148.976562 181.445312 149.292969 183.074219 Z M 155.570312 187.398438 C 155.320312 189.214844 153.183594 189.78125 153.183594 188.023438 C 153.183594 186.648438 153.6875 186.019531 154.878906 186.019531 C 155.445312 186.019531 155.695312 186.523438 155.570312 187.398438 Z M 149.292969 188.964844 C 149.167969 189.59375 148.476562 190.15625 147.660156 190.28125 C 146.152344 190.53125 146.089844 190.40625 146.65625 188.902344 C 147.222656 187.460938 149.542969 187.585938 149.292969 188.964844 Z M 155.695312 193.851562 C 155.695312 194.792969 155.320312 195.417969 154.816406 195.417969 C 153.308594 195.417969 152.933594 194.039062 154.125 193.101562 C 155.695312 192.035156 155.695312 192.035156 155.695312 193.851562 Z M 149.417969 195.355469 C 149.417969 196.546875 147.972656 197.546875 147.285156 196.859375 C 146.40625 195.917969 146.96875 194.164062 148.164062 194.164062 C 148.976562 194.164062 149.417969 194.605469 149.417969 195.355469 Z M 237.117188 198.613281 C 236.238281 200.617188 229.710938 207.511719 225.753906 210.519531 C 224.8125 211.269531 221.800781 213.148438 219.226562 214.652344 C 213.890625 217.660156 214.015625 217.722656 221.613281 216.40625 C 224.5625 215.90625 227.074219 215.46875 227.136719 215.46875 C 227.511719 215.46875 223.683594 220.542969 218.976562 226.246094 C 215.019531 231.132812 214.203125 231.820312 211.316406 232.636719 C 206.671875 234.011719 197.503906 235.515625 197.003906 235.015625 C 196.375 234.328125 193.109375 225.242188 191.164062 218.601562 C 190.222656 215.34375 189.28125 212.335938 189.15625 211.894531 C 188.96875 211.457031 190.789062 212.148438 193.175781 213.335938 C 197.003906 215.28125 199.765625 216.21875 198.007812 214.964844 C 195.496094 213.210938 190.914062 203.6875 190.851562 200.179688 C 190.851562 199.242188 191.101562 199.367188 192.230469 200.808594 C 192.921875 201.808594 195.246094 204.378906 197.378906 206.507812 C 200.957031 210.203125 201.335938 210.457031 204.097656 210.457031 C 211.128906 210.457031 225.816406 204.691406 234.167969 198.675781 C 236.050781 197.296875 237.683594 196.234375 237.808594 196.359375 C 237.933594 196.484375 237.621094 197.484375 237.117188 198.613281 Z M 157.328125 200.933594 C 156.261719 201.996094 155.066406 201.433594 155.066406 199.804688 C 155.066406 198.238281 156.449219 197.800781 157.453125 199.050781 C 158.082031 199.867188 158.082031 200.242188 157.328125 200.933594 Z M 150.546875 201.558594 C 150.734375 202.625 150.421875 202.9375 149.480469 202.9375 C 148.601562 202.9375 148.164062 202.5625 148.164062 201.808594 C 148.164062 199.429688 150.234375 199.242188 150.546875 201.558594 Z M 150.546875 201.558594 " fill-opacity="1" fill-rule="nonzero"/></g><path fill="#000000" d="M 214.753906 131.011719 C 212.871094 131.449219 208.789062 133.265625 208.789062 133.703125 C 208.789062 133.894531 210.546875 134.082031 212.746094 134.144531 C 219.648438 134.207031 225.867188 137.277344 229.003906 142.164062 L 230.257812 144.105469 L 229.882812 141.976562 C 229.316406 138.78125 226.117188 134.207031 223.417969 132.703125 C 220.90625 131.324219 216.886719 130.574219 214.753906 131.011719 Z M 214.753906 131.011719 " fill-opacity="1" fill-rule="nonzero"/><path fill="#000000" d="M 220.402344 178.691406 C 222.347656 183.515625 222.285156 186.460938 220.027344 189.59375 C 219.023438 191.03125 218.960938 191.410156 219.710938 191.410156 C 220.214844 191.410156 221.21875 190.65625 221.910156 189.78125 C 223.605469 187.585938 223.667969 183.390625 221.972656 180.132812 C 220.71875 177.625 219.523438 176.621094 220.402344 178.691406 Z M 220.402344 178.691406 " fill-opacity="1" fill-rule="nonzero"/><path fill="#000000" d="M 197.363281 180.632812 C 196.359375 180.757812 195.605469 181.257812 195.605469 181.761719 C 195.605469 182.449219 196.988281 182.636719 202.699219 182.636719 C 208.664062 182.636719 210.046875 182.824219 211.867188 183.953125 C 214.441406 185.519531 215.945312 184.703125 214.1875 182.699219 C 212.242188 180.570312 205.085938 179.691406 197.363281 180.632812 Z M 197.363281 180.632812 " fill-opacity="1" fill-rule="nonzero"/><path fill="#000000" d="M 137.472656 183.390625 C 138.542969 186.960938 138.542969 188.777344 137.601562 191.03125 C 136.40625 193.976562 136.34375 194.542969 137.410156 194.542969 C 138.351562 194.542969 139.734375 190.65625 139.734375 188.023438 C 139.734375 186.207031 138.164062 182.011719 137.472656 182.011719 C 137.285156 182.011719 137.285156 182.636719 137.472656 183.390625 Z M 137.472656 183.390625 " fill-opacity="1" fill-rule="nonzero"/><path fill="#000000" d="M 204.394531 217.410156 C 203.957031 217.910156 203.769531 218.976562 204.019531 219.855469 C 204.710938 222.671875 208.476562 222.671875 209.167969 219.855469 C 209.667969 217.972656 208.476562 216.46875 206.59375 216.46875 C 205.839844 216.46875 204.835938 216.910156 204.394531 217.410156 Z M 204.394531 217.410156 " fill-opacity="1" fill-rule="nonzero"/><path fill="#000000" d="M 204.144531 226.871094 C 203.578125 227.371094 203.140625 228.25 203.140625 228.6875 C 203.140625 229.125 203.578125 230.003906 204.144531 230.503906 C 206.027344 232.382812 208.789062 231.320312 208.789062 228.6875 C 208.789062 226.054688 206.027344 224.992188 204.144531 226.871094 Z M 204.144531 226.871094 " fill-opacity="1" fill-rule="nonzero"/><g clip-path="url(#8de1cfd9d9)"><path fill="#000000" d="M 59.214844 307.792969 C 57.125 303.238281 56.035156 298.496094 55.957031 293.566406 C 55.820312 282.5 57.351562 273.953125 60.539062 267.925781 C 63.25 262.808594 67.003906 259.6875 71.800781 258.5625 C 72.207031 258.453125 72.597656 258.375 72.96875 258.320312 C 72.96875 259.660156 72.957031 260.890625 72.929688 262.015625 C 72.929688 263.328125 72.90625 264.265625 72.851562 264.828125 L 72.570312 264.867188 L 72.246094 264.949219 L 71.925781 265.03125 C 71.65625 265.082031 71.402344 265.152344 71.160156 265.234375 C 70.570312 265.394531 70.007812 265.59375 69.472656 265.835938 C 68.019531 266.53125 66.761719 267.5625 65.691406 268.929688 C 62.578125 272.8125 60.878906 279.324219 60.582031 288.460938 C 60.421875 293.257812 61.023438 297.476562 62.390625 301.121094 C 63.410156 303.878906 64.847656 306.210938 66.695312 308.113281 C 68.917969 310.445312 71.1875 311.773438 73.496094 312.089844 C 73.496094 312.386719 73.496094 312.789062 73.496094 313.300781 L 73.535156 314.023438 L 73.535156 314.785156 C 73.535156 315.351562 73.535156 315.804688 73.535156 316.152344 C 72.96875 316.125 72.449219 316.070312 71.964844 315.992188 C 65.53125 314.949219 61.277344 312.214844 59.214844 307.792969 Z M 84.070312 312.089844 C 79.917969 314.558594 76.859375 315.882812 74.902344 316.070312 C 74.875 315.695312 74.863281 315.253906 74.863281 314.742188 C 74.835938 312.898438 74.792969 311.773438 74.738281 311.371094 L 74.660156 310.804688 L 74.097656 310.804688 C 73.800781 310.804688 73.453125 310.75 73.050781 310.648438 C 72.542969 310.515625 72.03125 310.324219 71.523438 310.082031 C 70.15625 309.410156 68.871094 308.449219 67.660156 307.191406 C 65.917969 305.398438 64.5625 303.1875 63.597656 300.558594 C 62.308594 297.128906 61.75 293.109375 61.910156 288.503906 C 62.207031 279.820312 63.761719 273.644531 66.574219 269.972656 C 67.570312 268.6875 68.71875 267.722656 70.03125 267.078125 C 70.515625 266.835938 71.027344 266.636719 71.566406 266.476562 C 71.777344 266.421875 72.007812 266.371094 72.246094 266.316406 L 72.527344 266.234375 L 72.808594 266.195312 C 73.238281 266.117188 73.535156 266.050781 73.695312 265.996094 L 74.054688 265.835938 L 74.136719 265.476562 C 74.191406 265.042969 74.234375 263.972656 74.257812 262.257812 C 74.285156 261.585938 74.296875 260.847656 74.296875 260.046875 C 74.296875 259.460938 74.296875 258.839844 74.296875 258.195312 C 76.417969 258.121094 78.480469 258.546875 80.492188 259.488281 C 81.214844 259.832031 81.914062 260.234375 82.585938 260.691406 C 83.070312 261.011719 83.496094 261.347656 83.871094 261.695312 C 84.894531 259.6875 85.910156 257.890625 86.925781 256.308594 C 86.796875 256.253906 86.59375 256.152344 86.324219 255.988281 L 86 255.785156 L 85.601562 255.542969 C 84.878906 255.144531 84.222656 254.785156 83.628906 254.460938 C 81.753906 253.519531 79.902344 252.851562 78.078125 252.449219 C 72.582031 251.273438 67.191406 252.503906 61.910156 256.152344 C 57.726562 259.015625 54.476562 263.945312 52.175781 270.9375 C 50.054688 277.289062 49.023438 284.199219 49.078125 291.675781 C 49.132812 297.199219 50.230469 302.476562 52.375 307.511719 C 54.898438 313.382812 58.285156 317.359375 62.550781 319.445312 C 66.089844 321.1875 70.238281 322.007812 74.980469 321.898438 C 80.800781 321.738281 85.171875 319.945312 88.09375 316.511719 C 86.566406 315.09375 85.226562 313.621094 84.070312 312.089844 Z M 84.070312 312.089844 " fill-opacity="1" fill-rule="nonzero"/></g><path fill="#000000" d="M 105.3125 316.035156 C 105.175781 316.007812 104.976562 315.980469 104.707031 315.953125 L 103.988281 315.910156 C 102.695312 315.804688 101.691406 315.722656 100.96875 315.667969 L 101.050781 312.773438 L 101.167969 309.84375 L 101.328125 303.894531 C 101.464844 299.257812 101.570312 295.308594 101.652344 292.039062 C 101.839844 283.089844 101.878906 275.789062 101.769531 270.136719 C 102.390625 270.109375 103.191406 270.042969 104.1875 269.933594 L 105.3125 269.855469 C 105.6875 269.828125 105.992188 269.800781 106.234375 269.773438 C 106.234375 272.535156 106.117188 280.222656 105.875 292.839844 C 105.632812 304.84375 105.445312 312.574219 105.3125 316.035156 Z M 107.445312 268.527344 L 106.960938 268.445312 C 106.613281 268.417969 105.648438 268.472656 104.0625 268.605469 L 103.542969 268.6875 L 102.976562 268.730469 C 102.496094 268.757812 102.078125 268.785156 101.734375 268.8125 C 101.679688 266.988281 101.609375 265.703125 101.53125 264.949219 C 100.539062 264.820312 98.996094 264.828125 96.902344 264.992188 L 95.617188 265.109375 L 94.414062 265.234375 C 93.527344 265.285156 92.816406 265.324219 92.277344 265.351562 C 93.515625 300.425781 94.128906 320.0625 94.128906 324.273438 C 94.585938 324.324219 95.132812 324.363281 95.777344 324.390625 L 97.425781 324.472656 C 98.878906 324.523438 99.9375 324.605469 100.605469 324.714844 C 100.683594 324.257812 100.792969 321.683594 100.925781 316.996094 C 101.355469 317.023438 101.878906 317.0625 102.496094 317.117188 L 103.21875 317.195312 L 103.863281 317.238281 C 105.042969 317.347656 105.730469 317.402344 105.914062 317.402344 L 105.992188 317.359375 L 106.558594 317.359375 L 106.601562 316.792969 C 106.628906 316.691406 106.691406 314.183594 106.800781 309.28125 C 106.933594 304.03125 107.070312 298.644531 107.203125 293.125 C 107.527344 277.5 107.632812 269.453125 107.527344 268.96875 Z M 101.167969 260.449219 L 101.167969 250 L 91.550781 250 L 92.277344 260.449219 Z M 101.167969 260.449219 " fill-opacity="1" fill-rule="nonzero"/><path fill="#000000" d="M 137.453125 295.695312 C 136.644531 294.113281 134.632812 289.089844 131.417969 280.625 C 130.828125 279.097656 130.144531 277.316406 129.367188 275.277344 L 128.363281 272.589844 L 127.355469 269.933594 C 125.742188 265.621094 124.582031 262.511719 123.855469 260.613281 C 123.9375 260.585938 124.242188 260.476562 124.78125 260.289062 C 125.050781 260.207031 125.292969 260.128906 125.507812 260.046875 L 126.269531 259.765625 C 127.636719 259.308594 128.453125 259.058594 128.722656 259.003906 C 129.097656 260.15625 130.636719 264.414062 133.347656 271.78125 L 133.832031 273.109375 L 134.3125 274.476562 L 135.359375 277.210938 C 136.113281 279.269531 136.726562 281 137.210938 282.390625 C 137.398438 291.019531 137.480469 295.453125 137.453125 295.695312 Z M 125.023438 294.25 L 125.0625 295.976562 L 125.183594 299.472656 C 125.265625 302.152344 125.316406 304.445312 125.34375 306.34375 C 125.480469 311.359375 125.519531 314.464844 125.464844 315.667969 C 124.824219 315.75 124.027344 315.777344 123.089844 315.75 C 122.097656 315.75 121.320312 315.683594 120.757812 315.550781 C 120.8125 310.488281 120.785156 302.109375 120.675781 290.429688 C 120.648438 285.984375 120.613281 281.886719 120.558594 278.136719 C 120.503906 274.59375 120.460938 272.4375 120.433594 271.664062 C 120.8125 272.734375 122.230469 276.816406 124.699219 283.917969 C 124.753906 285.664062 124.851562 288.558594 124.980469 292.601562 Z M 143.082031 254.382812 C 142.089844 254.273438 140.210938 254.445312 137.453125 254.902344 C 137.183594 255.117188 137.039062 257.71875 137.011719 262.699219 C 136.984375 266.394531 137.023438 271.59375 137.128906 278.292969 C 136.566406 276.6875 135.722656 274.355469 134.597656 271.300781 C 133.09375 267.28125 131.40625 262.617188 129.523438 257.3125 C 125.878906 258.519531 123.828125 259.203125 123.371094 259.363281 C 122.191406 256.390625 121.535156 254.839844 121.402344 254.703125 C 120.703125 254.140625 117.648438 254.445312 112.230469 255.625 C 112.230469 256.511719 112.3125 260.34375 112.46875 267.121094 C 112.578125 271.25 112.765625 278.441406 113.035156 288.703125 C 113.570312 308.984375 113.824219 319.371094 113.796875 319.847656 C 114.175781 319.984375 115.277344 320.039062 117.09375 320.011719 C 118.734375 319.984375 119.914062 319.917969 120.640625 319.8125 C 120.691406 319.40625 120.730469 318.429688 120.757812 316.875 C 121.457031 317.007812 122.3125 317.078125 123.332031 317.078125 C 123.953125 317.078125 124.566406 317.0625 125.183594 317.035156 C 125.695312 316.980469 126.039062 316.929688 126.226562 316.875 L 126.667969 316.792969 L 126.75 316.351562 C 126.910156 315.335938 126.765625 307.40625 126.308594 292.558594 C 126.226562 290.714844 126.175781 289.222656 126.148438 288.101562 C 129.632812 298.144531 133.65625 309.777344 138.214844 322.984375 C 138.808594 323.09375 139.867188 323.132812 141.394531 323.105469 C 142.976562 323.078125 143.929688 322.996094 144.25 322.863281 C 144.519531 320.9375 144.449219 309.492188 144.046875 288.542969 C 143.675781 267.992188 143.351562 256.605469 143.082031 254.382812 Z M 143.082031 254.382812 " fill-opacity="1" fill-rule="nonzero"/><path fill="#000000" d="M 162.714844 267.722656 C 162.824219 270.808594 162.886719 273.578125 162.914062 276.042969 C 161.492188 276.070312 160.230469 276.097656 159.132812 276.125 C 158.8125 266.636719 158.515625 260.53125 158.246094 257.796875 C 158.863281 257.742188 160.273438 257.726562 162.472656 257.753906 C 162.472656 260.164062 162.554688 263.492188 162.714844 267.722656 Z M 172.847656 281.628906 C 172.929688 281.175781 172.972656 280.476562 172.972656 279.539062 L 173.976562 279.539062 C 174.351562 279.511719 174.6875 279.511719 174.984375 279.539062 C 175.011719 280.132812 174.996094 281.039062 174.941406 282.273438 C 174.914062 283.15625 174.875 284.125 174.820312 285.167969 C 174.472656 285.167969 174.125 285.167969 173.773438 285.167969 C 173.316406 285.167969 172.863281 285.167969 172.40625 285.167969 C 171.230469 285.195312 170.144531 285.222656 169.148438 285.246094 C 166.363281 285.300781 164.613281 285.367188 163.921875 285.449219 L 163.398438 285.527344 L 163.316406 286.050781 C 163.316406 286.078125 163.316406 286.4375 163.316406 287.136719 C 163.316406 287.886719 163.316406 288.808594 163.316406 289.90625 C 163.34375 292.800781 163.371094 295.695312 163.398438 298.589844 C 163.503906 307.324219 163.679688 312.960938 163.921875 315.507812 C 163.167969 315.507812 162.367188 315.535156 161.503906 315.589844 L 161.027344 315.628906 L 160.621094 315.628906 C 160.355469 315.65625 160.164062 315.667969 160.058594 315.667969 C 159.226562 294.851562 158.847656 283.703125 158.933594 282.230469 C 159.84375 282.101562 162.175781 281.992188 165.929688 281.910156 L 168.023438 281.871094 C 168.800781 281.84375 169.460938 281.832031 169.992188 281.832031 C 171.332031 281.777344 172.289062 281.707031 172.847656 281.628906 Z M 176.828125 257.917969 C 176.886719 257.566406 176.84375 256.628906 176.710938 255.101562 L 176.671875 254.21875 L 176.589844 253.375 C 176.539062 252.816406 176.523438 252.410156 176.550781 252.171875 C 174.402344 251.875 169.6875 251.6875 162.390625 251.605469 C 154.882812 251.503906 151.035156 251.621094 150.84375 251.96875 C 152.238281 296.984375 152.925781 320.332031 152.898438 322.023438 C 154.480469 322.261719 158.460938 322.339844 164.84375 322.261719 C 166.992188 322.234375 169.164062 322.195312 171.363281 322.140625 C 172.191406 322.113281 172.902344 322.085938 173.492188 322.058594 C 174.027344 322.058594 174.339844 322.050781 174.417969 322.023438 C 174.5 321.457031 174.484375 320.425781 174.375 318.925781 C 174.296875 317.691406 174.203125 316.636719 174.097656 315.75 C 171.65625 315.480469 168.664062 315.390625 165.125 315.46875 C 165.019531 313.457031 164.898438 308.597656 164.765625 300.878906 C 164.65625 293.539062 164.613281 288.820312 164.644531 286.734375 C 165.769531 286.652344 167.890625 286.585938 171 286.535156 C 171.535156 286.535156 172.101562 286.519531 172.6875 286.492188 C 173.144531 286.492188 173.613281 286.492188 174.097656 286.492188 L 174.617188 286.492188 C 174.78125 286.492188 174.929688 286.480469 175.0625 286.453125 L 176.070312 286.453125 L 176.109375 285.851562 C 176.136719 285.472656 176.160156 282.984375 176.1875 278.371094 C 174.632812 278.238281 173.546875 278.183594 172.929688 278.210938 C 172.902344 277.464844 172.875 276.796875 172.847656 276.203125 C 172.339844 276.097656 171.203125 276.03125 169.429688 276.003906 C 168.035156 275.976562 166.308594 275.976562 164.242188 276.003906 C 164.214844 273.671875 164.148438 270.898438 164.039062 267.683594 C 163.878906 263.527344 163.796875 260.21875 163.796875 257.753906 C 164.871094 257.753906 166.238281 257.78125 167.902344 257.835938 L 169.953125 257.878906 C 170.835938 257.878906 171.492188 257.890625 171.921875 257.917969 C 174.820312 257.96875 176.457031 257.96875 176.828125 257.917969 Z M 176.828125 257.917969 " fill-opacity="1" fill-rule="nonzero"/><path fill="#000000" d="M 206.878906 295.695312 C 206.078125 294.113281 204.066406 289.089844 200.84375 280.625 C 200.257812 279.097656 199.574219 277.316406 198.792969 275.277344 L 197.789062 272.589844 L 196.785156 269.933594 C 195.175781 265.621094 194.007812 262.511719 193.28125 260.613281 C 193.363281 260.585938 193.675781 260.476562 194.207031 260.289062 C 194.476562 260.207031 194.71875 260.128906 194.933594 260.046875 L 195.695312 259.765625 C 197.0625 259.308594 197.886719 259.058594 198.148438 259.003906 C 198.527344 260.15625 200.070312 264.414062 202.78125 271.78125 L 203.257812 273.109375 L 203.742188 274.476562 L 204.785156 277.210938 C 205.539062 279.269531 206.15625 281 206.636719 282.390625 C 206.824219 291.019531 206.90625 295.453125 206.878906 295.695312 Z M 194.449219 294.25 L 194.492188 295.976562 L 194.609375 299.472656 C 194.691406 302.152344 194.746094 304.445312 194.773438 306.34375 C 194.90625 311.359375 194.949219 314.464844 194.890625 315.667969 C 194.25 315.75 193.460938 315.777344 192.519531 315.75 C 191.527344 315.75 190.75 315.683594 190.183594 315.550781 C 190.242188 310.488281 190.214844 302.109375 190.109375 290.429688 C 190.082031 285.984375 190.039062 281.886719 189.984375 278.136719 C 189.929688 274.59375 189.894531 272.4375 189.867188 271.664062 C 190.242188 272.734375 191.664062 276.816406 194.132812 283.917969 C 194.179688 285.664062 194.277344 288.558594 194.410156 292.601562 Z M 212.511719 254.382812 C 211.519531 254.273438 209.644531 254.445312 206.878906 254.902344 C 206.609375 255.117188 206.464844 257.71875 206.4375 262.699219 C 206.410156 266.394531 206.449219 271.59375 206.558594 278.292969 C 205.996094 276.6875 205.152344 274.355469 204.023438 271.300781 C 202.523438 267.28125 200.832031 262.617188 198.957031 257.3125 C 195.308594 258.519531 193.253906 259.203125 192.800781 259.363281 C 191.621094 256.390625 190.964844 254.839844 190.828125 254.703125 C 190.128906 254.140625 187.074219 254.445312 181.660156 255.625 C 181.660156 256.511719 181.738281 260.34375 181.902344 267.121094 C 182.007812 271.25 182.195312 278.441406 182.464844 288.703125 C 183 308.984375 183.253906 319.371094 183.230469 319.847656 C 183.605469 319.984375 184.703125 320.039062 186.527344 320.011719 C 188.160156 319.984375 189.339844 319.917969 190.066406 319.8125 C 190.121094 319.40625 190.15625 318.429688 190.183594 316.875 C 190.882812 317.007812 191.742188 317.078125 192.761719 317.078125 C 193.378906 317.078125 193.992188 317.0625 194.609375 317.035156 C 195.121094 316.980469 195.46875 316.929688 195.660156 316.875 L 196.101562 316.792969 L 196.179688 316.351562 C 196.34375 315.335938 196.191406 307.40625 195.738281 292.558594 C 195.660156 290.714844 195.605469 289.222656 195.578125 288.101562 C 199.0625 298.144531 203.085938 309.777344 207.644531 322.984375 C 208.234375 323.09375 209.292969 323.132812 210.820312 323.105469 C 212.402344 323.078125 213.355469 322.996094 213.675781 322.863281 C 213.945312 320.9375 213.882812 309.492188 213.476562 288.542969 C 213.101562 267.992188 212.777344 256.605469 212.511719 254.382812 Z M 212.511719 254.382812 " fill-opacity="1" fill-rule="nonzero"/><g clip-path="url(#8bd071d08e)"><path fill="#000000" d="M 255.632812 285.6875 C 255.472656 283.277344 255.1875 281.039062 254.785156 278.976562 C 254.683594 278.414062 254.53125 277.757812 254.34375 277.007812 C 254.210938 276.796875 253.570312 276.085938 252.414062 274.875 C 251.984375 274.421875 251.433594 273.859375 250.761719 273.191406 C 250.363281 272.761719 249.761719 272.140625 248.957031 271.339844 C 244.367188 266.652344 241.714844 263.796875 240.988281 262.78125 C 239.675781 263.316406 238.445312 264.265625 237.289062 265.632812 C 238.714844 266.816406 241.6875 269.910156 246.222656 274.917969 C 247.882812 276.796875 249.664062 278.800781 251.570312 280.945312 C 253.097656 282.714844 254.453125 284.296875 255.632812 285.6875 Z M 249.921875 270.414062 C 251.558594 272.078125 252.761719 273.308594 253.542969 274.117188 C 252.46875 270.792969 251.191406 268.113281 249.71875 266.078125 C 247.84375 263.554688 245.804688 262.296875 243.605469 262.296875 C 243.253906 262.296875 242.839844 262.339844 242.355469 262.417969 C 242.949219 263.113281 244.050781 264.320312 245.65625 266.035156 C 246.273438 266.679688 246.996094 267.429688 247.832031 268.285156 L 248.917969 269.371094 L 249.4375 269.894531 Z M 247.75 299.03125 L 246.664062 297.90625 C 245.832031 297.019531 245.066406 296.21875 244.367188 295.492188 C 242.597656 293.621094 241.015625 291.945312 239.625 290.472656 C 236.003906 286.585938 233.347656 283.625 231.65625 281.589844 C 231.363281 284.324219 231.269531 287.148438 231.378906 290.070312 C 232.3125 290.84375 234.503906 292.949219 237.933594 296.378906 C 240.296875 298.738281 243.710938 302.207031 248.191406 306.785156 C 249.691406 308.339844 250.761719 309.4375 251.40625 310.082031 C 252.296875 308.746094 253.058594 307.136719 253.699219 305.261719 C 253.113281 304.617188 251.476562 302.902344 248.792969 300.113281 Z M 255.632812 295.417969 C 255.820312 292.949219 255.859375 290.390625 255.753906 287.738281 C 254.949219 286.640625 251.902344 283.171875 246.621094 277.328125 C 241.125 271.222656 237.757812 267.644531 236.527344 266.597656 C 235.535156 268.019531 234.664062 269.730469 233.910156 271.742188 C 235.171875 272.976562 238.65625 276.726562 244.367188 282.996094 C 246.433594 285.246094 248.632812 287.667969 250.964844 290.269531 C 252.84375 292.308594 254.398438 294.023438 255.632812 295.417969 Z M 247.222656 307.710938 C 246.851562 307.339844 246.554688 307.027344 246.339844 306.785156 C 245.992188 306.441406 245.667969 306.117188 245.375 305.824219 C 244.625 305.046875 243.925781 304.335938 243.285156 303.691406 C 241.625 301.980469 240.132812 300.464844 238.816406 299.152344 C 235.332031 295.617188 232.894531 293.207031 231.496094 291.917969 C 231.710938 295.078125 232.152344 298.070312 232.824219 300.878906 C 233.335938 301.253906 234.3125 301.964844 235.761719 303.007812 C 237.34375 304.214844 238.941406 305.417969 240.546875 306.628906 C 244.921875 309.976562 247.617188 312.132812 248.632812 313.097656 L 248.714844 313.058594 C 249.304688 312.574219 249.933594 311.933594 250.605469 311.128906 C 250.257812 310.777344 249.132812 309.640625 247.222656 307.710938 Z M 233.425781 273.109375 C 232.785156 275.117188 232.277344 277.328125 231.898438 279.738281 C 233.375 281.644531 236.042969 284.671875 239.902344 288.820312 C 241.382812 290.402344 243.082031 292.199219 245.011719 294.207031 C 245.738281 294.988281 246.554688 295.84375 247.464844 296.777344 L 248.632812 298.027344 C 248.929688 298.320312 249.304688 298.710938 249.761719 299.195312 C 252.011719 301.523438 253.472656 303.050781 254.144531 303.773438 C 254.738281 301.765625 255.164062 299.566406 255.429688 297.183594 C 253.714844 295.253906 250.175781 291.34375 244.8125 285.449219 C 238.832031 278.882812 235.035156 274.773438 233.425781 273.109375 Z M 249.558594 314.101562 C 248.945312 314.558594 248.191406 314.949219 247.304688 315.269531 C 246.261719 315.640625 245.191406 315.832031 244.085938 315.832031 C 243.097656 315.832031 242.117188 315.65625 241.152344 315.308594 C 239.945312 314.90625 238.804688 314.238281 237.730469 313.300781 C 234.996094 310.914062 232.945312 306.964844 231.578125 301.441406 C 229.941406 294.769531 229.527344 287.980469 230.328125 281.066406 C 231.164062 274.152344 233.011719 268.859375 235.878906 265.191406 C 238.105469 262.378906 240.695312 260.972656 243.644531 260.972656 C 247.347656 260.972656 250.472656 263.707031 253.015625 269.171875 C 253.875 270.964844 254.613281 272.976562 255.230469 275.199219 C 255.445312 275.949219 255.644531 276.699219 255.835938 277.453125 C 255.886719 277.714844 255.941406 277.972656 255.996094 278.210938 L 256.078125 278.535156 L 256.113281 278.738281 C 256.625 281.390625 256.949219 284.269531 257.082031 287.378906 L 257.082031 287.417969 C 257.351562 293.070312 256.949219 298.132812 255.871094 302.609375 C 254.613281 307.96875 252.511719 311.800781 249.558594 314.101562 Z M 228.316406 317.71875 C 224.804688 313.753906 222.40625 308.4375 221.121094 301.765625 C 220.125 296.703125 219.804688 291.019531 220.152344 284.726562 C 220.449219 279.285156 221.175781 274.035156 222.324219 268.96875 C 222.78125 267.042969 223.25 265.339844 223.734375 263.867188 C 224.1875 262.554688 224.550781 261.683594 224.820312 261.253906 C 225.410156 261.519531 226.027344 261.800781 226.671875 262.097656 C 227.445312 262.472656 228.160156 262.824219 228.800781 263.140625 C 226.308594 267.832031 224.714844 273.605469 224.015625 280.464844 C 223.449219 285.957031 223.503906 291.703125 224.175781 297.703125 C 224.984375 305.371094 227.195312 311.359375 230.8125 315.667969 L 230.492188 315.953125 L 230.171875 316.234375 L 229.484375 316.835938 C 228.953125 317.265625 228.558594 317.558594 228.316406 317.71875 Z M 259.894531 267.5625 C 258.636719 264.082031 256.921875 261.089844 254.746094 258.601562 C 252.65625 256.164062 250.335938 254.433594 247.789062 253.417969 C 245.214844 252.371094 242.652344 252.144531 240.105469 252.734375 C 237.398438 253.375 234.945312 254.914062 232.746094 257.355469 C 231.566406 258.667969 230.464844 260.207031 229.445312 261.976562 C 228.558594 261.519531 227.570312 261.050781 226.472656 260.570312 C 226.097656 260.382812 225.730469 260.21875 225.386719 260.089844 C 225.117188 259.953125 224.941406 259.875 224.859375 259.847656 C 224.5625 259.792969 224.285156 259.914062 224.015625 260.207031 C 223.90625 260.289062 223.816406 260.40625 223.734375 260.570312 L 223.613281 260.730469 L 223.53125 260.890625 C 222.730469 262.367188 221.859375 265.234375 220.917969 269.488281 C 219.765625 274.71875 219.054688 279.96875 218.785156 285.246094 C 218.007812 300.4375 220.960938 311.664062 227.636719 318.925781 L 227.839844 319.128906 L 228.117188 319.128906 C 228.628906 319.128906 229.824219 318.308594 231.699219 316.675781 C 234.378906 319.488281 237.585938 321.164062 241.3125 321.699219 C 246.273438 322.394531 250.535156 321.296875 254.101562 318.402344 C 257.429688 315.667969 259.816406 311.625 261.265625 306.265625 C 264.886719 293 264.429688 280.105469 259.894531 267.5625 Z M 233.390625 302.890625 C 235.667969 310.632812 239.234375 314.507812 244.085938 314.507812 C 245.214844 314.507812 246.324219 314.25 247.425781 313.742188 C 246.40625 312.882812 244.261719 311.195312 240.988281 308.679688 C 237.855469 306.238281 235.320312 304.308594 233.390625 302.890625 Z M 244.652344 241.078125 L 239.824219 248.953125 L 243.242188 248.953125 L 249.960938 241.078125 Z M 244.652344 241.078125 " fill-opacity="1" fill-rule="nonzero"/></g><path fill="#000000" d="M 280.855469 316.035156 C 280.71875 316.007812 280.515625 315.980469 280.253906 315.953125 L 279.527344 315.910156 C 278.242188 315.804688 277.234375 315.722656 276.507812 315.667969 L 276.589844 312.773438 L 276.710938 309.84375 L 276.871094 303.894531 C 277.003906 299.257812 277.113281 295.308594 277.191406 292.039062 C 277.382812 283.089844 277.421875 275.789062 277.316406 270.136719 C 277.929688 270.109375 278.734375 270.042969 279.726562 269.933594 L 280.855469 269.855469 C 281.230469 269.828125 281.539062 269.800781 281.78125 269.773438 C 281.78125 272.535156 281.65625 280.222656 281.414062 292.839844 C 281.171875 304.84375 280.988281 312.574219 280.855469 316.035156 Z M 282.984375 268.527344 L 282.5 268.445312 C 282.15625 268.417969 281.1875 268.472656 279.609375 268.605469 L 279.085938 268.6875 L 278.519531 268.730469 C 278.039062 268.757812 277.621094 268.785156 277.273438 268.8125 C 277.21875 266.988281 277.15625 265.703125 277.074219 264.949219 C 276.078125 264.820312 274.535156 264.828125 272.449219 264.992188 L 271.160156 265.109375 L 269.953125 265.234375 C 269.066406 265.285156 268.355469 265.324219 267.824219 265.351562 C 269.054688 300.425781 269.671875 320.0625 269.671875 324.273438 C 270.125 324.324219 270.679688 324.363281 271.320312 324.390625 L 272.96875 324.472656 C 274.417969 324.523438 275.476562 324.605469 276.148438 324.714844 C 276.230469 324.257812 276.335938 321.683594 276.472656 316.996094 C 276.898438 317.023438 277.421875 317.0625 278.039062 317.117188 L 278.761719 317.195312 L 279.402344 317.238281 C 280.585938 317.347656 281.269531 317.402344 281.457031 317.402344 L 281.539062 317.359375 L 282.097656 317.359375 L 282.140625 316.792969 C 282.167969 316.691406 282.238281 314.183594 282.34375 309.28125 C 282.476562 304.03125 282.609375 298.644531 282.742188 293.125 C 283.066406 277.5 283.171875 269.453125 283.066406 268.96875 Z M 276.710938 260.449219 L 276.710938 250 L 267.097656 250 L 267.824219 260.449219 Z M 276.710938 260.449219 " fill-opacity="1" fill-rule="nonzero"/><g clip-path="url(#26c477dae0)"><path fill="#000000" d="M 292.71875 313.058594 L 292.15625 312.9375 L 291.3125 312.816406 L 290.429688 312.65625 C 289.785156 312.496094 289.289062 312.332031 288.9375 312.171875 C 289.074219 311.828125 289.21875 311.421875 289.378906 310.964844 C 289.570312 310.378906 289.773438 309.761719 289.988281 309.121094 C 290.574219 307.378906 291.175781 305.597656 291.796875 303.773438 C 293.59375 298.546875 295.296875 293.578125 296.90625 288.863281 C 301.757812 274.691406 305.125 264.976562 307 259.722656 C 310.539062 259.777344 312.460938 259.847656 312.75 259.929688 C 310.710938 264.238281 307.269531 273.136719 302.414062 286.613281 C 300.535156 291.8125 298.703125 297.007812 296.90625 302.207031 C 295.269531 306.949219 294.035156 310.59375 293.203125 313.140625 Z M 291.191406 251.324219 C 291.191406 251.539062 291.21875 252.0625 291.273438 252.890625 L 291.3125 253.457031 L 291.355469 254.058594 L 291.472656 255.34375 C 291.605469 257.621094 291.675781 259.042969 291.675781 259.605469 C 292.046875 259.660156 293.765625 259.6875 296.824219 259.6875 C 297.410156 259.6875 298.109375 259.699219 298.917969 259.722656 L 301.128906 259.722656 C 303.085938 259.722656 304.574219 259.722656 305.589844 259.722656 C 303.554688 265.40625 299.949219 275.816406 294.769531 290.953125 C 293.160156 295.667969 291.472656 300.613281 289.703125 305.785156 C 289.40625 306.667969 289.113281 307.550781 288.816406 308.4375 C 288.578125 309.105469 288.347656 309.777344 288.132812 310.445312 C 288.050781 310.6875 287.976562 310.929688 287.890625 311.171875 L 287.773438 311.488281 L 287.691406 311.730469 C 287.585938 312.054688 287.53125 312.226562 287.53125 312.253906 L 287.371094 312.699219 L 287.734375 312.976562 C 288.132812 313.300781 288.765625 313.582031 289.621094 313.824219 C 289.945312 313.902344 290.320312 313.984375 290.75 314.066406 L 291.957031 314.265625 L 292.800781 314.425781 C 292.613281 315.09375 292.503906 315.480469 292.480469 315.589844 L 293 320.210938 C 294.558594 320.425781 304.667969 321.125 323.332031 322.300781 C 323.625 322.300781 323.8125 321.605469 323.894531 320.210938 C 323.921875 319.730469 323.949219 319.179688 323.976562 318.5625 C 323.976562 318.058594 323.964844 317.613281 323.933594 317.238281 C 322.242188 317.210938 318.460938 316.890625 312.589844 316.273438 C 310.394531 316.035156 308.167969 315.792969 305.914062 315.550781 C 303.902344 315.308594 302.402344 315.121094 301.40625 314.984375 C 301.621094 313.566406 309.65625 294.609375 325.503906 258.121094 C 325.691406 255.625 325.761719 253.507812 325.707031 251.765625 Z M 291.191406 251.324219 " fill-opacity="1" fill-rule="nonzero"/></g></svg>