<svg xmlns="http://www.w3.org/2000/svg" xmlns:xlink="http://www.w3.org/1999/xlink" width="500" zoomAndPan="magnify" viewBox="0 0 375 374.999991" height="500" preserveAspectRatio="xMidYMid meet" version="1.0"><defs><clipPath id="c75e556454"><path d="M 82 21 L 293.277344 21 L 293.277344 234.523438 L 82 234.523438 Z M 82 21 " clip-rule="nonzero"/></clipPath><clipPath id="6b9d25ad5b"><path d="M 32.953125 246 L 77 246 L 77 325 L 32.953125 325 Z M 32.953125 246 " clip-rule="nonzero"/></clipPath><clipPath id="366076fc6a"><path d="M 222 234.316406 L 273 234.316406 L 273 325 L 222 325 Z M 222 234.316406 " clip-rule="nonzero"/></clipPath><clipPath id="a0e3d80386"><path d="M 299 245 L 341.953125 245 L 341.953125 326 L 299 326 Z M 299 245 " clip-rule="nonzero"/></clipPath></defs><path fill="#f5bf02" d="M 290.652344 127.910156 C 290.652344 129.578125 290.613281 131.246094 290.53125 132.910156 C 290.449219 134.578125 290.328125 136.238281 290.164062 137.898438 C 290.003906 139.558594 289.800781 141.210938 289.554688 142.863281 C 289.3125 144.511719 289.027344 146.152344 288.703125 147.789062 C 288.378906 149.425781 288.015625 151.050781 287.609375 152.667969 C 287.207031 154.285156 286.765625 155.890625 286.28125 157.488281 C 285.800781 159.082031 285.277344 160.664062 284.71875 162.234375 C 284.15625 163.804688 283.558594 165.359375 282.925781 166.902344 C 282.289062 168.441406 281.613281 169.964844 280.902344 171.472656 C 280.195312 172.980469 279.445312 174.46875 278.664062 175.941406 C 277.878906 177.410156 277.0625 178.859375 276.207031 180.292969 C 275.351562 181.722656 274.464844 183.128906 273.539062 184.515625 C 272.617188 185.902344 271.660156 187.265625 270.667969 188.605469 C 269.679688 189.945312 268.65625 191.257812 267.601562 192.546875 C 266.550781 193.835938 265.464844 195.097656 264.347656 196.332031 C 263.230469 197.570312 262.085938 198.777344 260.910156 199.957031 C 259.734375 201.136719 258.53125 202.285156 257.300781 203.402344 C 256.070312 204.523438 254.8125 205.613281 253.527344 206.671875 C 252.242188 207.726562 250.933594 208.753906 249.597656 209.746094 C 248.261719 210.742188 246.902344 211.699219 245.523438 212.625 C 244.140625 213.554688 242.738281 214.445312 241.3125 215.300781 C 239.886719 216.160156 238.441406 216.980469 236.972656 217.765625 C 235.507812 218.554688 234.023438 219.300781 232.523438 220.015625 C 231.019531 220.726562 229.5 221.402344 227.964844 222.042969 C 226.429688 222.679688 224.878906 223.28125 223.316406 223.839844 C 221.75 224.402344 220.171875 224.925781 218.582031 225.410156 C 216.992188 225.894531 215.390625 226.339844 213.777344 226.742188 C 212.164062 227.148438 210.542969 227.515625 208.914062 227.839844 C 207.285156 228.164062 205.648438 228.449219 204.003906 228.695312 C 202.359375 228.9375 200.710938 229.144531 199.058594 229.308594 C 197.402344 229.46875 195.746094 229.59375 194.085938 229.675781 C 192.425781 229.757812 190.765625 229.796875 189.101562 229.796875 C 187.441406 229.796875 185.78125 229.757812 184.121094 229.675781 C 182.460938 229.59375 180.804688 229.46875 179.148438 229.308594 C 177.496094 229.144531 175.847656 228.9375 174.203125 228.695312 C 172.558594 228.449219 170.921875 228.164062 169.292969 227.839844 C 167.660156 227.515625 166.039062 227.148438 164.429688 226.742188 C 162.816406 226.339844 161.214844 225.894531 159.625 225.410156 C 158.035156 224.925781 156.457031 224.402344 154.890625 223.839844 C 153.328125 223.28125 151.777344 222.679688 150.242188 222.042969 C 148.707031 221.402344 147.1875 220.726562 145.683594 220.015625 C 144.183594 219.300781 142.699219 218.554688 141.234375 217.765625 C 139.765625 216.980469 138.320312 216.160156 136.894531 215.300781 C 135.46875 214.445312 134.066406 213.554688 132.683594 212.625 C 131.300781 211.699219 129.945312 210.742188 128.609375 209.746094 C 127.273438 208.753906 125.964844 207.726562 124.679688 206.671875 C 123.394531 205.613281 122.136719 204.523438 120.90625 203.402344 C 119.675781 202.285156 118.472656 201.136719 117.296875 199.957031 C 116.121094 198.777344 114.976562 197.570312 113.859375 196.332031 C 112.742188 195.097656 111.65625 193.835938 110.601562 192.546875 C 109.550781 191.257812 108.527344 189.945312 107.535156 188.605469 C 106.546875 187.265625 105.589844 185.902344 104.667969 184.515625 C 103.742188 183.128906 102.855469 181.722656 102 180.292969 C 101.144531 178.859375 100.328125 177.410156 99.542969 175.941406 C 98.761719 174.46875 98.011719 172.980469 97.300781 171.472656 C 96.589844 169.964844 95.917969 168.441406 95.28125 166.902344 C 94.644531 165.359375 94.046875 163.804688 93.488281 162.234375 C 92.929688 160.664062 92.40625 159.082031 91.925781 157.488281 C 91.441406 155.890625 91 154.285156 90.59375 152.667969 C 90.191406 151.050781 89.828125 149.425781 89.503906 147.789062 C 89.179688 146.152344 88.894531 144.511719 88.652344 142.863281 C 88.40625 141.210938 88.203125 139.558594 88.042969 137.898438 C 87.878906 136.238281 87.757812 134.578125 87.675781 132.910156 C 87.59375 131.246094 87.550781 129.578125 87.550781 127.910156 C 87.550781 126.246094 87.59375 124.578125 87.675781 122.914062 C 87.757812 121.246094 87.878906 119.585938 88.042969 117.925781 C 88.203125 116.265625 88.40625 114.613281 88.652344 112.960938 C 88.894531 111.3125 89.179688 109.671875 89.503906 108.035156 C 89.828125 106.398438 90.191406 104.773438 90.59375 103.15625 C 91 101.539062 91.441406 99.929688 91.925781 98.335938 C 92.40625 96.738281 92.929688 95.15625 93.488281 93.585938 C 94.046875 92.015625 94.644531 90.460938 95.28125 88.921875 C 95.917969 87.382812 96.589844 85.855469 97.300781 84.351562 C 98.011719 82.84375 98.761719 81.355469 99.542969 79.882812 C 100.328125 78.414062 101.144531 76.960938 102 75.53125 C 102.855469 74.101562 103.742188 72.695312 104.667969 71.308594 C 105.589844 69.921875 106.546875 68.558594 107.535156 67.21875 C 108.527344 65.878906 109.550781 64.566406 110.601562 63.277344 C 111.65625 61.988281 112.742188 60.726562 113.859375 59.488281 C 114.976562 58.253906 116.121094 57.046875 117.296875 55.867188 C 118.472656 54.6875 119.675781 53.539062 120.90625 52.417969 C 122.136719 51.300781 123.394531 50.210938 124.679688 49.152344 C 125.964844 48.09375 127.273438 47.070312 128.609375 46.078125 C 129.945312 45.082031 131.300781 44.125 132.683594 43.195312 C 134.066406 42.269531 135.46875 41.378906 136.894531 40.519531 C 138.320312 39.664062 139.765625 38.84375 141.234375 38.054688 C 142.699219 37.269531 144.183594 36.519531 145.683594 35.808594 C 147.1875 35.09375 148.707031 34.417969 150.242188 33.78125 C 151.777344 33.144531 153.328125 32.542969 154.890625 31.980469 C 156.457031 31.421875 158.035156 30.898438 159.625 30.414062 C 161.214844 29.929688 162.816406 29.484375 164.429688 29.078125 C 166.039062 28.675781 167.660156 28.308594 169.292969 27.984375 C 170.921875 27.660156 172.558594 27.375 174.203125 27.128906 C 175.847656 26.882812 177.496094 26.679688 179.148438 26.515625 C 180.804688 26.351562 182.460938 26.230469 184.121094 26.148438 C 185.78125 26.066406 187.441406 26.027344 189.101562 26.027344 C 190.765625 26.027344 192.425781 26.066406 194.085938 26.148438 C 195.746094 26.230469 197.402344 26.351562 199.058594 26.515625 C 200.710938 26.679688 202.359375 26.882812 204.003906 27.128906 C 205.648438 27.375 207.285156 27.660156 208.914062 27.984375 C 210.542969 28.308594 212.164062 28.675781 213.777344 29.078125 C 215.390625 29.484375 216.992188 29.929688 218.582031 30.414062 C 220.171875 30.898438 221.75 31.421875 223.316406 31.980469 C 224.878906 32.542969 226.429688 33.144531 227.964844 33.78125 C 229.5 34.417969 231.019531 35.09375 232.523438 35.808594 C 234.023438 36.519531 235.507812 37.269531 236.972656 38.054688 C 238.441406 38.84375 239.886719 39.664062 241.3125 40.519531 C 242.738281 41.378906 244.140625 42.269531 245.523438 43.195312 C 246.902344 44.125 248.261719 45.082031 249.597656 46.078125 C 250.933594 47.070312 252.242188 48.09375 253.527344 49.152344 C 254.8125 50.210938 256.070312 51.300781 257.300781 52.417969 C 258.53125 53.539062 259.734375 54.6875 260.910156 55.867188 C 262.085938 57.046875 263.230469 58.253906 264.347656 59.488281 C 265.464844 60.726562 266.550781 61.988281 267.601562 63.277344 C 268.65625 64.566406 269.679688 65.878906 270.667969 67.21875 C 271.660156 68.558594 272.617188 69.921875 273.539062 71.308594 C 274.464844 72.695312 275.351562 74.101562 276.207031 75.53125 C 277.0625 76.960938 277.878906 78.414062 278.664062 79.882812 C 279.445312 81.355469 280.195312 82.84375 280.902344 84.351562 C 281.613281 85.855469 282.289062 87.382812 282.925781 88.921875 C 283.558594 90.460938 284.15625 92.015625 284.71875 93.585938 C 285.277344 95.15625 285.800781 96.738281 286.28125 98.335938 C 286.765625 99.929688 287.207031 101.539062 287.609375 103.15625 C 288.015625 104.773438 288.378906 106.398438 288.703125 108.035156 C 289.027344 109.671875 289.3125 111.3125 289.554688 112.960938 C 289.800781 114.613281 290.003906 116.265625 290.164062 117.925781 C 290.328125 119.585938 290.449219 121.246094 290.53125 122.914062 C 290.613281 124.578125 290.652344 126.246094 290.652344 127.910156 Z M 290.652344 127.910156 " fill-opacity="1" fill-rule="nonzero"/><path fill="#fad3c2" d="M 119.039062 172.550781 C 120.089844 174.914062 120.878906 183.84375 121.925781 187.257812 L 139.769531 186.46875 L 140.296875 179.117188 L 141.609375 172.550781 L 141.609375 161.523438 L 140.296875 155.222656 L 138.984375 155.222656 L 134.523438 158.371094 L 132.949219 157.585938 L 132.160156 154.171875 L 130.324219 149.183594 L 130.847656 147.082031 L 132.949219 141.566406 L 135.308594 145.503906 L 138.984375 147.082031 L 141.871094 146.03125 L 141.082031 142.089844 L 138.457031 137.890625 L 135.308594 135 L 129.539062 135 L 126.914062 136.316406 L 124.027344 143.667969 L 120.878906 133.6875 L 114.84375 120.296875 L 113.003906 117.933594 C 112.480469 117.671875 111.0625 117.144531 109.59375 117.144531 C 108.125 117.144531 108.457031 118.371094 108.808594 118.984375 L 110.644531 124.234375 L 116.15625 137.890625 L 115.628906 139.992188 L 111.429688 135 L 107.496094 130.011719 L 104.609375 127.648438 L 102.246094 126.863281 C 101.808594 126.863281 100.726562 127.070312 99.886719 127.910156 C 99.046875 128.753906 99.535156 129.664062 99.886719 130.011719 L 102.246094 132.636719 L 108.808594 140.777344 L 109.59375 146.03125 L 104.347656 140.777344 C 103.910156 140.253906 102.613281 139.203125 100.933594 139.203125 C 99.253906 139.203125 99.011719 140.253906 99.097656 140.777344 L 100.933594 144.191406 L 113.003906 159.949219 C 114.667969 163.363281 118.199219 170.660156 119.039062 172.550781 Z M 119.039062 172.550781 " fill-opacity="1" fill-rule="nonzero"/><path fill="#fad3c2" d="M 183.855469 163.625 L 192.515625 183.320312 L 195.402344 188.570312 L 208.785156 198.285156 L 227.9375 192.507812 L 246.046875 181.21875 L 249.457031 171.503906 L 253.394531 163.625 L 264.675781 150.757812 L 264.675781 133.6875 L 258.117188 126.074219 L 251.292969 128.4375 L 248.144531 106.640625 L 237.648438 106.640625 L 183.855469 110.84375 L 182.019531 133.6875 Z M 183.855469 163.625 " fill-opacity="1" fill-rule="nonzero"/><path stroke-linecap="butt" transform="matrix(0.524811, 0, 0, 0.525184, 81.77931, 20.77412)" fill="none" stroke-linejoin="miter" d="M 70.996458 288.996999 C 72.998666 293.496908 74.502182 310.49987 76.496946 317.000566 L 110.497254 315.498117 L 111.502079 301.500052 L 114.002977 288.996999 L 114.002977 267.999902 L 111.502079 256.002624 L 109.001181 256.002624 L 100.501104 261.997544 L 97.501514 260.502533 L 95.997998 254.001837 L 92.499718 244.503682 L 93.4971 240.50211 L 97.501514 229.999843 L 101.997177 237.497212 L 109.001181 240.50211 L 114.501669 238.501324 L 112.998152 230.996517 L 107.996356 223.00081 L 101.997177 217.496789 L 91.003645 217.496789 L 86.001848 220.00335 L 80.50136 234.001415 L 74.502182 214.997666 L 63.002515 189.50066 L 59.496792 185.000751 C 58.49941 184.502414 55.797546 183.498302 52.998922 183.498302 C 50.200298 183.498302 50.832966 185.833792 51.502849 187.001537 L 55.001129 196.99803 L 65.503414 223.00081 L 64.498589 227.002383 L 56.497203 217.496789 L 49.001951 207.998634 L 43.501463 203.498725 L 38.998357 202.003714 C 38.164725 202.003714 36.102972 202.397921 34.502695 203.997062 C 32.902418 205.603641 33.832812 207.336664 34.502695 207.998634 L 38.998357 212.99688 L 51.502849 228.497394 L 52.998922 238.501324 L 43.002772 228.497394 C 42.169139 227.50072 39.698014 225.499934 36.497459 225.499934 C 33.296905 225.499934 32.835429 227.50072 32.999179 228.497394 L 36.497459 234.998089 L 59.496792 265.002442 C 62.667574 271.503137 69.396181 285.397071 70.996458 288.996999 Z M 70.996458 288.996999 " stroke="#000000" stroke-width="1" stroke-opacity="1" stroke-miterlimit="4"/><path stroke-linecap="butt" transform="matrix(0.524811, 0, 0, 0.525184, 81.77931, 20.77412)" fill="none" stroke-linejoin="miter" d="M 194.500642 272.001474 L 211.002105 309.503196 L 216.502593 319.499689 L 242.002824 337.997662 L 278.496587 326.997058 L 313.003029 305.501624 L 319.500899 287.003651 L 327.003594 272.001474 L 348.49941 247.501142 L 348.49941 214.997666 L 336.002362 200.501265 L 322.999179 205.001174 L 317.000001 163.497879 L 297.000257 163.497879 L 194.500642 171.501024 L 191.002362 214.997666 Z M 194.500642 272.001474 " stroke="#000000" stroke-width="1" stroke-opacity="1" stroke-miterlimit="4"/><path fill="#ffffff" d="M 141.34375 159.421875 L 139.246094 148.394531 L 141.871094 145.503906 L 143.445312 143.929688 C 143.96875 143.492188 144.703125 143.195312 145.542969 143.40625 C 146.59375 143.667969 148.167969 145.769531 148.691406 145.769531 C 149.113281 145.769531 150.964844 150.230469 151.839844 152.59375 L 152.628906 159.160156 L 153.152344 170.976562 L 153.679688 180.691406 L 156.566406 190.410156 L 146.855469 193.035156 L 142.394531 191.984375 L 140.820312 180.691406 L 140.820312 169.925781 Z M 141.34375 159.421875 " fill-opacity="1" fill-rule="nonzero"/><path fill="#ffffff" d="M 219.28125 226.382812 L 196.449219 230.324219 C 193.300781 225.507812 186.898438 215.144531 186.480469 212.203125 C 186.058594 209.261719 184.730469 202.226562 184.117188 199.074219 L 191.726562 198.285156 C 190.503906 196.359375 188.054688 192.246094 188.054688 191.195312 C 188.054688 190.144531 189.101562 187.78125 189.628906 186.730469 L 193.039062 185.683594 L 196.449219 188.570312 L 207.472656 198.285156 L 215.34375 197.234375 L 234.238281 188.570312 L 246.308594 180.691406 L 247.355469 186.730469 C 244.558594 193.035156 238.855469 205.796875 238.433594 206.425781 C 238.015625 207.058594 225.488281 219.992188 219.28125 226.382812 Z M 219.28125 226.382812 " fill-opacity="1" fill-rule="nonzero"/><path fill="#ffffff" d="M 193.300781 137.890625 L 188.316406 137.890625 L 184.378906 136.839844 L 182.804688 134.738281 L 183.066406 131.0625 L 187.265625 130.273438 L 198.8125 131.851562 L 198.8125 134.214844 Z M 193.300781 137.890625 " fill-opacity="1" fill-rule="nonzero"/><path fill="#ffffff" d="M 207.996094 131.589844 L 211.144531 131.0625 L 218.230469 131.0625 L 226.628906 131.851562 L 227.675781 134.738281 L 222.953125 140.253906 L 216.917969 141.304688 C 213.507812 141.304688 208.207031 138.101562 207.996094 137.890625 C 207.785156 137.679688 206.859375 135.613281 206.160156 134.738281 Z M 207.996094 131.589844 " fill-opacity="1" fill-rule="nonzero"/><path fill="#ffffff" d="M 253.128906 99.027344 L 229.25 100.863281 L 231.351562 88.523438 L 231.351562 38.367188 L 237.125 23.398438 L 257.066406 27.078125 L 261.789062 34.167969 Z M 253.128906 99.027344 " fill-opacity="1" fill-rule="nonzero"/><g clip-path="url(#c75e556454)"><path fill="#000000" d="M 198.058594 21.824219 C 196.308594 22.105469 191.902344 22.382812 188.261719 22.382812 C 136.972656 22.804688 94.988281 56.835938 83.859375 107.042969 C 81.761719 116.359375 81.621094 138.625 83.511719 148.148438 C 91.070312 185.402344 115.980469 214.742188 151.175781 227.835938 C 173.707031 236.167969 201.417969 236.167969 223.949219 227.835938 C 252.222656 217.332031 275.03125 195.277344 285.597656 168.105469 C 291.617188 152.910156 293.644531 140.445312 293.015625 123.640625 C 292.105469 100.320312 284.410156 79.804688 269.574219 61.386719 L 265.726562 56.558594 L 266.84375 49.132812 C 268.945312 36.179688 268.105469 31.347656 263.277344 28.546875 C 260.269531 26.796875 249.210938 24.136719 238.085938 22.453125 C 228.007812 20.984375 204.777344 20.5625 198.058594 21.824219 Z M 247.042969 26.796875 C 254.039062 27.988281 254.949219 28.40625 254.460938 30.71875 C 252.570312 39.609375 248.933594 71.683594 248.511719 82.886719 C 248.160156 93.320312 247.8125 96.191406 247.042969 96.679688 C 245.714844 97.519531 235.355469 97.589844 234.867188 96.75 C 234.445312 96.121094 236.40625 27.496094 236.894531 26.167969 C 237.175781 25.324219 238.644531 25.394531 247.042969 26.796875 Z M 179.867188 29.035156 C 179.867188 29.175781 179.375 30.4375 178.816406 31.839844 C 177.90625 33.9375 177.835938 38.140625 178.1875 61.109375 C 178.46875 75.882812 178.46875 90.660156 178.1875 94.019531 L 177.628906 100.183594 L 167.691406 100.183594 C 158.59375 100.183594 157.542969 100.320312 156.425781 101.582031 C 155.304688 102.773438 155.234375 103.332031 155.933594 105.644531 C 156.355469 107.042969 157.683594 109.425781 158.875 110.824219 L 161.042969 113.488281 L 178.957031 113.488281 L 179.375 118.179688 C 179.65625 120.769531 179.65625 129.523438 179.445312 137.644531 C 179.027344 149.757812 179.167969 153.402344 180.144531 158.441406 C 181.335938 164.816406 185.253906 176.929688 187.632812 181.550781 L 189.035156 184.28125 L 184.625 186.3125 C 182.175781 187.433594 174.410156 191.003906 167.269531 194.226562 L 154.324219 200.105469 L 153.136719 203.886719 C 152.507812 205.988281 151.246094 210.191406 150.265625 213.203125 L 148.65625 218.804688 L 147.117188 207.949219 C 146.277344 201.996094 145.578125 196.675781 145.578125 196.046875 C 145.578125 195.207031 147.257812 194.363281 151.527344 193.035156 C 154.816406 191.984375 157.472656 191.074219 157.472656 190.933594 C 157.472656 190.792969 156.703125 188.902344 155.726562 186.800781 C 154.046875 183.160156 153.90625 182.109375 153.695312 169.714844 C 153.484375 158.371094 153.277344 155.921875 151.945312 151.71875 C 149.988281 145.835938 147.539062 143.105469 143.550781 142.476562 C 141.171875 142.125 140.402344 141.566406 138.792969 138.976562 C 136.480469 135.335938 134.382812 134.355469 129.765625 134.632812 C 126.476562 134.84375 126.265625 134.984375 124.796875 137.996094 L 123.328125 141.144531 L 122.558594 139.046875 C 120.667969 134.003906 120.109375 132.671875 119.617188 131.972656 C 119.269531 131.554688 118.359375 129.101562 117.589844 126.582031 C 115.839844 120.910156 112.691406 116.988281 109.890625 116.988281 C 106.8125 116.988281 106.042969 118.527344 107.652344 121.679688 C 109.402344 125.109375 114.089844 137.085938 114.089844 138.066406 C 114.089844 138.90625 109.683594 133.792969 106.953125 129.664062 C 104.855469 126.582031 102.335938 125.53125 99.464844 126.511719 C 96.667969 127.5625 96.875 129.242188 100.65625 134.003906 C 104.574219 138.976562 108.003906 144.296875 107.582031 144.71875 C 107.441406 144.859375 106.464844 143.738281 105.414062 142.195312 C 103.453125 139.253906 100.65625 137.996094 98.765625 139.1875 C 96.246094 140.796875 97.085938 142.757812 103.523438 150.390625 C 108.84375 156.761719 110.453125 159.210938 114.160156 167.335938 C 117.730469 175.039062 118.636719 177.769531 118.988281 181.550781 L 119.339844 186.242188 L 116.890625 186.664062 C 112.621094 187.363281 112.480469 187.640625 114.019531 192.613281 C 114.789062 195.066406 115.351562 197.234375 115.210938 197.375 C 114.71875 197.796875 107.582031 188.761719 103.945312 183.160156 C 96.804688 172.238281 92.328125 161.382812 89.460938 148.289062 C 87.289062 138.136719 87.21875 118.386719 89.460938 108.445312 C 98.277344 68.25 128.15625 38.558594 167.96875 30.226562 C 174.058594 28.96875 179.867188 28.40625 179.867188 29.035156 Z M 270.0625 71.753906 C 282.167969 89.328125 288.328125 110.824219 287.417969 132.394531 C 286.789062 146.886719 283.21875 160.824219 277.132812 173.078125 C 274.054688 179.101562 266.144531 191.214844 265.234375 191.214844 C 264.746094 191.214844 248.722656 181.832031 247.882812 181.058594 C 247.742188 180.921875 248.160156 178.539062 248.863281 175.667969 C 249.980469 170.90625 250.332031 170.277344 254.460938 166.566406 C 267.195312 154.730469 269.785156 142.335938 264.257812 119.4375 C 263.277344 115.585938 262.648438 112.296875 262.785156 112.15625 C 262.925781 112.015625 264.746094 112.296875 266.707031 112.785156 L 270.414062 113.695312 L 272.441406 111.316406 C 277.339844 105.574219 278.460938 101.582031 275.660156 99.0625 C 274.542969 98.082031 272.792969 97.730469 267.546875 97.519531 L 260.828125 97.242188 L 261.316406 91.148438 C 261.808594 84.496094 263.625 69.230469 264.257812 66.710938 C 264.746094 64.539062 265.515625 65.238281 270.0625 71.753906 Z M 245.222656 113.625 C 247.671875 122.730469 247.113281 136.523438 243.964844 142.757812 C 242.144531 146.328125 240.816406 147.800781 237.734375 149.339844 C 235.847656 150.25 235.847656 150.390625 237.035156 151.441406 C 239.34375 153.472656 243.824219 155.5 246.0625 155.5 C 249.980469 155.5 251.730469 152.070312 253.691406 140.375 C 254.808594 133.652344 256.070312 130.992188 258.027344 130.992188 C 259.566406 130.992188 261.039062 135.472656 261.039062 140.304688 C 261.039062 149.058594 257.46875 156.132812 251.660156 158.933594 C 248.230469 160.613281 248.582031 159.703125 246.273438 172.238281 C 245.222656 177.699219 243.125 180.289062 235.636719 185.472656 C 225.699219 192.335938 214.992188 196.816406 208.554688 196.816406 C 205.546875 196.816406 204.988281 196.535156 202.117188 193.453125 C 192.042969 182.671875 186.445312 171.539062 183.714844 156.691406 C 182.664062 150.738281 181.964844 138.414062 182.734375 137.714844 C 182.945312 137.433594 184.066406 137.714844 185.183594 138.34375 C 187.492188 139.535156 191.972656 139.746094 193.929688 138.695312 C 195.820312 137.644531 195.609375 138.207031 192.183594 143.527344 C 188.613281 149.058594 187.984375 150.738281 188.542969 153.121094 C 189.101562 155.363281 192.671875 156.902344 197.359375 156.902344 C 199.320312 156.902344 202.046875 157.390625 203.449219 157.953125 C 206.808594 159.351562 207.15625 159.28125 207.15625 157.253906 C 207.15625 154.871094 204.917969 154.101562 199.179688 154.3125 C 191.621094 154.519531 190.78125 152.28125 195.191406 143.667969 C 198.410156 137.296875 200.160156 131.832031 200.160156 127.769531 C 200.160156 124.199219 201 123.5 203.308594 124.96875 C 204.847656 125.953125 204.988281 126.441406 204.636719 129.171875 C 203.027344 140.796875 219.261719 147.238281 226.960938 137.996094 C 227.9375 136.875 228.917969 135.335938 229.199219 134.5625 C 229.410156 133.863281 230.25 133.09375 230.949219 132.882812 C 232.347656 132.535156 232.347656 133.023438 232.347656 153.820312 C 232.347656 172.308594 232.488281 175.109375 233.398438 175.109375 C 234.308594 175.109375 234.445312 172.167969 234.445312 152.839844 L 234.445312 130.574219 L 232.066406 129.734375 C 230.316406 129.101562 229.617188 128.332031 229.339844 126.863281 C 228.359375 122.238281 222.972656 118.386719 217.441406 118.386719 C 213.382812 118.386719 211.425781 119.160156 208.347656 121.890625 C 206.246094 123.710938 205.546875 123.921875 204.429688 123.359375 C 203.65625 122.941406 202.257812 122.589844 201.347656 122.589844 C 200.300781 122.589844 198.621094 121.609375 197.21875 120.207031 C 194.5625 117.546875 189.875 115.9375 186.375 116.496094 C 184.273438 116.847656 184.066406 116.707031 184.066406 115.167969 C 184.066406 113.765625 184.414062 113.488281 186.375 113.488281 C 187.5625 113.417969 190.363281 113.277344 192.460938 113.066406 C 204.707031 111.804688 228.289062 110.195312 235.636719 110.054688 L 244.171875 109.914062 Z M 112.269531 119.4375 C 113.878906 121.1875 115.28125 123.988281 117.097656 129.59375 C 117.730469 131.34375 118.988281 134.914062 119.96875 137.644531 C 120.949219 140.304688 121.789062 143.597656 121.789062 144.859375 C 121.789062 148.570312 123.1875 147.167969 125.214844 141.425781 C 127.035156 136.246094 127.035156 136.246094 129.765625 136.035156 C 131.304688 135.894531 133.191406 135.964844 134.03125 136.175781 C 135.710938 136.59375 138.929688 141.007812 139.699219 143.878906 C 140.050781 145.347656 139.839844 145.699219 138.230469 146.117188 C 136.691406 146.46875 136.0625 146.257812 135.011719 144.925781 C 134.3125 144.015625 133.683594 142.757812 133.683594 142.125 C 133.683594 140.515625 132.914062 140.027344 131.863281 140.867188 C 131.234375 141.355469 130.535156 141.355469 129.554688 140.867188 C 128.714844 140.375 128.015625 140.375 127.734375 140.726562 C 127.527344 141.144531 128.015625 141.777344 128.855469 142.195312 C 129.972656 142.828125 130.183594 143.386719 129.835938 144.859375 C 129.554688 145.90625 128.925781 147.238281 128.363281 147.867188 C 127.246094 149.128906 127.035156 150.878906 128.085938 150.25 C 128.925781 149.757812 130.183594 152.769531 130.183594 155.222656 C 130.183594 156.902344 132.355469 159.703125 133.753906 159.703125 C 134.171875 159.703125 135.363281 158.792969 136.480469 157.671875 C 139.070312 155.152344 139.210938 155.570312 139.769531 165.65625 C 140.121094 172.9375 140.050781 173.566406 138.441406 176.859375 C 137.042969 179.730469 136.832031 180.78125 137.320312 182.742188 C 137.671875 184 137.882812 185.191406 137.742188 185.332031 C 137.601562 185.402344 133.753906 185.613281 129.136719 185.683594 L 120.738281 185.75 L 120.527344 181.691406 C 120.386719 178.820312 119.339844 175.039062 117.097656 169.507812 C 112.410156 157.742188 111.570312 156.203125 104.851562 148.917969 C 101.425781 145.277344 98.695312 141.777344 98.695312 141.214844 C 98.695312 139.324219 101.566406 139.957031 103.523438 142.265625 C 111.570312 151.648438 115.488281 155.429688 115.488281 153.679688 C 115.488281 153.402344 114.089844 150.601562 112.339844 147.449219 C 108.703125 140.65625 103.875 134.074219 100.445312 131.0625 C 98.136719 129.101562 98.066406 128.890625 99.324219 128.191406 C 101.566406 127.070312 104.082031 128.542969 106.742188 132.535156 C 108.140625 134.5625 110.453125 137.785156 111.992188 139.675781 C 113.460938 141.566406 115.28125 144.648438 115.980469 146.46875 C 117.308594 150.039062 118.707031 150.808594 118.429688 147.800781 C 117.9375 143.316406 114.371094 132.742188 111.222656 126.160156 C 108.421875 120.488281 107.863281 118.738281 108.632812 118.316406 C 110.03125 117.40625 110.519531 117.546875 112.269531 119.4375 Z M 195.800781 121.398438 C 196.363281 121.75 193.496094 121.171875 191.464844 120.960938 C 189.085938 120.75 187.003906 120.699219 185.535156 121.398438 C 183.296875 122.519531 182.457031 121.820312 184.625 120.558594 C 186.09375 119.648438 194.542969 120.558594 195.800781 121.398438 Z M 222.832031 121.820312 C 225.628906 123.359375 227.378906 125.953125 227.9375 129.101562 L 228.359375 131.761719 L 225.628906 131.203125 C 224.160156 130.921875 219.191406 130.644531 214.644531 130.644531 C 205.617188 130.644531 205.265625 130.433594 207.4375 126.230469 C 210.304688 120.628906 217.234375 118.667969 222.832031 121.820312 Z M 196.730469 122.378906 C 197.640625 123.5 198.269531 122.578125 197.21875 121.667969 C 196.519531 121.179688 195.261719 121.609375 195.261719 121.46875 C 195.261719 120.910156 195.820312 121.257812 196.730469 122.378906 Z M 192.742188 122.871094 C 195.679688 124.058594 198.058594 127.140625 198.058594 129.664062 C 198.058594 131.484375 197.988281 131.554688 195.820312 130.921875 C 194.5625 130.574219 191.0625 130.222656 188.125 130.222656 L 182.664062 130.222656 L 183.015625 127.703125 C 183.15625 126.300781 183.644531 124.832031 183.996094 124.480469 C 184.414062 124.058594 188.507812 122.605469 189.628906 122.398438 C 190.675781 122.398438 191.414062 122.308594 192.742188 122.871094 Z M 184.90625 133.792969 C 185.167969 135.667969 184.34375 136.382812 183.296875 134.425781 C 182.664062 133.234375 182.734375 132.8125 183.433594 132.324219 C 184.972656 131.34375 184.640625 131.921875 184.90625 133.792969 Z M 195.820312 132.882812 C 197.359375 133.234375 197.359375 133.304688 196.171875 134.703125 C 193.511719 137.644531 189.066406 137.363281 185.675781 136.382812 C 182.28125 135.40625 185.429688 135.40625 186.023438 136.105469 C 186.621094 136.804688 189.941406 134.425781 188.125 132.464844 C 187.355469 131.691406 187.84375 131.625 190.710938 132.042969 C 192.671875 132.253906 194.910156 132.671875 195.820312 132.882812 Z M 221.851562 132.464844 C 224.371094 132.8125 226.679688 133.445312 227.03125 133.792969 C 228.148438 134.914062 222.410156 139.957031 219.472656 140.445312 C 215.902344 141.144531 211.914062 139.886719 209.257812 137.15625 C 206.808594 134.703125 206.738281 132.882812 209.117188 132.535156 C 210.585938 132.324219 210.65625 132.394531 209.886719 133.652344 C 209.1875 134.773438 209.1875 135.265625 209.886719 136.175781 C 212.054688 138.765625 216.671875 136.523438 214.992188 133.722656 C 214.503906 133.023438 214.152344 132.253906 214.152344 132.042969 C 214.152344 131.484375 216.882812 131.625 221.851562 132.464844 Z M 135.78125 147.589844 C 138.582031 148.359375 138.300781 153.609375 135.222656 157.042969 C 133.753906 158.792969 131.582031 157.460938 131.582031 154.800781 C 131.582031 153.679688 131.304688 152 130.882812 150.949219 C 130.394531 149.691406 130.464844 148.21875 131.023438 146.046875 L 131.863281 142.96875 L 133.125 145.136719 C 133.894531 146.257812 135.082031 147.378906 135.78125 147.589844 Z M 146.699219 145.558594 C 146.070312 146.1875 144.109375 144.996094 144.53125 144.296875 C 144.878906 143.738281 145.296875 143.808594 146 144.367188 C 146.558594 144.789062 146.839844 145.347656 146.699219 145.558594 Z M 149.078125 148.148438 C 149.078125 148.710938 148.65625 149.199219 148.097656 149.199219 C 146.910156 149.199219 146.136719 148.21875 146.769531 147.519531 C 147.609375 146.679688 149.078125 147.097656 149.078125 148.148438 Z M 140.75 148.847656 C 140.820312 150.039062 139.492188 150.039062 139 148.847656 C 138.722656 148.078125 138.929688 147.800781 139.699219 147.9375 C 140.261719 148.078125 140.75 148.429688 140.75 148.847656 Z M 150.476562 152.421875 C 150.476562 153.050781 149.988281 153.402344 149.289062 153.261719 C 147.539062 152.910156 147.328125 151.300781 149.007812 151.300781 C 149.847656 151.300781 150.476562 151.71875 150.476562 152.421875 Z M 142.78125 153.050781 C 142.78125 153.609375 142.359375 154.101562 141.800781 154.101562 C 140.609375 154.101562 139.839844 153.121094 140.46875 152.421875 C 141.308594 151.582031 142.78125 152 142.78125 153.050781 Z M 151.875 156.550781 C 151.875 157.042969 151.386719 157.671875 150.828125 157.882812 C 149.425781 158.371094 148.519531 156.273438 149.847656 155.5 C 150.964844 154.800781 151.875 155.222656 151.875 156.550781 Z M 143.480469 157.601562 C 143.480469 158.371094 142.988281 159.003906 142.429688 159.003906 C 141.378906 159.003906 140.960938 157.53125 141.871094 156.691406 C 142.710938 155.78125 143.480469 156.203125 143.480469 157.601562 Z M 151.875 161.804688 C 151.875 162.574219 151.386719 163.203125 150.828125 163.203125 C 150.265625 163.203125 149.777344 162.574219 149.777344 161.804688 C 149.777344 161.035156 150.265625 160.402344 150.828125 160.402344 C 151.386719 160.402344 151.875 161.035156 151.875 161.804688 Z M 144.179688 163.203125 C 144.179688 164.113281 143.691406 164.605469 142.78125 164.605469 C 141.449219 164.605469 140.890625 163.203125 141.871094 162.292969 C 142.78125 161.3125 144.179688 161.875 144.179688 163.203125 Z M 151.875 168.105469 C 151.875 168.875 151.386719 169.507812 150.828125 169.507812 C 150.265625 169.507812 149.777344 168.875 149.777344 168.105469 C 149.777344 167.335938 150.265625 166.707031 150.828125 166.707031 C 151.386719 166.707031 151.875 167.335938 151.875 168.105469 Z M 144.738281 169.714844 C 144.878906 170.558594 144.53125 170.90625 143.550781 170.90625 C 142.5 170.90625 142.082031 170.488281 142.082031 169.4375 C 142.082031 167.683594 144.390625 167.894531 144.738281 169.714844 Z M 151.738281 174.546875 C 151.457031 176.578125 149.078125 177.210938 149.078125 175.25 C 149.078125 173.707031 149.636719 173.007812 150.964844 173.007812 C 151.597656 173.007812 151.875 173.566406 151.738281 174.546875 Z M 144.738281 176.296875 C 144.597656 177 143.828125 177.628906 142.917969 177.769531 C 141.242188 178.050781 141.171875 177.910156 141.800781 176.230469 C 142.429688 174.617188 145.019531 174.757812 144.738281 176.296875 Z M 151.875 181.761719 C 151.875 182.8125 151.457031 183.511719 150.898438 183.511719 C 149.21875 183.511719 148.796875 181.96875 150.128906 180.921875 C 151.875 179.730469 151.875 179.730469 151.875 181.761719 Z M 144.878906 183.441406 C 144.878906 184.773438 143.269531 185.890625 142.5 185.121094 C 141.519531 184.070312 142.148438 182.109375 143.480469 182.109375 C 144.390625 182.109375 144.878906 182.601562 144.878906 183.441406 Z M 242.632812 187.082031 C 241.652344 189.324219 234.378906 197.027344 229.96875 200.386719 C 228.917969 201.226562 225.558594 203.328125 222.691406 205.007812 C 216.742188 208.371094 216.882812 208.441406 225.351562 206.96875 C 228.640625 206.410156 231.4375 205.917969 231.507812 205.917969 C 231.929688 205.917969 227.660156 211.589844 222.410156 217.964844 C 218.003906 223.425781 217.09375 224.195312 213.875 225.105469 C 208.695312 226.644531 198.480469 228.328125 197.921875 227.765625 C 197.21875 226.996094 193.582031 216.84375 191.414062 209.421875 C 190.363281 205.777344 189.3125 202.417969 189.171875 201.925781 C 188.964844 201.4375 190.992188 202.207031 193.652344 203.539062 C 197.921875 205.707031 201 206.757812 199.039062 205.359375 C 196.242188 203.398438 191.132812 192.753906 191.0625 188.832031 C 191.0625 187.78125 191.34375 187.921875 192.601562 189.53125 C 193.371094 190.652344 195.960938 193.523438 198.339844 195.90625 C 202.328125 200.035156 202.75 200.316406 205.828125 200.316406 C 213.664062 200.316406 230.039062 193.875 239.34375 187.152344 C 241.445312 185.613281 243.265625 184.421875 243.402344 184.5625 C 243.542969 184.703125 243.195312 185.820312 242.632812 187.082031 Z M 153.695312 189.671875 C 152.507812 190.863281 151.175781 190.234375 151.175781 188.414062 C 151.175781 186.664062 152.714844 186.171875 153.835938 187.574219 C 154.535156 188.484375 154.535156 188.902344 153.695312 189.671875 Z M 146.136719 190.375 C 146.347656 191.5625 146 191.914062 144.949219 191.914062 C 143.96875 191.914062 143.480469 191.496094 143.480469 190.652344 C 143.480469 187.992188 145.789062 187.78125 146.136719 190.375 Z M 146.136719 190.375 " fill-opacity="1" fill-rule="nonzero"/></g><path fill="#000000" d="M 217.707031 111.527344 C 215.605469 112.015625 211.058594 114.046875 211.058594 114.535156 C 211.058594 114.746094 213.015625 114.957031 215.464844 115.027344 C 223.164062 115.097656 230.089844 118.527344 233.589844 123.988281 L 234.988281 126.160156 L 234.570312 123.78125 C 233.941406 120.207031 230.371094 115.097656 227.363281 113.417969 C 224.5625 111.875 220.085938 111.035156 217.707031 111.527344 Z M 217.707031 111.527344 " fill-opacity="1" fill-rule="nonzero"/><path fill="#000000" d="M 224.003906 164.816406 C 226.171875 170.207031 226.101562 173.496094 223.582031 177 C 222.464844 178.609375 222.394531 179.03125 223.234375 179.03125 C 223.792969 179.03125 224.914062 178.1875 225.683594 177.210938 C 227.570312 174.757812 227.640625 170.066406 225.753906 166.425781 C 224.351562 163.625 223.023438 162.503906 224.003906 164.816406 Z M 224.003906 164.816406 " fill-opacity="1" fill-rule="nonzero"/><path fill="#000000" d="M 198.324219 166.984375 C 197.203125 167.125 196.363281 167.683594 196.363281 168.246094 C 196.363281 169.015625 197.902344 169.226562 204.269531 169.226562 C 210.917969 169.226562 212.457031 169.4375 214.488281 170.695312 C 217.355469 172.449219 219.035156 171.539062 217.074219 169.296875 C 214.90625 166.914062 206.929688 165.933594 198.324219 166.984375 Z M 198.324219 166.984375 " fill-opacity="1" fill-rule="nonzero"/><path fill="#000000" d="M 131.566406 170.066406 C 132.757812 174.058594 132.757812 176.089844 131.707031 178.609375 C 130.375 181.902344 130.308594 182.53125 131.496094 182.53125 C 132.546875 182.53125 134.085938 178.1875 134.085938 175.25 C 134.085938 173.21875 132.335938 168.527344 131.566406 168.527344 C 131.355469 168.527344 131.355469 169.226562 131.566406 170.066406 Z M 131.566406 170.066406 " fill-opacity="1" fill-rule="nonzero"/><path fill="#000000" d="M 206.160156 208.089844 C 205.671875 208.648438 205.460938 209.839844 205.738281 210.820312 C 206.507812 213.972656 210.707031 213.972656 211.476562 210.820312 C 212.039062 208.71875 210.707031 207.039062 208.609375 207.039062 C 207.769531 207.039062 206.648438 207.53125 206.160156 208.089844 Z M 206.160156 208.089844 " fill-opacity="1" fill-rule="nonzero"/><path fill="#000000" d="M 205.878906 218.664062 C 205.25 219.222656 204.761719 220.203125 204.761719 220.695312 C 204.761719 221.183594 205.25 222.164062 205.878906 222.726562 C 207.980469 224.824219 211.058594 223.636719 211.058594 220.695312 C 211.058594 217.753906 207.980469 216.5625 205.878906 218.664062 Z M 205.878906 218.664062 " fill-opacity="1" fill-rule="nonzero"/><g clip-path="url(#6b9d25ad5b)"><path fill="#ffffff" d="M 44.273438 308.894531 C 41.941406 303.800781 40.722656 298.5 40.636719 292.988281 C 40.484375 280.621094 42.195312 271.0625 45.757812 264.328125 C 48.78125 258.605469 52.976562 255.117188 58.335938 253.859375 C 58.789062 253.734375 59.222656 253.648438 59.640625 253.585938 C 59.640625 255.085938 59.625 256.460938 59.59375 257.71875 C 59.59375 259.1875 59.566406 260.234375 59.507812 260.863281 L 59.191406 260.910156 L 58.828125 261 L 58.472656 261.09375 C 58.171875 261.148438 57.886719 261.222656 57.617188 261.316406 C 56.960938 261.496094 56.332031 261.71875 55.730469 261.988281 C 54.113281 262.769531 52.707031 263.917969 51.507812 265.449219 C 48.035156 269.789062 46.132812 277.070312 45.800781 287.28125 C 45.625 292.640625 46.296875 297.359375 47.824219 301.433594 C 48.960938 304.519531 50.566406 307.125 52.628906 309.25 C 55.117188 311.859375 57.648438 313.339844 60.226562 313.699219 C 60.226562 314.027344 60.226562 314.476562 60.226562 315.046875 L 60.269531 315.859375 L 60.269531 316.707031 C 60.269531 317.339844 60.269531 317.851562 60.269531 318.238281 C 59.640625 318.207031 59.058594 318.144531 58.519531 318.058594 C 51.328125 316.890625 46.582031 313.835938 44.273438 308.894531 Z M 72.039062 313.699219 C 67.398438 316.453125 63.984375 317.9375 61.800781 318.144531 C 61.769531 317.726562 61.753906 317.234375 61.753906 316.664062 C 61.722656 314.601562 61.675781 313.339844 61.617188 312.894531 L 61.527344 312.261719 L 60.898438 312.261719 C 60.566406 312.261719 60.179688 312.199219 59.730469 312.082031 C 59.160156 311.933594 58.589844 311.722656 58.023438 311.453125 C 56.496094 310.703125 55.058594 309.628906 53.710938 308.222656 C 51.761719 306.214844 50.25 303.742188 49.171875 300.804688 C 47.734375 296.972656 47.105469 292.480469 47.285156 287.328125 C 47.617188 277.625 49.351562 270.71875 52.496094 266.613281 C 53.605469 265.179688 54.890625 264.097656 56.359375 263.378906 C 56.898438 263.109375 57.46875 262.886719 58.070312 262.707031 C 58.308594 262.644531 58.5625 262.589844 58.828125 262.527344 L 59.144531 262.4375 L 59.460938 262.390625 C 59.941406 262.304688 60.269531 262.226562 60.449219 262.167969 L 60.851562 261.988281 L 60.941406 261.585938 C 61.003906 261.101562 61.050781 259.90625 61.074219 257.988281 C 61.105469 257.242188 61.121094 256.414062 61.121094 255.519531 C 61.121094 254.863281 61.121094 254.167969 61.121094 253.449219 C 63.492188 253.363281 65.792969 253.84375 68.039062 254.890625 C 68.851562 255.277344 69.628906 255.726562 70.378906 256.238281 C 70.917969 256.597656 71.398438 256.96875 71.816406 257.363281 C 72.957031 255.117188 74.09375 253.109375 75.226562 251.339844 C 75.082031 251.28125 74.855469 251.164062 74.554688 250.980469 L 74.195312 250.753906 L 73.746094 250.484375 C 72.941406 250.035156 72.207031 249.632812 71.546875 249.273438 C 69.453125 248.222656 67.382812 247.472656 65.34375 247.027344 C 59.207031 245.710938 53.183594 247.085938 47.285156 251.164062 C 42.613281 254.367188 38.984375 259.875 36.414062 267.695312 C 34.042969 274.792969 32.894531 282.519531 32.953125 290.875 C 33.015625 297.050781 34.242188 302.949219 36.636719 308.578125 C 39.453125 315.140625 43.238281 319.585938 48.003906 321.921875 C 51.957031 323.867188 56.585938 324.785156 61.886719 324.660156 C 68.386719 324.484375 73.265625 322.476562 76.53125 318.640625 C 74.824219 317.054688 73.328125 315.410156 72.039062 313.699219 Z M 72.039062 313.699219 " fill-opacity="1" fill-rule="nonzero"/></g><path fill="#ffffff" d="M 95.765625 318.105469 C 95.613281 318.074219 95.386719 318.042969 95.085938 318.011719 L 94.28125 317.96875 C 92.839844 317.851562 91.71875 317.757812 90.910156 317.695312 L 91 314.460938 L 91.132812 311.1875 L 91.3125 304.53125 C 91.464844 299.351562 91.582031 294.933594 91.671875 291.28125 C 91.882812 281.277344 91.929688 273.113281 91.804688 266.796875 C 92.5 266.765625 93.394531 266.691406 94.507812 266.570312 L 95.765625 266.480469 C 96.183594 266.453125 96.523438 266.421875 96.792969 266.390625 C 96.792969 269.476562 96.660156 278.070312 96.390625 292.179688 C 96.121094 305.597656 95.910156 314.238281 95.765625 318.105469 Z M 98.144531 265 L 97.601562 264.90625 C 97.214844 264.878906 96.136719 264.9375 94.367188 265.085938 L 93.789062 265.179688 L 93.15625 265.222656 C 92.617188 265.253906 92.152344 265.285156 91.765625 265.316406 C 91.703125 263.277344 91.628906 261.839844 91.539062 261 C 90.429688 260.851562 88.707031 260.863281 86.371094 261.046875 L 84.933594 261.179688 L 83.589844 261.316406 C 82.601562 261.371094 81.804688 261.417969 81.203125 261.449219 C 82.585938 300.65625 83.273438 322.609375 83.273438 327.316406 C 83.78125 327.371094 84.394531 327.417969 85.113281 327.449219 L 86.957031 327.539062 C 88.574219 327.597656 89.757812 327.6875 90.507812 327.808594 C 90.59375 327.300781 90.714844 324.421875 90.863281 319.179688 C 91.34375 319.210938 91.929688 319.257812 92.617188 319.316406 L 93.425781 319.402344 L 94.144531 319.449219 C 95.464844 319.570312 96.226562 319.632812 96.4375 319.632812 L 96.523438 319.585938 L 97.15625 319.585938 L 97.199219 318.957031 C 97.230469 318.839844 97.304688 316.035156 97.425781 310.554688 C 97.574219 304.6875 97.726562 298.664062 97.875 292.496094 C 98.234375 275.03125 98.351562 266.035156 98.234375 265.492188 Z M 91.132812 255.96875 L 91.132812 244.285156 L 80.394531 244.285156 L 81.203125 255.96875 Z M 91.132812 255.96875 " fill-opacity="1" fill-rule="nonzero"/><path fill="#ffffff" d="M 131.660156 295.367188 C 130.757812 293.601562 128.511719 287.984375 124.921875 278.519531 C 124.261719 276.8125 123.5 274.820312 122.628906 272.542969 L 121.507812 269.539062 L 120.382812 266.570312 C 118.582031 261.75 117.285156 258.273438 116.472656 256.152344 C 116.566406 256.121094 116.90625 255.996094 117.507812 255.789062 C 117.808594 255.695312 118.078125 255.609375 118.316406 255.519531 L 119.167969 255.203125 C 120.695312 254.695312 121.609375 254.414062 121.910156 254.351562 C 122.328125 255.640625 124.050781 260.398438 127.074219 268.636719 L 127.613281 270.121094 L 128.15625 271.648438 L 129.320312 274.703125 C 130.164062 277.007812 130.851562 278.941406 131.390625 280.496094 C 131.597656 290.140625 131.691406 295.097656 131.660156 295.367188 Z M 117.777344 293.753906 L 117.824219 295.683594 L 117.957031 299.589844 C 118.046875 302.585938 118.105469 305.148438 118.132812 307.273438 C 118.289062 312.878906 118.332031 316.351562 118.273438 317.695312 C 117.554688 317.789062 116.667969 317.820312 115.617188 317.789062 C 114.511719 317.789062 113.640625 317.710938 113.015625 317.566406 C 113.074219 311.90625 113.042969 302.539062 112.921875 289.484375 C 112.890625 284.511719 112.851562 279.933594 112.789062 275.738281 C 112.730469 271.78125 112.683594 269.371094 112.652344 268.503906 C 113.074219 269.703125 114.660156 274.265625 117.414062 282.203125 C 117.476562 284.15625 117.585938 287.390625 117.730469 291.910156 Z M 137.945312 249.1875 C 136.839844 249.0625 134.742188 249.257812 131.660156 249.765625 C 131.359375 250.007812 131.195312 252.914062 131.167969 258.484375 C 131.136719 262.617188 131.179688 268.429688 131.296875 275.917969 C 130.671875 274.117188 129.730469 271.515625 128.472656 268.097656 C 126.789062 263.605469 124.90625 258.390625 122.804688 252.460938 C 118.734375 253.8125 116.441406 254.578125 115.933594 254.753906 C 114.613281 251.433594 113.878906 249.695312 113.734375 249.542969 C 112.953125 248.917969 109.539062 249.257812 103.488281 250.578125 C 103.488281 251.566406 103.578125 255.851562 103.757812 263.425781 C 103.878906 268.042969 104.089844 276.082031 104.390625 287.554688 C 104.984375 310.222656 105.269531 321.832031 105.238281 322.367188 C 105.664062 322.523438 106.890625 322.582031 108.921875 322.550781 C 110.753906 322.523438 112.070312 322.445312 112.882812 322.328125 C 112.9375 321.875 112.984375 320.785156 113.015625 319.046875 C 113.792969 319.195312 114.75 319.269531 115.886719 319.269531 C 116.582031 319.269531 117.269531 319.257812 117.957031 319.226562 C 118.527344 319.164062 118.914062 319.109375 119.121094 319.046875 L 119.617188 318.957031 L 119.707031 318.460938 C 119.886719 317.324219 119.722656 308.460938 119.214844 291.863281 C 119.121094 289.800781 119.066406 288.132812 119.035156 286.878906 C 122.929688 298.109375 127.421875 311.109375 132.511719 325.875 C 133.171875 325.996094 134.355469 326.042969 136.0625 326.011719 C 137.828125 325.980469 138.894531 325.890625 139.25 325.742188 C 139.550781 323.585938 139.476562 310.792969 139.027344 287.375 C 138.609375 264.398438 138.246094 251.671875 137.945312 249.1875 Z M 137.945312 249.1875 " fill-opacity="1" fill-rule="nonzero"/><path fill="#ffffff" d="M 159.875 264.097656 C 159.996094 267.546875 160.066406 270.644531 160.097656 273.402344 C 158.507812 273.429688 157.101562 273.460938 155.875 273.492188 C 155.515625 262.886719 155.1875 256.058594 154.886719 253.003906 C 155.574219 252.941406 157.148438 252.925781 159.605469 252.957031 C 159.605469 255.652344 159.695312 259.371094 159.875 264.097656 Z M 171.195312 279.644531 C 171.285156 279.136719 171.332031 278.355469 171.332031 277.308594 L 172.453125 277.308594 C 172.875 277.277344 173.246094 277.277344 173.578125 277.308594 C 173.609375 277.96875 173.59375 278.984375 173.53125 280.363281 C 173.5 281.351562 173.457031 282.433594 173.394531 283.597656 C 173.007812 283.597656 172.621094 283.597656 172.226562 283.597656 C 171.71875 283.597656 171.207031 283.597656 170.699219 283.597656 C 169.386719 283.628906 168.171875 283.660156 167.0625 283.6875 C 163.949219 283.746094 161.996094 283.824219 161.222656 283.914062 L 160.636719 284.003906 L 160.546875 284.589844 C 160.546875 284.617188 160.546875 285.019531 160.546875 285.800781 C 160.546875 286.640625 160.546875 287.671875 160.546875 288.898438 C 160.578125 292.132812 160.609375 295.367188 160.636719 298.601562 C 160.753906 308.367188 160.953125 314.671875 161.222656 317.519531 C 160.382812 317.519531 159.488281 317.550781 158.523438 317.609375 L 157.988281 317.652344 L 157.535156 317.652344 C 157.238281 317.683594 157.027344 317.695312 156.910156 317.695312 C 155.980469 294.425781 155.558594 281.964844 155.648438 280.320312 C 156.667969 280.171875 159.273438 280.046875 163.464844 279.957031 L 165.804688 279.917969 C 166.675781 279.886719 167.410156 279.871094 168.003906 279.871094 C 169.5 279.808594 170.566406 279.734375 171.195312 279.644531 Z M 175.640625 253.140625 C 175.703125 252.746094 175.65625 251.699219 175.507812 249.992188 L 175.460938 249.003906 L 175.371094 248.058594 C 175.316406 247.433594 175.300781 246.980469 175.332031 246.714844 C 172.929688 246.382812 167.664062 246.175781 159.511719 246.082031 C 151.125 245.964844 146.832031 246.097656 146.617188 246.484375 C 148.175781 296.808594 148.941406 322.910156 148.910156 324.800781 C 150.679688 325.070312 155.125 325.15625 162.253906 325.070312 C 164.652344 325.039062 167.078125 324.992188 169.53125 324.929688 C 170.460938 324.902344 171.253906 324.871094 171.910156 324.839844 C 172.511719 324.839844 172.859375 324.828125 172.945312 324.800781 C 173.039062 324.167969 173.023438 323.015625 172.898438 321.339844 C 172.8125 319.960938 172.707031 318.777344 172.589844 317.789062 C 169.863281 317.488281 166.519531 317.386719 162.570312 317.472656 C 162.453125 315.226562 162.3125 309.789062 162.164062 301.164062 C 162.042969 292.957031 161.996094 287.683594 162.027344 285.351562 C 163.285156 285.261719 165.65625 285.183594 169.128906 285.128906 C 169.726562 285.128906 170.359375 285.113281 171.015625 285.082031 C 171.523438 285.082031 172.050781 285.082031 172.589844 285.082031 L 173.167969 285.082031 C 173.355469 285.082031 173.515625 285.066406 173.664062 285.035156 L 174.789062 285.035156 L 174.835938 284.363281 C 174.867188 283.941406 174.890625 281.160156 174.921875 276.003906 C 173.183594 275.855469 171.972656 275.792969 171.285156 275.824219 C 171.253906 274.988281 171.222656 274.242188 171.195312 273.578125 C 170.628906 273.460938 169.355469 273.386719 167.378906 273.355469 C 165.820312 273.324219 163.886719 273.324219 161.578125 273.355469 C 161.550781 270.75 161.476562 267.648438 161.355469 264.058594 C 161.179688 259.410156 161.085938 255.710938 161.085938 252.957031 C 162.28125 252.957031 163.8125 252.988281 165.671875 253.046875 L 167.957031 253.09375 C 168.945312 253.09375 169.679688 253.109375 170.160156 253.140625 C 173.394531 253.195312 175.222656 253.195312 175.640625 253.140625 Z M 175.640625 253.140625 " fill-opacity="1" fill-rule="nonzero"/><path fill="#ffffff" d="M 209.203125 295.367188 C 208.308594 293.601562 206.058594 287.984375 202.464844 278.519531 C 201.804688 276.8125 201.042969 274.820312 200.171875 272.542969 L 199.050781 269.539062 L 197.929688 266.570312 C 196.128906 261.75 194.828125 258.273438 194.015625 256.152344 C 194.109375 256.121094 194.457031 255.996094 195.050781 255.789062 C 195.351562 255.695312 195.621094 255.609375 195.859375 255.519531 L 196.710938 255.203125 C 198.242188 254.695312 199.15625 254.414062 199.453125 254.351562 C 199.875 255.640625 201.597656 260.398438 204.625 268.636719 L 205.15625 270.121094 L 205.699219 271.648438 L 206.863281 274.703125 C 207.707031 277.007812 208.394531 278.941406 208.933594 280.496094 C 209.140625 290.140625 209.234375 295.097656 209.203125 295.367188 Z M 195.320312 293.753906 L 195.367188 295.683594 L 195.5 299.589844 C 195.589844 302.585938 195.652344 305.148438 195.683594 307.273438 C 195.832031 312.878906 195.875 316.351562 195.816406 317.695312 C 195.097656 317.789062 194.214844 317.820312 193.167969 317.789062 C 192.054688 317.789062 191.1875 317.710938 190.558594 317.566406 C 190.617188 311.90625 190.589844 302.539062 190.472656 289.484375 C 190.441406 284.511719 190.394531 279.933594 190.332031 275.738281 C 190.273438 271.78125 190.230469 269.371094 190.203125 268.503906 C 190.617188 269.703125 192.207031 274.265625 194.964844 282.203125 C 195.019531 284.15625 195.128906 287.390625 195.273438 291.910156 Z M 215.496094 249.1875 C 214.386719 249.0625 212.289062 249.257812 209.203125 249.765625 C 208.902344 250.007812 208.738281 252.914062 208.710938 258.484375 C 208.679688 262.617188 208.722656 268.429688 208.847656 275.917969 C 208.214844 274.117188 207.273438 271.515625 206.015625 268.097656 C 204.339844 263.605469 202.449219 258.390625 200.355469 252.460938 C 196.277344 253.8125 193.988281 254.578125 193.476562 254.753906 C 192.164062 251.433594 191.429688 249.695312 191.277344 249.542969 C 190.496094 248.917969 187.082031 249.257812 181.035156 250.578125 C 181.035156 251.566406 181.125 255.851562 181.304688 263.425781 C 181.421875 268.042969 181.632812 276.082031 181.933594 287.554688 C 182.535156 310.222656 182.8125 321.832031 182.789062 322.367188 C 183.207031 322.523438 184.433594 322.582031 186.472656 322.550781 C 188.296875 322.523438 189.617188 322.445312 190.425781 322.328125 C 190.484375 321.875 190.527344 320.785156 190.558594 319.046875 C 191.335938 319.195312 192.292969 319.269531 193.4375 319.269531 C 194.125 319.269531 194.8125 319.257812 195.5 319.226562 C 196.070312 319.164062 196.457031 319.109375 196.671875 319.046875 L 197.164062 318.957031 L 197.25 318.460938 C 197.4375 317.324219 197.265625 308.460938 196.757812 291.863281 C 196.671875 289.800781 196.609375 288.132812 196.578125 286.878906 C 200.472656 298.109375 204.964844 311.109375 210.058594 325.875 C 210.71875 325.996094 211.898438 326.042969 213.605469 326.011719 C 215.371094 325.980469 216.4375 325.890625 216.792969 325.742188 C 217.09375 323.585938 217.023438 310.792969 216.570312 287.375 C 216.152344 264.398438 215.789062 251.671875 215.496094 249.1875 Z M 215.496094 249.1875 " fill-opacity="1" fill-rule="nonzero"/><g clip-path="url(#366076fc6a)"><path fill="#ffffff" d="M 263.652344 284.179688 C 263.476562 281.484375 263.160156 278.984375 262.710938 276.679688 C 262.59375 276.050781 262.425781 275.316406 262.21875 274.480469 C 262.070312 274.242188 261.351562 273.445312 260.0625 272.097656 C 259.582031 271.585938 258.96875 270.960938 258.21875 270.210938 C 257.769531 269.730469 257.097656 269.039062 256.199219 268.144531 C 251.074219 262.902344 248.109375 259.710938 247.300781 258.574219 C 245.832031 259.171875 244.457031 260.234375 243.167969 261.765625 C 244.757812 263.085938 248.082031 266.542969 253.144531 272.140625 C 255 274.242188 256.988281 276.484375 259.121094 278.882812 C 260.828125 280.859375 262.339844 282.625 263.652344 284.179688 Z M 257.277344 267.109375 C 259.105469 268.96875 260.449219 270.34375 261.320312 271.246094 C 260.121094 267.53125 258.695312 264.535156 257.050781 262.257812 C 254.957031 259.441406 252.679688 258.035156 250.222656 258.035156 C 249.832031 258.035156 249.367188 258.082031 248.828125 258.167969 C 249.492188 258.949219 250.71875 260.296875 252.511719 262.210938 C 253.203125 262.929688 254.007812 263.773438 254.941406 264.730469 L 256.15625 265.941406 L 256.734375 266.527344 Z M 254.851562 299.097656 L 253.636719 297.839844 C 252.710938 296.851562 251.855469 295.953125 251.074219 295.144531 C 249.097656 293.050781 247.332031 291.175781 245.777344 289.53125 C 241.730469 285.183594 238.765625 281.878906 236.878906 279.601562 C 236.550781 282.65625 236.445312 285.816406 236.566406 289.082031 C 237.609375 289.949219 240.054688 292.300781 243.886719 296.132812 C 246.527344 298.769531 250.339844 302.648438 255.34375 307.769531 C 257.019531 309.503906 258.21875 310.734375 258.9375 311.453125 C 259.929688 309.957031 260.78125 308.160156 261.5 306.0625 C 260.84375 305.34375 259.011719 303.425781 256.015625 300.308594 Z M 263.652344 295.058594 C 263.867188 292.300781 263.910156 289.4375 263.792969 286.472656 C 262.894531 285.246094 259.492188 281.367188 253.59375 274.835938 C 247.453125 268.011719 243.691406 264.011719 242.316406 262.839844 C 241.207031 264.429688 240.234375 266.34375 239.394531 268.589844 C 240.804688 269.972656 244.695312 274.164062 251.074219 281.175781 C 253.382812 283.6875 255.839844 286.398438 258.441406 289.304688 C 260.539062 291.582031 262.277344 293.5 263.652344 295.058594 Z M 254.265625 308.800781 C 253.847656 308.382812 253.515625 308.039062 253.277344 307.769531 C 252.886719 307.378906 252.527344 307.019531 252.199219 306.691406 C 251.359375 305.820312 250.582031 305.027344 249.863281 304.308594 C 248.007812 302.394531 246.34375 300.703125 244.875 299.234375 C 240.984375 295.28125 238.257812 292.585938 236.699219 291.144531 C 236.9375 294.679688 237.433594 298.023438 238.179688 301.164062 C 238.75 301.582031 239.84375 302.378906 241.460938 303.542969 C 243.230469 304.894531 245.011719 306.238281 246.804688 307.589844 C 251.691406 311.335938 254.703125 313.742188 255.839844 314.824219 L 255.929688 314.777344 C 256.589844 314.238281 257.289062 313.519531 258.039062 312.621094 C 257.652344 312.230469 256.394531 310.957031 254.265625 308.800781 Z M 238.851562 270.121094 C 238.136719 272.367188 237.570312 274.835938 237.148438 277.53125 C 238.796875 279.660156 241.777344 283.042969 246.085938 287.683594 C 247.738281 289.453125 249.636719 291.460938 251.792969 293.707031 C 252.605469 294.578125 253.515625 295.535156 254.535156 296.582031 L 255.839844 297.976562 C 256.167969 298.300781 256.589844 298.742188 257.097656 299.28125 C 259.613281 301.882812 261.242188 303.589844 261.992188 304.402344 C 262.65625 302.152344 263.132812 299.699219 263.429688 297.035156 C 261.515625 294.875 257.558594 290.503906 251.570312 283.914062 C 244.890625 276.574219 240.652344 271.980469 238.851562 270.121094 Z M 256.871094 315.945312 C 256.183594 316.453125 255.34375 316.890625 254.355469 317.25 C 253.191406 317.667969 251.992188 317.878906 250.757812 317.878906 C 249.652344 317.878906 248.558594 317.683594 247.484375 317.292969 C 246.132812 316.847656 244.859375 316.097656 243.664062 315.046875 C 240.605469 312.382812 238.316406 307.964844 236.789062 301.792969 C 234.960938 294.332031 234.496094 286.742188 235.394531 279.015625 C 236.328125 271.285156 238.390625 265.371094 241.59375 261.269531 C 244.082031 258.128906 246.972656 256.554688 250.265625 256.554688 C 254.402344 256.554688 257.890625 259.609375 260.734375 265.71875 C 261.691406 267.726562 262.515625 269.972656 263.207031 272.457031 C 263.445312 273.292969 263.667969 274.132812 263.882812 274.976562 C 263.9375 275.269531 264 275.554688 264.0625 275.824219 L 264.152344 276.1875 L 264.195312 276.410156 C 264.765625 279.375 265.125 282.597656 265.273438 286.070312 L 265.273438 286.117188 C 265.574219 292.433594 265.125 298.09375 263.925781 303.097656 C 262.515625 309.085938 260.167969 313.371094 256.871094 315.945312 Z M 233.148438 319.988281 C 229.226562 315.558594 226.546875 309.613281 225.109375 302.152344 C 224 296.492188 223.640625 290.140625 224.027344 283.105469 C 224.359375 277.023438 225.171875 271.152344 226.453125 265.492188 C 226.964844 263.339844 227.488281 261.433594 228.027344 259.789062 C 228.535156 258.320312 228.941406 257.347656 229.238281 256.867188 C 229.902344 257.164062 230.589844 257.480469 231.308594 257.8125 C 232.175781 258.230469 232.96875 258.621094 233.6875 258.976562 C 230.90625 264.21875 229.121094 270.675781 228.34375 278.34375 C 227.710938 284.480469 227.773438 290.90625 228.523438 297.613281 C 229.425781 306.183594 231.894531 312.878906 235.933594 317.695312 L 235.578125 318.011719 L 235.214844 318.328125 L 234.453125 319 C 233.855469 319.480469 233.417969 319.8125 233.148438 319.988281 Z M 268.417969 263.917969 C 267.011719 260.027344 265.09375 256.683594 262.664062 253.902344 C 260.332031 251.179688 257.738281 249.242188 254.894531 248.105469 C 252.019531 246.941406 249.160156 246.683594 246.3125 247.34375 C 243.292969 248.058594 240.550781 249.78125 238.09375 252.507812 C 236.773438 253.976562 235.546875 255.695312 234.40625 257.671875 C 233.417969 257.164062 232.3125 256.640625 231.085938 256.105469 C 230.667969 255.894531 230.257812 255.710938 229.871094 255.566406 C 229.570312 255.410156 229.378906 255.324219 229.285156 255.292969 C 228.957031 255.234375 228.644531 255.371094 228.34375 255.695312 C 228.222656 255.789062 228.117188 255.921875 228.027344 256.105469 L 227.894531 256.28125 L 227.804688 256.460938 C 226.90625 258.113281 225.933594 261.316406 224.882812 266.074219 C 223.59375 271.917969 222.800781 277.785156 222.5 283.6875 C 221.632812 300.671875 224.929688 313.21875 232.390625 321.339844 L 232.613281 321.5625 L 232.921875 321.5625 C 233.492188 321.5625 234.828125 320.648438 236.921875 318.824219 C 239.917969 321.964844 243.5 323.839844 247.664062 324.4375 C 253.203125 325.214844 257.964844 323.988281 261.945312 320.753906 C 265.660156 317.695312 268.332031 313.179688 269.945312 307.1875 C 273.988281 292.355469 273.480469 277.941406 268.417969 263.917969 Z M 238.8125 303.414062 C 241.355469 312.066406 245.339844 316.398438 250.757812 316.398438 C 252.019531 316.398438 253.261719 316.113281 254.488281 315.542969 C 253.351562 314.585938 250.957031 312.695312 247.300781 309.882812 C 243.800781 307.15625 240.96875 304.996094 238.8125 303.414062 Z M 251.390625 234.316406 L 246 243.117188 L 249.816406 243.117188 L 257.320312 234.316406 Z M 251.390625 234.316406 " fill-opacity="1" fill-rule="nonzero"/></g><path fill="#ffffff" d="M 291.828125 318.105469 C 291.671875 318.074219 291.449219 318.042969 291.152344 318.011719 L 290.34375 317.96875 C 288.90625 317.851562 287.78125 317.757812 286.972656 317.695312 L 287.0625 314.460938 L 287.199219 311.1875 L 287.378906 304.53125 C 287.527344 299.351562 287.648438 294.933594 287.734375 291.28125 C 287.949219 281.277344 287.992188 273.113281 287.871094 266.796875 C 288.5625 266.765625 289.457031 266.691406 290.566406 266.570312 L 291.828125 266.480469 C 292.246094 266.453125 292.589844 266.421875 292.859375 266.390625 C 292.859375 269.476562 292.722656 278.070312 292.453125 292.179688 C 292.183594 305.597656 291.972656 314.238281 291.828125 318.105469 Z M 294.207031 265 L 293.664062 264.90625 C 293.277344 264.878906 292.199219 264.9375 290.4375 265.085938 L 289.851562 265.179688 L 289.21875 265.222656 C 288.683594 265.253906 288.214844 265.285156 287.828125 265.316406 C 287.765625 263.277344 287.695312 261.839844 287.601562 261 C 286.492188 260.851562 284.769531 260.863281 282.4375 261.046875 L 281 261.179688 L 279.652344 261.316406 C 278.660156 261.371094 277.867188 261.417969 277.269531 261.449219 C 278.648438 300.65625 279.335938 322.609375 279.335938 327.316406 C 279.84375 327.371094 280.460938 327.417969 281.179688 327.449219 L 283.015625 327.539062 C 284.636719 327.597656 285.820312 327.6875 286.570312 327.808594 C 286.660156 327.300781 286.777344 324.421875 286.929688 319.179688 C 287.410156 319.210938 287.992188 319.257812 288.683594 319.316406 L 289.488281 319.402344 L 290.207031 319.449219 C 291.523438 319.570312 292.289062 319.632812 292.5 319.632812 L 292.589844 319.585938 L 293.214844 319.585938 L 293.261719 318.957031 C 293.292969 318.839844 293.371094 316.035156 293.488281 310.554688 C 293.640625 304.6875 293.789062 298.664062 293.933594 292.496094 C 294.296875 275.03125 294.414062 266.035156 294.296875 265.492188 Z M 287.199219 255.96875 L 287.199219 244.285156 L 276.460938 244.285156 L 277.269531 255.96875 Z M 287.199219 255.96875 " fill-opacity="1" fill-rule="nonzero"/><g clip-path="url(#a0e3d80386)"><path fill="#ffffff" d="M 305.078125 314.777344 L 304.449219 314.644531 L 303.507812 314.507812 L 302.519531 314.328125 C 301.800781 314.152344 301.246094 313.96875 300.855469 313.789062 C 301.007812 313.402344 301.167969 312.949219 301.347656 312.441406 C 301.5625 311.78125 301.785156 311.09375 302.027344 310.375 C 302.683594 308.429688 303.355469 306.4375 304.046875 304.402344 C 306.054688 298.558594 307.957031 293.003906 309.753906 287.730469 C 315.175781 271.886719 318.933594 261.03125 321.027344 255.15625 C 324.980469 255.21875 327.125 255.292969 327.453125 255.386719 C 325.175781 260.207031 321.328125 270.148438 315.90625 285.214844 C 313.808594 291.027344 311.761719 296.835938 309.753906 302.648438 C 307.925781 307.953125 306.550781 312.023438 305.617188 314.871094 Z M 303.371094 245.769531 C 303.371094 246.007812 303.402344 246.59375 303.460938 247.519531 L 303.507812 248.152344 L 303.554688 248.824219 L 303.6875 250.261719 C 303.835938 252.808594 303.910156 254.398438 303.910156 255.023438 C 304.328125 255.085938 306.25 255.117188 309.664062 255.117188 C 310.320312 255.117188 311.097656 255.132812 312 255.15625 L 314.472656 255.15625 C 316.65625 255.15625 318.316406 255.15625 319.453125 255.15625 C 317.183594 261.511719 313.152344 273.144531 307.371094 290.070312 C 305.570312 295.335938 303.6875 300.863281 301.710938 306.648438 C 301.378906 307.636719 301.050781 308.625 300.722656 309.613281 C 300.449219 310.359375 300.195312 311.109375 299.957031 311.859375 C 299.863281 312.128906 299.777344 312.398438 299.6875 312.667969 L 299.554688 313.027344 L 299.464844 313.296875 C 299.34375 313.65625 299.285156 313.851562 299.285156 313.882812 L 299.105469 314.375 L 299.507812 314.6875 C 299.957031 315.046875 300.660156 315.363281 301.617188 315.632812 C 301.980469 315.71875 302.398438 315.8125 302.875 315.902344 L 304.226562 316.128906 L 305.167969 316.304688 C 304.960938 317.054688 304.839844 317.488281 304.8125 317.609375 L 305.390625 322.777344 C 307.128906 323.015625 318.425781 323.796875 339.273438 325.109375 C 339.597656 325.109375 339.804688 324.335938 339.898438 322.777344 C 339.929688 322.238281 339.960938 321.621094 339.988281 320.933594 C 339.988281 320.367188 339.976562 319.871094 339.945312 319.449219 C 338.054688 319.417969 333.832031 319.0625 327.273438 318.375 C 324.820312 318.105469 322.332031 317.835938 319.816406 317.566406 C 317.570312 317.292969 315.894531 317.085938 314.78125 316.933594 C 315.019531 315.347656 323.992188 294.15625 341.695312 253.363281 C 341.90625 250.578125 341.980469 248.207031 341.921875 246.261719 Z M 303.371094 245.769531 " fill-opacity="1" fill-rule="nonzero"/></g></svg>