<?xml version="1.0" standalone="no"?>
<!DOCTYPE svg PUBLIC "-//W3C//DTD SVG 1.1//EN" "http://www.w3.org/Graphics/SVG/1.1/DTD/svg11.dtd">
<svg xmlns="http://www.w3.org/2000/svg" width="316" height="96" viewBox="0 0 316 96" fill="none">
<path d="M11.5753 76.2447C9.18986 71.0364 7.94507 65.6197 7.85653 59.9843C7.70028 47.3385 9.45028 37.5677 13.0909 30.6822C16.1847 24.8333 20.4711 21.2656 25.9503 19.9791C26.4138 19.8541 26.8565 19.7656 27.2836 19.7031C27.2836 21.2343 27.268 22.6406 27.2367 23.927C27.2367 25.427 27.2107 26.5 27.1482 27.1406L26.8253 27.1875L26.4555 27.2812L26.0909 27.375C25.7836 27.4322 25.4919 27.5104 25.2159 27.6041C24.544 27.7864 23.9034 28.0156 23.2888 28.2916C21.6326 29.0885 20.1951 30.2656 18.9711 31.8281C15.419 36.2656 13.4763 43.7083 13.1378 54.151C12.9555 59.6302 13.643 64.4531 15.2055 68.6197C16.3669 71.7708 18.0076 74.4375 20.1169 76.6093C22.6586 79.276 25.2472 80.7916 27.8826 81.1562C27.8826 81.4947 27.8826 81.9531 27.8826 82.5364L27.9294 83.3645V84.2343C27.9294 84.8802 27.9294 85.401 27.9294 85.7968C27.2836 85.7656 26.6899 85.7031 26.1378 85.6145C18.7888 84.4218 13.9347 81.2968 11.5753 76.2447ZM39.9607 81.1562C35.2159 83.9739 31.7263 85.4895 29.4919 85.7031C29.4607 85.276 29.4451 84.7708 29.4451 84.1875C29.4138 82.0781 29.3669 80.7916 29.3044 80.3333L29.2159 79.6875H28.5701C28.2315 79.6875 27.8357 79.625 27.3774 79.5052C26.794 79.3541 26.2107 79.1354 25.6326 78.8593C24.0701 78.0937 22.6013 76.9947 21.2211 75.5572C19.2315 73.5052 17.6847 70.9791 16.5805 67.9739C15.1117 64.0572 14.4711 59.4635 14.6534 54.1979C14.9919 44.276 16.768 37.2187 19.9815 33.0208C21.1169 31.552 22.4294 30.4479 23.9294 29.7135C24.4815 29.4375 25.0649 29.2083 25.6794 29.026C25.9242 28.9635 26.1847 28.9062 26.4555 28.8437L26.7784 28.75L27.1013 28.7031C27.5909 28.6145 27.9294 28.5364 28.1117 28.4739L28.5232 28.2916L28.6169 27.8802C28.6794 27.3854 28.7263 26.1614 28.7524 24.2031C28.7836 23.4375 28.7992 22.5937 28.7992 21.677C28.7992 21.0052 28.7992 20.2968 28.7992 19.5625C31.2211 19.4739 33.5753 19.9635 35.8722 21.0364C36.7003 21.4322 37.4972 21.8906 38.2628 22.4114C38.8149 22.7812 39.3044 23.1614 39.7315 23.5625C40.8982 21.2656 42.0597 19.2135 43.2211 17.4062C43.0701 17.3437 42.8409 17.2239 42.5336 17.0364L42.1638 16.8072L41.7055 16.5312C40.8826 16.0729 40.1326 15.6614 39.4555 15.2916C37.3149 14.2187 35.2003 13.4531 33.1169 12.9947C26.8409 11.651 20.6847 13.0572 14.6534 17.2239C9.87736 20.5 6.16903 26.1302 3.53882 34.125C1.11695 41.3802 -0.0601366 49.2812 0.00236336 57.8229C0.0648634 64.1354 1.32007 70.1666 3.76799 75.9218C6.6482 82.6302 10.518 87.177 15.3878 89.5625C19.4294 91.552 24.1638 92.4895 29.5805 92.3645C36.2263 92.1822 41.2159 90.1302 44.5544 86.2083C42.8097 84.5885 41.2784 82.9062 39.9607 81.1562Z" fill="white"/>
<path d="M64.2159 85.6615C64.0597 85.6303 63.8305 85.599 63.5232 85.5678L62.7003 85.5209C61.2263 85.4011 60.0805 85.3073 59.2524 85.2448L59.3461 81.9375L59.4815 78.5886L59.6638 71.7865C59.8201 66.4896 59.9399 61.974 60.0336 58.2396C60.2472 48.0105 60.294 39.6667 60.169 33.2084C60.8774 33.1771 61.794 33.099 62.9295 32.974L64.2159 32.8855C64.643 32.8542 64.992 32.823 65.268 32.7917C65.268 35.948 65.1326 44.7344 64.8565 59.1563C64.5805 72.875 64.367 81.7084 64.2159 85.6615ZM66.6482 31.3698L66.0961 31.2761C65.7003 31.2448 64.5961 31.3073 62.7888 31.4584L62.1951 31.5521L61.5493 31.599C60.9972 31.6303 60.5232 31.6615 60.1274 31.6927C60.0649 29.6094 59.9868 28.1407 59.8982 27.2813C58.7628 27.1302 57.0024 27.1407 54.6118 27.3282L53.143 27.4636L51.768 27.6042C50.7576 27.6615 49.9451 27.7084 49.3305 27.7396C50.742 67.823 51.4451 90.2657 51.4451 95.0782C51.9659 95.1355 52.5909 95.1823 53.3253 95.2136L55.2107 95.3073C56.867 95.3646 58.0753 95.4584 58.8409 95.5834C58.9295 95.0625 59.0545 92.1198 59.2055 86.7605C59.6951 86.7917 60.294 86.8386 60.9972 86.9011L61.8253 86.9896L62.5597 87.0365C63.9086 87.1615 64.6899 87.224 64.9034 87.224L64.992 87.1771H65.6378L65.6847 86.5313C65.7159 86.4115 65.7888 83.5469 65.9138 77.9428C66.0649 71.9428 66.2211 65.7865 66.3722 59.4792C66.742 41.625 66.8618 32.4271 66.742 31.875L66.6482 31.3698ZM59.4815 22.1355V10.1927H48.5024L49.3305 22.1355H59.4815Z" fill="white"/>
<path d="M100.914 62.4167C99.992 60.6094 97.6951 54.8698 94.0232 45.1927C93.3513 43.448 92.5701 41.4115 91.6795 39.0834L90.5336 36.0105L89.3826 32.974C87.544 28.0469 86.2159 24.4948 85.3878 22.323C85.4815 22.2917 85.8305 22.1667 86.4451 21.9532C86.7524 21.8594 87.0284 21.7709 87.2732 21.6771L88.143 21.3542C89.7055 20.8334 90.6378 20.5469 90.9451 20.4844C91.3722 21.8021 93.1326 26.6667 96.2263 35.0886L96.7784 36.6042L97.3305 38.1667L98.5232 41.2917C99.3826 43.6459 100.086 45.625 100.638 47.2136C100.851 57.073 100.945 62.1407 100.914 62.4167ZM86.7211 60.7657L86.768 62.7396L86.9034 66.7344C86.9972 69.7969 87.0545 72.4167 87.0857 74.5886C87.242 80.3177 87.2888 83.8698 87.2263 85.2448C86.492 85.3386 85.5857 85.3698 84.5128 85.3386C83.3826 85.3386 82.492 85.2605 81.8513 85.1094C81.9138 79.323 81.8826 69.75 81.7576 56.4011C81.7263 51.3177 81.6847 46.6355 81.6222 42.349C81.5597 38.3021 81.5128 35.8386 81.4815 34.9532C81.9138 36.1771 83.5336 40.8438 86.3513 48.9584C86.4138 50.9532 86.5232 54.2605 86.6743 58.8802L86.7211 60.7657ZM107.341 15.2032C106.211 15.0782 104.065 15.2761 100.914 15.7969C100.607 16.0417 100.44 19.0157 100.409 24.7084C100.377 28.9323 100.424 34.875 100.544 42.5313C99.9034 40.6927 98.9399 38.0313 97.6534 34.5365C95.9347 29.9427 94.0076 24.6146 91.8618 18.5521C87.7003 19.9323 85.3565 20.7136 84.8357 20.8959C83.4868 17.5 82.7368 15.724 82.5857 15.5677C81.7888 14.9271 78.2993 15.2761 72.1118 16.625C72.1118 17.6355 72.2055 22.0157 72.3878 29.7605C72.5128 34.4792 72.7263 42.698 73.0336 54.4271C73.643 77.6042 73.9347 89.474 73.9034 90.0209C74.3357 90.1771 75.5909 90.2396 77.669 90.2084C79.5388 90.1771 80.8878 90.099 81.7159 89.9792C81.7732 89.5157 81.8201 88.4011 81.8513 86.625C82.6482 86.7761 83.6274 86.8542 84.7888 86.8542C85.4972 86.8542 86.2003 86.8386 86.9034 86.8073C87.4868 86.7448 87.8826 86.6875 88.0961 86.625L88.6013 86.5313L88.6951 86.0261C88.8774 84.8646 88.7107 75.8021 88.1899 58.8334C88.0961 56.724 88.0388 55.0209 88.0076 53.7396C91.9868 65.2188 96.5805 78.5105 101.784 93.6042C102.461 93.7292 103.669 93.7761 105.414 93.7448C107.221 93.7136 108.31 93.6198 108.674 93.4688C108.982 91.2657 108.903 78.1875 108.445 54.2448C108.018 30.7552 107.648 17.7448 107.341 15.2032Z" fill="white"/>
<path d="M129.758 30.4479C129.883 33.9739 129.956 37.1406 129.987 39.9583C128.362 39.9896 126.924 40.0208 125.669 40.0521C125.304 29.2083 124.966 22.2292 124.659 19.1042C125.362 19.0417 126.971 19.026 129.482 19.0573C129.482 21.8125 129.575 25.6146 129.758 30.4479ZM141.331 46.3437C141.424 45.8229 141.471 45.026 141.471 43.9531H142.617C143.049 43.9219 143.429 43.9219 143.768 43.9531C143.799 44.6302 143.784 45.6667 143.721 47.0781C143.69 48.0885 143.643 49.1927 143.581 50.3854C143.185 50.3854 142.789 50.3854 142.388 50.3854C141.867 50.3854 141.346 50.3854 140.825 50.3854C139.482 50.4167 138.242 50.4479 137.107 50.4739C133.924 50.5364 131.929 50.6146 131.138 50.7083L130.539 50.7969L130.445 51.3958C130.445 51.4271 130.445 51.8385 130.445 52.6354C130.445 53.4948 130.445 54.5469 130.445 55.8021C130.476 59.1094 130.508 62.4167 130.539 65.7239C130.659 75.7083 130.862 82.151 131.138 85.0625C130.278 85.0625 129.362 85.0937 128.377 85.1562L127.831 85.1979H127.367C127.065 85.2292 126.846 85.2448 126.726 85.2448C125.778 61.4531 125.346 48.7135 125.44 47.0312C126.482 46.8802 129.143 46.7552 133.429 46.6614L135.82 46.6198C136.711 46.5885 137.461 46.5729 138.07 46.5729C139.601 46.5104 140.69 46.4323 141.331 46.3437ZM145.877 19.2448C145.94 18.8437 145.893 17.7708 145.742 16.026L145.695 15.0156L145.601 14.0521C145.544 13.4114 145.528 12.9479 145.56 12.6771C143.107 12.3385 137.721 12.125 129.388 12.0312C120.815 11.9114 116.424 12.0469 116.206 12.4427C117.799 63.8906 118.581 90.5729 118.549 92.5052C120.357 92.7812 124.903 92.8698 132.19 92.7812C134.643 92.75 137.122 92.7031 139.633 92.6406C140.581 92.6094 141.393 92.5781 142.065 92.5469C142.679 92.5469 143.034 92.5364 143.122 92.5052C143.216 91.8594 143.2 90.6823 143.075 88.9687C142.987 87.5573 142.877 86.3489 142.758 85.3385C139.971 85.0312 136.554 84.9271 132.513 85.0156C132.393 82.7187 132.252 77.1614 132.101 68.3437C131.976 59.9531 131.929 54.5625 131.961 52.1771C133.247 52.0833 135.669 52.0052 139.221 51.9479C139.831 51.9479 140.476 51.9323 141.148 51.901C141.669 51.901 142.206 51.901 142.758 51.901H143.351C143.539 51.901 143.706 51.8854 143.857 51.8542H145.008L145.054 51.1667C145.086 50.7344 145.112 47.8906 145.143 42.6198C143.367 42.4687 142.127 42.4062 141.424 42.4375C141.393 41.5833 141.362 40.8177 141.331 40.1406C140.752 40.0208 139.45 39.9427 137.429 39.9114C135.836 39.8802 133.862 39.8802 131.502 39.9114C131.471 37.25 131.398 34.0781 131.273 30.4062C131.091 25.6562 130.997 21.875 130.997 19.0573C132.221 19.0573 133.784 19.0885 135.685 19.151L138.023 19.1979C139.034 19.1979 139.784 19.2135 140.273 19.2448C143.581 19.3021 145.45 19.3021 145.877 19.2448Z" fill="white"/>
<path d="M180.19 62.4167C179.273 60.6094 176.976 54.8698 173.299 45.1927C172.627 43.448 171.846 41.4115 170.956 39.0834L169.81 36.0105L168.664 32.974C166.825 28.0469 165.492 24.4948 164.664 22.323C164.758 22.2917 165.112 22.1667 165.721 21.9532C166.028 21.8594 166.304 21.7709 166.549 21.6771L167.419 21.3542C168.982 20.8334 169.919 20.5469 170.221 20.4844C170.653 21.8021 172.414 26.6667 175.508 35.0886L176.054 36.6042L176.607 38.1667L177.799 41.2917C178.659 43.6459 179.362 45.625 179.914 47.2136C180.127 57.073 180.221 62.1407 180.19 62.4167ZM165.997 60.7657L166.044 62.7396L166.179 66.7344C166.273 69.7969 166.336 72.4167 166.367 74.5886C166.518 80.3177 166.565 83.8698 166.502 85.2448C165.768 85.3386 164.867 85.3698 163.794 85.3386C162.659 85.3386 161.773 85.2605 161.127 85.1094C161.19 79.323 161.159 69.75 161.039 56.4011C161.008 51.3177 160.961 46.6355 160.898 42.349C160.836 38.3021 160.794 35.8386 160.763 34.9532C161.19 36.1771 162.815 40.8438 165.633 48.9584C165.69 50.9532 165.799 54.2605 165.95 58.8802L165.997 60.7657ZM186.622 15.2032C185.487 15.0782 183.346 15.2761 180.19 15.7969C179.883 16.0417 179.716 19.0157 179.685 24.7084C179.653 28.9323 179.7 34.875 179.825 42.5313C179.179 40.6927 178.216 38.0313 176.929 34.5365C175.216 29.9427 173.284 24.6146 171.143 18.5521C166.976 19.9323 164.633 20.7136 164.112 20.8959C162.768 17.5 162.018 15.724 161.862 15.5677C161.065 14.9271 157.575 15.2761 151.393 16.625C151.393 17.6355 151.482 22.0157 151.669 29.7605C151.789 34.4792 152.002 42.698 152.31 54.4271C152.924 77.6042 153.211 89.474 153.185 90.0209C153.612 90.1771 154.867 90.2396 156.95 90.2084C158.815 90.1771 160.164 90.099 160.992 89.9792C161.054 89.5157 161.096 88.4011 161.127 86.625C161.924 86.7761 162.903 86.8542 164.07 86.8542C164.773 86.8542 165.476 86.8386 166.179 86.8073C166.763 86.7448 167.159 86.6875 167.377 86.625L167.883 86.5313L167.971 86.0261C168.159 84.8646 167.987 75.8021 167.466 58.8334C167.377 56.724 167.315 55.0209 167.284 53.7396C171.263 65.2188 175.857 78.5105 181.065 93.6042C181.737 93.7292 182.945 93.7761 184.69 93.7448C186.497 93.7136 187.586 93.6198 187.95 93.4688C188.258 91.2657 188.185 78.1875 187.721 54.2448C187.294 30.7552 186.924 17.7448 186.622 15.2032Z" fill="white"/>
<path d="M235.857 50.9792C235.674 48.224 235.351 45.6667 234.893 43.3125C234.773 42.6667 234.601 41.9167 234.388 41.0625C234.237 40.8177 233.502 40.0052 232.185 38.625C231.695 38.1042 231.065 37.4635 230.299 36.6979C229.841 36.2083 229.153 35.5 228.237 34.5833C222.997 29.224 219.966 25.9635 219.138 24.8021C217.638 25.4115 216.232 26.5 214.914 28.0625C216.539 29.4115 219.935 32.9479 225.112 38.6719C227.008 40.8177 229.044 43.1094 231.221 45.5625C232.966 47.5833 234.513 49.3906 235.857 50.9792ZM229.336 33.526C231.205 35.4271 232.58 36.8333 233.471 37.7552C232.247 33.9583 230.789 30.8958 229.107 28.5677C226.966 25.6875 224.638 24.25 222.127 24.25C221.726 24.25 221.252 24.2969 220.7 24.3854C221.377 25.1823 222.633 26.5625 224.466 28.5208C225.174 29.2552 225.997 30.1146 226.95 31.0938L228.19 32.3333L228.784 32.9323L229.336 33.526ZM226.857 66.2292L225.617 64.9427C224.669 63.9323 223.794 63.0156 222.997 62.1875C220.976 60.0469 219.169 58.1302 217.58 56.4479C213.445 52.0052 210.414 48.625 208.482 46.2969C208.148 49.4219 208.039 52.651 208.164 55.9896C209.232 56.875 211.732 59.2813 215.648 63.1979C218.346 65.8958 222.247 69.8594 227.362 75.0938C229.075 76.8698 230.299 78.125 231.034 78.8594C232.049 77.3333 232.919 75.4948 233.653 73.349C232.982 72.6146 231.112 70.6563 228.049 67.4688L226.857 66.2292ZM235.857 62.099C236.075 59.2813 236.117 56.3542 235.997 53.3229C235.08 52.0677 231.601 48.1042 225.57 41.4271C219.294 34.4479 215.45 30.3594 214.044 29.1615C212.909 30.7865 211.914 32.7448 211.054 35.0417C212.497 36.4531 216.476 40.7396 222.997 47.9063C225.357 50.474 227.867 53.2448 230.528 56.2188C232.674 58.5469 234.45 60.5052 235.857 62.099ZM226.258 76.151C225.83 75.724 225.492 75.3698 225.247 75.0938C224.851 74.6979 224.482 74.3281 224.148 73.9948C223.289 73.1042 222.492 72.2917 221.758 71.5573C219.862 69.599 218.159 67.8698 216.659 66.3698C212.679 62.3281 209.893 59.5729 208.299 58.099C208.544 61.7135 209.049 65.1302 209.815 68.3438C210.398 68.7708 211.513 69.5833 213.169 70.776C214.976 72.1563 216.799 73.5313 218.633 74.9115C223.627 78.7396 226.705 81.2031 227.867 82.3073L227.961 82.2604C228.633 81.7083 229.351 80.974 230.117 80.0573C229.721 79.6563 228.435 78.3542 226.258 76.151ZM210.502 36.6042C209.768 38.901 209.19 41.4271 208.758 44.1823C210.445 46.3594 213.492 49.8177 217.898 54.5625C219.586 56.3698 221.528 58.4219 223.732 60.7188C224.56 61.6094 225.492 62.5885 226.534 63.6563L227.867 65.0833C228.205 65.4167 228.633 65.8646 229.153 66.4167C231.726 69.0781 233.393 70.8229 234.159 71.651C234.836 69.3542 235.325 66.8438 235.627 64.1198C233.669 61.9115 229.627 57.4427 223.502 50.7083C216.674 43.2031 212.341 38.5052 210.502 36.6042ZM228.924 83.4531C228.221 83.974 227.362 84.4219 226.351 84.7865C225.159 85.2135 223.935 85.4323 222.674 85.4323C221.544 85.4323 220.424 85.2292 219.325 84.8333C217.945 84.375 216.643 83.6094 215.419 82.5365C212.294 79.8125 209.955 75.2969 208.393 68.9844C206.523 61.3594 206.049 53.599 206.966 45.6979C207.919 37.7969 210.028 31.75 213.304 27.5573C215.846 24.3438 218.804 22.7344 222.169 22.7344C226.398 22.7344 229.966 25.8594 232.872 32.1042C233.851 34.1563 234.695 36.4531 235.398 38.9948C235.643 39.849 235.872 40.7083 236.091 41.5677C236.148 41.8698 236.211 42.1615 236.273 42.4375L236.367 42.8073L236.409 43.0365C236.992 46.0677 237.362 49.3594 237.513 52.9115V52.9583C237.82 59.4167 237.362 65.2031 236.133 70.3177C234.695 76.4427 232.294 80.8229 228.924 83.4531ZM204.669 87.5885C200.659 83.0573 197.919 76.9792 196.45 69.3542C195.315 63.5677 194.95 57.0729 195.346 49.8802C195.685 43.6615 196.513 37.6615 197.825 31.875C198.346 29.6719 198.883 27.724 199.435 26.0417C199.955 24.5417 200.367 23.5469 200.674 23.0573C201.351 23.3594 202.054 23.6823 202.789 24.0208C203.674 24.4479 204.487 24.849 205.221 25.2135C202.377 30.5729 200.554 37.1719 199.758 45.0104C199.112 51.2865 199.174 57.8542 199.94 64.7135C200.862 73.474 203.388 80.3177 207.518 85.2448L207.153 85.5677L206.784 85.8906L206.002 86.5781C205.393 87.0677 204.945 87.4063 204.669 87.5885ZM240.726 30.2656C239.289 26.2865 237.33 22.8698 234.846 20.026C232.461 17.2396 229.81 15.2604 226.903 14.099C223.961 12.9063 221.039 12.6458 218.127 13.3177C215.039 14.0521 212.237 15.8125 209.726 18.599C208.377 20.099 207.122 21.8594 205.955 23.8802C204.945 23.3594 203.815 22.8229 202.56 22.276C202.133 22.0625 201.716 21.875 201.32 21.724C201.013 21.5677 200.815 21.4792 200.721 21.4479C200.383 21.3854 200.065 21.526 199.758 21.8594C199.633 21.9531 199.528 22.0885 199.435 22.276L199.299 22.4583L199.205 22.6406C198.289 24.3281 197.294 27.6042 196.221 32.4688C194.903 38.4427 194.091 44.4427 193.784 50.474C192.898 67.8385 196.268 80.6667 203.893 88.9688L204.122 89.1979H204.44C205.023 89.1979 206.388 88.2604 208.528 86.3958C211.591 89.6094 215.252 91.526 219.508 92.1354C225.174 92.9323 230.039 91.6771 234.112 88.3698C237.909 85.2448 240.638 80.625 242.289 74.5C246.424 59.3385 245.903 44.599 240.726 30.2656ZM210.461 70.6406C213.06 79.4896 217.133 83.9167 222.674 83.9167C223.961 83.9167 225.232 83.625 226.487 83.0417C225.325 82.0625 222.877 80.1302 219.138 77.2552C215.56 74.4688 212.664 72.2604 210.461 70.6406ZM223.32 0L217.81 9H221.711L229.383 0H223.32Z" fill="white"/>
<path d="M264.659 85.6615C264.502 85.6303 264.273 85.599 263.971 85.5678L263.143 85.5209C261.674 85.4011 260.523 85.3073 259.695 85.2448L259.789 81.9375L259.929 78.5886L260.112 71.7865C260.263 66.4896 260.388 61.974 260.476 58.2396C260.695 48.0105 260.737 39.6667 260.617 33.2084C261.32 33.1771 262.237 33.099 263.372 32.974L264.659 32.8855C265.086 32.8542 265.44 32.823 265.716 32.7917C265.716 35.948 265.575 44.7344 265.299 59.1563C265.023 72.875 264.81 81.7084 264.659 85.6615ZM267.091 31.3698L266.539 31.2761C266.143 31.2448 265.039 31.3073 263.237 31.4584L262.638 31.5521L261.992 31.599C261.445 31.6303 260.966 31.6615 260.57 31.6927C260.508 29.6094 260.435 28.1407 260.341 27.2813C259.205 27.1302 257.445 27.1407 255.06 27.3282L253.591 27.4636L252.211 27.6042C251.2 27.6615 250.388 27.7084 249.778 27.7396C251.185 67.823 251.888 90.2657 251.888 95.0782C252.409 95.1355 253.039 95.1823 253.773 95.2136L255.653 95.3073C257.31 95.3646 258.518 95.4584 259.284 95.5834C259.377 95.0625 259.497 92.1198 259.653 86.7605C260.143 86.7917 260.737 86.8386 261.445 86.9011L262.268 86.9896L263.002 87.0365C264.351 87.1615 265.133 87.224 265.346 87.224L265.44 87.1771H266.08L266.127 86.5313C266.159 86.4115 266.237 83.5469 266.357 77.9428C266.513 71.9428 266.664 65.7865 266.815 59.4792C267.185 41.625 267.304 32.4271 267.185 31.875L267.091 31.3698ZM259.929 22.1355V10.1927H248.95L249.778 22.1355H259.929Z" fill="white"/>
<path d="M278.206 82.2605L277.565 82.125L276.601 81.9844L275.591 81.8021C274.857 81.6198 274.289 81.4323 273.888 81.25C274.044 80.8542 274.211 80.3907 274.393 79.8698C274.612 79.198 274.841 78.4948 275.086 77.7605C275.758 75.7709 276.445 73.7344 277.153 71.6511C279.206 65.6771 281.148 60 282.987 54.6094C288.528 38.4115 292.372 27.3125 294.513 21.3073C298.555 21.3698 300.747 21.448 301.081 21.5417C298.752 26.4688 294.82 36.6355 289.278 52.0365C287.133 57.9792 285.039 63.9167 282.987 69.8594C281.117 75.2813 279.711 79.4428 278.758 82.3542L278.206 82.2605ZM276.461 11.7084C276.461 11.9532 276.492 12.5521 276.555 13.5L276.601 14.1459L276.648 14.8334L276.784 16.3021C276.935 18.9063 277.013 20.5313 277.013 21.1719C277.44 21.2344 279.403 21.2657 282.893 21.2657C283.565 21.2657 284.362 21.2813 285.284 21.3073H287.81C290.044 21.3073 291.742 21.3073 292.903 21.3073C290.581 27.8021 286.461 39.698 280.549 57C278.711 62.3855 276.784 68.0365 274.763 73.948C274.424 74.9584 274.091 75.9688 273.752 76.9792C273.476 77.7448 273.216 78.5105 272.971 79.2761C272.877 79.5521 272.789 79.8282 272.695 80.1042L272.56 80.4688L272.466 80.7448C272.346 81.1146 272.284 81.3125 272.284 81.3438L272.101 81.849L272.513 82.1667C272.971 82.5365 273.69 82.8594 274.669 83.1355C275.039 83.224 275.466 83.3178 275.956 83.4115L277.336 83.6407L278.299 83.823C278.086 84.5886 277.961 85.0313 277.935 85.1563L278.528 90.4375C280.305 90.6823 291.851 91.4792 313.164 92.823C313.497 92.823 313.711 92.0313 313.805 90.4375C313.836 89.8855 313.867 89.2553 313.898 88.5521C313.898 87.974 313.883 87.4688 313.851 87.0365C311.919 87.0053 307.601 86.6407 300.898 85.9375C298.388 85.6615 295.846 85.3855 293.273 85.1094C290.976 84.8334 289.263 84.6198 288.127 84.4636C288.372 82.8438 297.544 61.1771 315.643 19.474C315.857 16.625 315.935 14.2032 315.872 12.2136L276.461 11.7084Z" fill="white"/>
</svg>
