<svg xmlns="http://www.w3.org/2000/svg" xmlns:xlink="http://www.w3.org/1999/xlink" width="500" zoomAndPan="magnify" viewBox="0 0 375 374.999991" height="500" preserveAspectRatio="xMidYMid meet" version="1.0"><path fill="#f5bf02" d="M 368.488281 187.960938 C 368.488281 190.886719 368.414062 193.808594 368.273438 196.730469 C 368.128906 199.652344 367.914062 202.570312 367.628906 205.480469 C 367.34375 208.390625 366.984375 211.292969 366.558594 214.1875 C 366.128906 217.082031 365.628906 219.960938 365.0625 222.832031 C 364.492188 225.699219 363.851562 228.554688 363.144531 231.390625 C 362.4375 234.230469 361.65625 237.046875 360.8125 239.847656 C 359.964844 242.648438 359.050781 245.421875 358.066406 248.175781 C 357.082031 250.933594 356.035156 253.660156 354.917969 256.363281 C 353.800781 259.066406 352.621094 261.738281 351.371094 264.382812 C 350.125 267.027344 348.8125 269.640625 347.4375 272.21875 C 346.0625 274.800781 344.625 277.34375 343.125 279.851562 C 341.625 282.363281 340.066406 284.832031 338.445312 287.265625 C 336.824219 289.699219 335.144531 292.089844 333.40625 294.4375 C 331.667969 296.789062 329.875 299.09375 328.023438 301.355469 C 326.171875 303.617188 324.269531 305.832031 322.308594 307.996094 C 320.351562 310.164062 318.339844 312.285156 316.277344 314.351562 C 314.214844 316.421875 312.101562 318.4375 309.941406 320.402344 C 307.777344 322.367188 305.570312 324.277344 303.316406 326.132812 C 301.058594 327.988281 298.761719 329.785156 296.417969 331.527344 C 294.074219 333.273438 291.691406 334.957031 289.265625 336.582031 C 286.839844 338.207031 284.375 339.769531 281.871094 341.273438 C 279.371094 342.777344 276.832031 344.21875 274.261719 345.597656 C 271.6875 346.976562 269.082031 348.292969 266.445312 349.542969 C 263.808594 350.792969 261.140625 351.980469 258.445312 353.097656 C 255.75 354.21875 253.03125 355.269531 250.285156 356.257812 C 247.535156 357.242188 244.769531 358.160156 241.976562 359.007812 C 239.183594 359.855469 236.375 360.636719 233.542969 361.347656 C 230.714844 362.058594 227.867188 362.699219 225.007812 363.269531 C 222.144531 363.839844 219.273438 364.339844 216.386719 364.769531 C 213.5 365.199219 210.605469 365.558594 207.703125 365.84375 C 204.800781 366.128906 201.890625 366.347656 198.976562 366.488281 C 196.0625 366.632812 193.148438 366.703125 190.230469 366.703125 C 187.3125 366.703125 184.398438 366.632812 181.484375 366.488281 C 178.570312 366.347656 175.664062 366.128906 172.757812 365.84375 C 169.855469 365.558594 166.960938 365.199219 164.074219 364.769531 C 161.191406 364.339844 158.316406 363.839844 155.457031 363.269531 C 152.59375 362.699219 149.75 362.058594 146.917969 361.347656 C 144.089844 360.636719 141.277344 359.855469 138.488281 359.007812 C 135.695312 358.160156 132.925781 357.242188 130.179688 356.257812 C 127.433594 355.269531 124.710938 354.21875 122.015625 353.097656 C 119.320312 351.980469 116.65625 350.792969 114.015625 349.542969 C 111.378906 348.292969 108.773438 346.976562 106.203125 345.597656 C 103.628906 344.21875 101.09375 342.777344 98.589844 341.273438 C 96.085938 339.769531 93.625 338.207031 91.199219 336.582031 C 88.773438 334.957031 86.386719 333.273438 84.042969 331.527344 C 81.703125 329.785156 79.402344 327.988281 77.148438 326.132812 C 74.890625 324.277344 72.683594 322.367188 70.523438 320.402344 C 68.359375 318.4375 66.25 316.421875 64.1875 314.351562 C 62.125 312.285156 60.113281 310.164062 58.152344 307.996094 C 56.195312 305.832031 54.289062 303.617188 52.4375 301.355469 C 50.585938 299.09375 48.792969 296.789062 47.054688 294.4375 C 45.316406 292.089844 43.636719 289.699219 42.015625 287.265625 C 40.398438 284.832031 38.835938 282.363281 37.335938 279.851562 C 35.835938 277.34375 34.398438 274.800781 33.023438 272.21875 C 31.648438 269.640625 30.335938 267.027344 29.089844 264.382812 C 27.84375 261.738281 26.660156 259.066406 25.546875 256.363281 C 24.429688 253.660156 23.378906 250.933594 22.394531 248.175781 C 21.414062 245.421875 20.5 242.648438 19.652344 239.847656 C 18.804688 237.046875 18.027344 234.230469 17.316406 231.390625 C 16.609375 228.554688 15.96875 225.699219 15.402344 222.832031 C 14.832031 219.960938 14.332031 217.082031 13.90625 214.1875 C 13.476562 211.292969 13.121094 208.390625 12.835938 205.480469 C 12.546875 202.570312 12.335938 199.652344 12.191406 196.730469 C 12.046875 193.808594 11.976562 190.886719 11.976562 187.960938 C 11.976562 185.035156 12.046875 182.113281 12.191406 179.191406 C 12.335938 176.269531 12.546875 173.351562 12.835938 170.441406 C 13.121094 167.53125 13.476562 164.628906 13.90625 161.734375 C 14.332031 158.839844 14.832031 155.957031 15.402344 153.089844 C 15.96875 150.21875 16.609375 147.367188 17.316406 144.53125 C 18.027344 141.691406 18.804688 138.875 19.652344 136.074219 C 20.5 133.273438 21.414062 130.496094 22.394531 127.742188 C 23.378906 124.988281 24.429688 122.261719 25.546875 119.558594 C 26.660156 116.855469 27.84375 114.183594 29.089844 111.539062 C 30.335938 108.894531 31.648438 106.28125 33.023438 103.703125 C 34.398438 101.121094 35.835938 98.578125 37.335938 96.066406 C 38.835938 93.558594 40.398438 91.089844 42.015625 88.65625 C 43.636719 86.222656 45.316406 83.832031 47.054688 81.484375 C 48.792969 79.132812 50.585938 76.828125 52.4375 74.566406 C 54.289062 72.304688 56.195312 70.089844 58.152344 67.921875 C 60.113281 65.757812 62.125 63.636719 64.1875 61.570312 C 66.25 59.5 68.359375 57.484375 70.523438 55.519531 C 72.683594 53.554688 74.890625 51.644531 77.148438 49.789062 C 79.402344 47.933594 81.703125 46.132812 84.042969 44.390625 C 86.386719 42.648438 88.773438 40.964844 91.199219 39.339844 C 93.625 37.714844 96.085938 36.152344 98.589844 34.648438 C 101.09375 33.144531 103.628906 31.703125 106.203125 30.324219 C 108.773438 28.945312 111.378906 27.628906 114.015625 26.378906 C 116.65625 25.128906 119.320312 23.941406 122.015625 22.824219 C 124.710938 21.703125 127.433594 20.652344 130.179688 19.664062 C 132.925781 18.679688 135.695312 17.761719 138.488281 16.914062 C 141.277344 16.0625 144.089844 15.285156 146.917969 14.574219 C 149.75 13.863281 152.59375 13.222656 155.457031 12.652344 C 158.316406 12.082031 161.191406 11.582031 164.074219 11.152344 C 166.960938 10.722656 169.855469 10.363281 172.757812 10.078125 C 175.664062 9.789062 178.570312 9.574219 181.484375 9.433594 C 184.398438 9.289062 187.3125 9.214844 190.230469 9.214844 C 193.148438 9.214844 196.0625 9.289062 198.976562 9.433594 C 201.890625 9.574219 204.800781 9.789062 207.703125 10.078125 C 210.605469 10.363281 213.5 10.722656 216.386719 11.152344 C 219.273438 11.582031 222.144531 12.082031 225.007812 12.652344 C 227.867188 13.222656 230.714844 13.863281 233.542969 14.574219 C 236.375 15.285156 239.183594 16.0625 241.976562 16.914062 C 244.769531 17.761719 247.535156 18.679688 250.285156 19.664062 C 253.03125 20.652344 255.75 21.703125 258.445312 22.824219 C 261.140625 23.941406 263.808594 25.128906 266.445312 26.378906 C 269.082031 27.628906 271.6875 28.945312 274.261719 30.324219 C 276.832031 31.703125 279.371094 33.144531 281.871094 34.648438 C 284.375 36.152344 286.839844 37.714844 289.265625 39.339844 C 291.691406 40.964844 294.074219 42.648438 296.417969 44.390625 C 298.761719 46.132812 301.058594 47.933594 303.316406 49.789062 C 305.570312 51.644531 307.777344 53.554688 309.941406 55.519531 C 312.101562 57.484375 314.214844 59.5 316.277344 61.570312 C 318.339844 63.636719 320.351562 65.757812 322.308594 67.921875 C 324.269531 70.089844 326.171875 72.304688 328.023438 74.566406 C 329.875 76.828125 331.667969 79.132812 333.40625 81.484375 C 335.144531 83.832031 336.824219 86.222656 338.445312 88.65625 C 340.066406 91.089844 341.625 93.558594 343.125 96.066406 C 344.625 98.578125 346.0625 101.121094 347.4375 103.703125 C 348.8125 106.28125 350.125 108.894531 351.371094 111.539062 C 352.621094 114.183594 353.800781 116.855469 354.917969 119.558594 C 356.035156 122.261719 357.082031 124.988281 358.066406 127.742188 C 359.050781 130.496094 359.964844 133.273438 360.8125 136.074219 C 361.65625 138.875 362.4375 141.691406 363.144531 144.53125 C 363.851562 147.367188 364.492188 150.21875 365.0625 153.089844 C 365.628906 155.957031 366.128906 158.839844 366.558594 161.734375 C 366.984375 164.628906 367.34375 167.53125 367.628906 170.441406 C 367.914062 173.351562 368.128906 176.269531 368.273438 179.191406 C 368.414062 182.113281 368.488281 185.035156 368.488281 187.960938 Z M 368.488281 187.960938 " fill-opacity="1" fill-rule="nonzero"/><path fill="#fad3c2" d="M 67.25 266.277344 C 69.089844 270.421875 70.472656 286.085938 72.316406 292.074219 L 103.636719 290.691406 L 104.558594 277.792969 L 106.863281 266.277344 L 106.863281 246.929688 L 104.558594 235.871094 L 102.253906 235.871094 L 94.425781 241.398438 L 91.660156 240.015625 L 90.28125 234.027344 L 87.054688 225.277344 L 87.976562 221.589844 L 91.660156 211.917969 L 95.808594 218.828125 L 102.253906 221.589844 L 107.320312 219.746094 L 105.941406 212.835938 L 101.335938 205.464844 L 95.808594 200.398438 L 85.671875 200.398438 L 81.066406 202.703125 L 76 215.601562 L 70.472656 198.09375 L 59.878906 174.601562 L 56.65625 170.453125 C 55.734375 169.992188 53.246094 169.074219 50.667969 169.074219 C 48.085938 169.074219 48.671875 171.222656 49.285156 172.296875 L 52.507812 181.511719 L 62.183594 205.464844 L 61.261719 209.152344 L 53.890625 200.398438 L 46.980469 191.644531 L 41.914062 187.5 L 37.769531 186.117188 C 37.003906 186.117188 35.097656 186.488281 33.625 187.960938 C 32.152344 189.433594 33.011719 191.03125 33.625 191.644531 L 37.769531 196.253906 L 49.285156 210.535156 L 50.667969 219.746094 L 41.453125 210.535156 C 40.6875 209.613281 38.414062 207.769531 35.46875 207.769531 C 32.519531 207.769531 32.089844 209.613281 32.242188 210.535156 L 35.46875 216.523438 L 56.65625 244.164062 C 59.570312 250.152344 65.773438 262.960938 67.25 266.277344 Z M 67.25 266.277344 " fill-opacity="1" fill-rule="nonzero"/><path fill="#fad3c2" d="M 181.019531 250.613281 L 196.21875 285.164062 L 201.285156 294.378906 L 224.777344 311.421875 L 258.402344 301.289062 L 290.183594 281.480469 L 296.171875 264.433594 L 303.082031 250.613281 L 322.886719 228.039062 L 322.886719 198.09375 L 311.371094 184.734375 L 299.394531 188.882812 L 293.867188 150.644531 L 275.445312 150.644531 L 181.019531 158.015625 L 177.796875 198.09375 Z M 181.019531 250.613281 " fill-opacity="1" fill-rule="nonzero"/><path stroke-linecap="butt" transform="matrix(0.921216, 0, 0, 0.921361, 1.842756, 0.00298058)" fill="none" stroke-linejoin="miter" d="M 71.001001 289.001064 C 72.998192 293.499333 74.499265 310.500335 76.500697 316.99972 L 110.499584 315.498883 L 111.5003 301.499555 L 114.002089 289.001064 L 114.002089 268.002072 L 111.5003 255.999619 L 108.998511 255.999619 L 100.500909 261.998726 L 97.498763 260.497889 L 96.001929 253.998504 L 92.499425 244.501685 L 93.500141 240.499455 L 97.498763 230.002079 L 102.001983 237.502021 L 108.998511 240.499455 L 114.498206 238.498339 L 113.001373 230.998397 L 108.002036 222.998175 L 102.001983 217.499347 L 90.998352 217.499347 L 85.999014 220.000741 L 80.499319 234.00007 L 74.499265 214.997953 L 62.999517 189.500691 L 59.501253 184.998182 C 58.500537 184.497903 55.799453 183.501585 53.000842 183.501585 C 50.19799 183.501585 50.834038 185.833393 51.499768 186.999297 L 54.998033 197.000634 L 65.501306 222.998175 L 64.50059 227.000406 L 56.499106 217.499347 L 48.997979 207.998289 L 43.498284 203.500019 L 38.999304 201.999183 C 38.168201 201.999183 36.098925 202.40195 34.500324 204.000298 C 32.901724 205.598647 33.834594 207.332664 34.500324 207.998289 L 38.999304 213.001077 L 51.499768 228.501242 L 53.000842 238.498339 L 42.997926 228.501242 C 42.166823 227.500684 39.698957 225.499569 36.501756 225.499569 C 33.300314 225.499569 32.833879 227.500684 32.999251 228.501242 L 36.501756 235.000627 L 59.501253 265.000399 C 62.664532 271.499784 69.39816 285.4016 71.001001 289.001064 Z M 71.001001 289.001064 " stroke="#000000" stroke-width="1" stroke-opacity="1" stroke-miterlimit="4"/><path stroke-linecap="butt" transform="matrix(0.921216, 0, 0, 0.921361, 1.842756, 0.00298058)" fill="none" stroke-linejoin="miter" d="M 194.500329 272.000063 L 210.999415 309.499777 L 216.49911 319.501114 L 242.000396 337.998712 L 278.501073 327.001057 L 313.000319 305.501786 L 319.50073 286.999948 L 327.001856 272.000063 L 348.50028 247.499119 L 348.50028 214.997953 L 335.999816 200.498346 L 322.998994 205.000856 L 316.998941 163.498911 L 297.00159 163.498911 L 194.500329 171.499133 L 191.002065 214.997953 Z M 194.500329 272.000063 " stroke="#000000" stroke-width="1" stroke-opacity="1" stroke-miterlimit="4"/><path fill="#ffffff" d="M 106.402344 243.242188 L 102.714844 223.894531 L 107.320312 218.828125 L 110.085938 216.0625 C 111.007812 215.292969 112.296875 214.773438 113.769531 215.140625 C 115.613281 215.601562 118.375 219.285156 119.296875 219.285156 C 120.035156 219.285156 123.289062 227.117188 124.824219 231.265625 L 126.207031 242.78125 L 127.128906 263.511719 L 128.050781 280.558594 L 133.117188 297.601562 L 116.074219 302.210938 L 108.242188 300.367188 L 105.480469 280.558594 L 105.480469 261.667969 Z M 106.402344 243.242188 " fill-opacity="1" fill-rule="nonzero"/><path fill="#ffffff" d="M 243.203125 360.714844 L 203.128906 367.625 C 197.601562 359.179688 186.363281 341 185.625 335.839844 C 184.886719 330.679688 182.554688 318.332031 181.480469 312.804688 L 194.835938 311.421875 C 192.6875 308.042969 188.390625 300.828125 188.390625 298.984375 C 188.390625 297.140625 190.230469 292.996094 191.152344 291.152344 L 197.140625 289.308594 L 203.128906 294.378906 L 222.472656 311.421875 L 236.292969 309.582031 L 269.457031 294.378906 L 290.644531 280.558594 L 292.488281 291.152344 C 287.574219 302.210938 277.5625 324.597656 276.824219 325.703125 C 276.089844 326.808594 254.101562 349.503906 243.203125 360.714844 Z M 243.203125 360.714844 " fill-opacity="1" fill-rule="nonzero"/><path fill="#ffffff" d="M 197.601562 205.464844 L 188.847656 205.464844 L 181.941406 203.625 L 179.175781 199.9375 L 179.636719 193.488281 L 187.007812 192.105469 L 207.273438 194.871094 L 207.273438 199.015625 Z M 197.601562 205.464844 " fill-opacity="1" fill-rule="nonzero"/><path fill="#ffffff" d="M 223.394531 194.410156 L 228.921875 193.488281 L 241.359375 193.488281 L 256.097656 194.871094 L 257.941406 199.9375 L 249.648438 209.613281 L 239.054688 211.457031 C 233.066406 211.457031 223.761719 205.835938 223.394531 205.464844 C 223.027344 205.097656 221.398438 201.472656 220.171875 199.9375 Z M 223.394531 194.410156 " fill-opacity="1" fill-rule="nonzero"/><path fill="#ffffff" d="M 302.621094 137.285156 L 260.703125 140.511719 L 264.390625 118.859375 L 264.390625 30.867188 L 274.523438 4.609375 L 309.527344 11.058594 L 317.820312 23.496094 Z M 302.621094 137.285156 " fill-opacity="1" fill-rule="nonzero"/><path fill="#000000" d="M 205.953125 1.84375 C 202.882812 2.335938 195.144531 2.828125 188.757812 2.828125 C 98.722656 3.566406 25.027344 63.269531 5.496094 151.351562 C 1.8125 167.691406 1.566406 206.757812 4.882812 223.464844 C 18.148438 288.820312 61.875 340.292969 123.65625 363.265625 C 163.210938 377.882812 211.847656 377.882812 251.398438 363.265625 C 301.023438 344.839844 341.066406 306.140625 359.613281 258.476562 C 370.175781 231.816406 373.738281 209.949219 372.632812 180.46875 C 371.035156 139.558594 357.523438 103.5625 331.484375 71.253906 L 324.730469 62.777344 L 326.695312 49.757812 C 330.378906 27.03125 328.90625 18.554688 320.429688 13.640625 C 315.148438 10.566406 295.742188 5.898438 276.210938 2.953125 C 258.523438 0.371094 217.746094 -0.367188 205.953125 1.84375 Z M 291.933594 10.566406 C 304.214844 12.65625 305.8125 13.394531 304.953125 17.449219 C 301.636719 33.050781 295.25 89.3125 294.511719 108.96875 C 293.898438 127.273438 293.285156 132.308594 291.933594 133.171875 C 289.601562 134.644531 271.421875 134.769531 270.5625 133.292969 C 269.824219 132.1875 273.261719 11.796875 274.125 9.460938 C 274.613281 7.988281 277.195312 8.109375 291.933594 10.566406 Z M 174.019531 14.5 C 174.019531 14.746094 173.160156 16.957031 172.175781 19.414062 C 170.578125 23.097656 170.457031 30.46875 171.070312 70.761719 C 171.5625 96.683594 171.5625 122.605469 171.070312 128.503906 L 170.085938 139.3125 L 152.644531 139.3125 C 136.679688 139.3125 134.835938 139.558594 132.871094 141.769531 C 130.90625 143.859375 130.78125 144.839844 132.011719 148.894531 C 132.746094 151.351562 135.082031 155.527344 137.167969 157.984375 L 140.976562 162.652344 L 172.421875 162.652344 L 173.160156 170.886719 C 173.648438 175.429688 173.648438 190.785156 173.28125 205.035156 C 172.542969 226.289062 172.789062 232.675781 174.507812 241.523438 C 176.597656 252.703125 183.476562 273.953125 187.652344 282.0625 L 190.109375 286.851562 L 182.371094 290.417969 C 178.070312 292.382812 164.4375 298.648438 151.910156 304.296875 L 129.183594 314.617188 L 127.097656 321.25 C 125.992188 324.9375 123.78125 332.308594 122.0625 337.589844 L 119.234375 347.417969 L 116.535156 328.375 C 115.058594 317.933594 113.832031 308.597656 113.832031 307.492188 C 113.832031 306.015625 116.78125 304.542969 124.273438 302.210938 C 130.046875 300.367188 134.710938 298.769531 134.710938 298.523438 C 134.710938 298.277344 133.363281 294.960938 131.640625 291.277344 C 128.695312 284.886719 128.449219 283.046875 128.078125 261.300781 C 127.710938 241.398438 127.34375 237.101562 125.007812 229.730469 C 121.570312 219.410156 117.269531 214.617188 110.269531 213.511719 C 106.09375 212.898438 104.742188 211.917969 101.917969 207.371094 C 97.863281 200.980469 94.179688 199.261719 86.074219 199.753906 C 80.300781 200.121094 79.929688 200.367188 77.351562 205.652344 L 74.773438 211.179688 L 73.421875 207.492188 C 70.105469 198.648438 69.121094 196.316406 68.261719 195.085938 C 67.648438 194.347656 66.050781 190.050781 64.699219 185.625 C 61.628906 175.675781 56.101562 168.796875 51.1875 168.796875 C 45.785156 168.796875 44.433594 171.5 47.257812 177.027344 C 50.328125 183.046875 58.558594 204.054688 58.558594 205.773438 C 58.558594 207.246094 50.820312 198.28125 46.03125 191.03125 C 42.34375 185.625 37.921875 183.785156 32.886719 185.503906 C 27.972656 187.347656 28.34375 190.292969 34.976562 198.648438 C 41.855469 207.371094 47.871094 216.707031 47.136719 217.445312 C 46.890625 217.691406 45.171875 215.722656 43.328125 213.023438 C 39.890625 207.863281 34.976562 205.652344 31.660156 207.738281 C 27.238281 210.5625 28.710938 214.003906 40.011719 227.394531 C 49.347656 238.574219 52.171875 242.875 58.683594 257.125 C 64.945312 270.636719 66.542969 275.429688 67.15625 282.0625 L 67.769531 290.292969 L 63.472656 291.03125 C 55.980469 292.257812 55.734375 292.75 58.4375 301.472656 C 59.789062 305.773438 60.769531 309.582031 60.523438 309.828125 C 59.664062 310.5625 47.136719 294.714844 40.75 284.886719 C 28.21875 265.722656 20.359375 246.683594 15.324219 223.710938 C 11.515625 205.898438 11.394531 171.253906 15.324219 153.808594 C 30.800781 83.292969 83.246094 31.207031 153.136719 16.585938 C 163.824219 14.375 174.019531 13.394531 174.019531 14.5 Z M 332.34375 89.4375 C 353.59375 120.269531 364.402344 157.984375 362.804688 195.824219 C 361.699219 221.253906 355.4375 245.699219 344.75 267.199219 C 339.347656 277.761719 325.464844 299.015625 323.871094 299.015625 C 323.007812 299.015625 294.882812 282.554688 293.40625 281.203125 C 293.160156 280.957031 293.898438 276.78125 295.128906 271.742188 C 297.09375 263.390625 297.707031 262.285156 304.953125 255.773438 C 327.308594 235.011719 331.851562 213.269531 322.148438 173.097656 C 320.429688 166.339844 319.324219 160.566406 319.570312 160.320312 C 319.816406 160.074219 323.007812 160.566406 326.449219 161.425781 L 332.957031 163.023438 L 336.519531 158.84375 C 345.117188 148.773438 347.085938 141.769531 342.171875 137.347656 C 340.207031 135.628906 337.136719 135.011719 327.921875 134.644531 L 316.132812 134.152344 L 316.992188 123.464844 C 317.851562 111.792969 321.042969 85.015625 322.148438 80.589844 C 323.007812 76.78125 324.359375 78.011719 332.34375 89.4375 Z M 288.738281 162.898438 C 293.039062 178.871094 292.054688 203.070312 286.527344 214.003906 C 283.335938 220.269531 281 222.851562 275.597656 225.550781 C 272.28125 227.148438 272.28125 227.394531 274.367188 229.238281 C 278.421875 232.800781 286.285156 236.363281 290.214844 236.363281 C 297.09375 236.363281 300.164062 230.34375 303.601562 209.828125 C 305.566406 198.035156 307.777344 193.367188 311.21875 193.367188 C 313.921875 193.367188 316.5 201.226562 316.5 209.703125 C 316.5 225.0625 310.234375 237.46875 300.039062 242.382812 C 294.023438 245.332031 294.636719 243.734375 290.582031 265.722656 C 288.738281 275.304688 285.054688 279.851562 271.914062 288.941406 C 254.46875 300.980469 235.675781 308.84375 224.378906 308.84375 C 219.097656 308.84375 218.113281 308.351562 213.078125 302.945312 C 195.390625 284.027344 185.5625 264.496094 180.773438 238.453125 C 178.929688 228.007812 177.703125 206.386719 179.054688 205.160156 C 179.421875 204.667969 181.386719 205.160156 183.351562 206.265625 C 187.40625 208.351562 195.269531 208.722656 198.707031 206.878906 C 202.023438 205.035156 201.65625 206.019531 195.636719 215.355469 C 189.371094 225.0625 188.265625 228.007812 189.25 232.1875 C 190.230469 236.117188 196.496094 238.820312 204.726562 238.820312 C 208.164062 238.820312 212.953125 239.679688 215.410156 240.664062 C 221.308594 243.121094 221.921875 242.996094 221.921875 239.433594 C 221.921875 235.257812 217.992188 233.90625 207.917969 234.273438 C 194.652344 234.644531 193.179688 230.710938 200.917969 215.601562 C 206.566406 204.421875 209.636719 194.839844 209.636719 187.714844 C 209.636719 181.449219 211.113281 180.222656 215.164062 182.800781 C 217.867188 184.519531 218.113281 185.378906 217.5 190.171875 C 214.675781 210.5625 243.171875 221.867188 256.679688 205.652344 C 258.402344 203.683594 260.121094 200.980469 260.613281 199.632812 C 260.980469 198.402344 262.453125 197.050781 263.683594 196.683594 C 266.140625 196.070312 266.140625 196.929688 266.140625 233.414062 C 266.140625 265.847656 266.386719 270.761719 267.980469 270.761719 C 269.578125 270.761719 269.824219 265.601562 269.824219 231.695312 L 269.824219 192.628906 L 265.648438 191.15625 C 262.578125 190.050781 261.347656 188.699219 260.859375 186.117188 C 259.136719 178.011719 249.679688 171.253906 239.976562 171.253906 C 232.851562 171.253906 229.414062 172.605469 224.007812 177.394531 C 220.324219 180.589844 219.097656 180.957031 217.132812 179.976562 C 215.78125 179.238281 213.324219 178.625 211.726562 178.625 C 209.882812 178.625 206.9375 176.90625 204.480469 174.445312 C 199.8125 169.78125 191.582031 166.953125 185.441406 167.9375 C 181.757812 168.550781 181.386719 168.304688 181.386719 165.601562 C 181.386719 163.144531 182.003906 162.652344 185.441406 162.652344 C 187.53125 162.53125 192.441406 162.285156 196.128906 161.917969 C 217.621094 159.707031 259.015625 156.878906 271.914062 156.632812 L 286.898438 156.386719 Z M 55.367188 173.097656 C 58.191406 176.167969 60.648438 181.082031 63.839844 190.910156 C 64.945312 193.980469 67.15625 200.246094 68.875 205.035156 C 70.597656 209.703125 72.070312 215.480469 72.070312 217.691406 C 72.070312 224.199219 74.527344 221.746094 78.089844 211.671875 C 81.28125 202.578125 81.28125 202.578125 86.074219 202.210938 C 88.773438 201.964844 92.089844 202.085938 93.566406 202.457031 C 96.511719 203.195312 102.164062 210.933594 103.515625 215.96875 C 104.128906 218.550781 103.757812 219.164062 100.933594 219.902344 C 98.230469 220.515625 97.125 220.148438 95.285156 217.8125 C 94.054688 216.214844 92.949219 214.003906 92.949219 212.898438 C 92.949219 210.074219 91.601562 209.214844 89.757812 210.6875 C 88.652344 211.546875 87.421875 211.546875 85.703125 210.6875 C 84.230469 209.828125 83 209.828125 82.511719 210.441406 C 82.140625 211.179688 83 212.285156 84.476562 213.023438 C 86.441406 214.128906 86.808594 215.109375 86.195312 217.691406 C 85.703125 219.53125 84.597656 221.867188 83.617188 222.972656 C 81.652344 225.183594 81.28125 228.253906 83.125 227.148438 C 84.597656 226.289062 86.808594 231.570312 86.808594 235.871094 C 86.808594 238.820312 90.617188 243.734375 93.074219 243.734375 C 93.8125 243.734375 95.898438 242.136719 97.863281 240.171875 C 102.410156 235.75 102.652344 236.484375 103.636719 254.175781 C 104.25 266.953125 104.128906 268.058594 101.304688 273.832031 C 98.847656 278.867188 98.476562 280.710938 99.335938 284.152344 C 99.953125 286.363281 100.320312 288.449219 100.074219 288.695312 C 99.828125 288.820312 93.074219 289.1875 84.96875 289.308594 L 70.226562 289.433594 L 69.859375 282.308594 C 69.613281 277.269531 67.769531 270.636719 63.839844 260.933594 C 55.609375 240.292969 54.136719 237.589844 42.34375 224.816406 C 36.328125 218.425781 31.535156 212.285156 31.535156 211.300781 C 31.535156 207.984375 36.574219 209.089844 40.011719 213.144531 C 54.136719 229.605469 61.015625 236.238281 61.015625 233.167969 C 61.015625 232.675781 58.558594 227.761719 55.488281 222.234375 C 49.101562 210.320312 40.625 198.769531 34.605469 193.488281 C 30.554688 190.050781 30.429688 189.679688 32.640625 188.453125 C 36.574219 186.488281 40.996094 189.066406 45.660156 196.070312 C 48.117188 199.632812 52.171875 205.28125 54.875 208.597656 C 57.453125 211.917969 60.648438 217.320312 61.875 220.515625 C 64.210938 226.78125 66.664062 228.132812 66.175781 222.851562 C 65.316406 214.988281 59.050781 196.4375 53.523438 184.890625 C 48.609375 174.9375 47.628906 171.867188 48.976562 171.128906 C 51.433594 169.535156 52.292969 169.78125 55.367188 173.097656 Z M 201.988281 176.535156 C 202.972656 177.148438 197.9375 176.136719 194.375 175.769531 C 190.199219 175.398438 186.546875 175.308594 183.96875 176.535156 C 180.035156 178.5 178.5625 177.273438 182.371094 175.0625 C 184.949219 173.464844 199.777344 175.0625 201.988281 176.535156 Z M 249.433594 177.273438 C 254.347656 179.976562 257.417969 184.519531 258.402344 190.050781 L 259.136719 194.71875 L 254.347656 193.734375 C 251.769531 193.242188 243.046875 192.75 235.0625 192.75 C 219.21875 192.75 218.605469 192.382812 222.414062 185.011719 C 227.449219 175.183594 239.609375 171.746094 249.433594 177.273438 Z M 203.621094 178.257812 C 205.21875 180.222656 206.320312 178.605469 204.480469 177.011719 C 203.25 176.152344 201.039062 176.90625 201.039062 176.660156 C 201.039062 175.675781 202.023438 176.289062 203.621094 178.257812 Z M 196.617188 179.117188 C 201.777344 181.203125 205.953125 186.609375 205.953125 191.03125 C 205.953125 194.226562 205.832031 194.347656 202.023438 193.242188 C 199.8125 192.628906 193.671875 192.015625 188.511719 192.015625 L 178.929688 192.015625 L 179.546875 187.59375 C 179.792969 185.136719 180.652344 182.554688 181.265625 181.941406 C 182.003906 181.203125 189.1875 178.65625 191.152344 178.285156 C 192.996094 178.285156 194.285156 178.132812 196.617188 179.117188 Z M 182.863281 198.28125 C 183.324219 201.566406 181.878906 202.824219 180.035156 199.386719 C 178.929688 197.296875 179.054688 196.558594 180.28125 195.699219 C 182.984375 193.980469 182.402344 194.992188 182.863281 198.28125 Z M 202.023438 196.683594 C 204.726562 197.296875 204.726562 197.421875 202.636719 199.875 C 197.96875 205.035156 190.167969 204.546875 184.214844 202.824219 C 178.253906 201.105469 183.78125 201.105469 184.828125 202.332031 C 185.871094 203.5625 191.707031 199.386719 188.511719 195.945312 C 187.160156 194.59375 188.019531 194.472656 193.058594 195.210938 C 196.496094 195.578125 200.425781 196.316406 202.023438 196.683594 Z M 247.714844 195.945312 C 252.136719 196.558594 256.191406 197.664062 256.804688 198.28125 C 258.769531 200.246094 248.699219 209.089844 243.539062 209.949219 C 237.273438 211.179688 230.273438 208.96875 225.605469 204.175781 C 221.308594 199.875 221.183594 196.683594 225.359375 196.070312 C 227.941406 195.699219 228.0625 195.824219 226.710938 198.035156 C 225.484375 200 225.484375 200.859375 226.710938 202.457031 C 230.519531 207.003906 238.625 203.070312 235.675781 198.15625 C 234.816406 196.929688 234.203125 195.578125 234.203125 195.210938 C 234.203125 194.226562 238.992188 194.472656 247.714844 195.945312 Z M 96.636719 222.480469 C 101.546875 223.832031 101.058594 233.046875 95.652344 239.066406 C 93.074219 242.136719 89.265625 239.804688 89.265625 235.132812 C 89.265625 233.167969 88.773438 230.222656 88.039062 228.378906 C 87.179688 226.167969 87.300781 223.585938 88.285156 219.777344 L 89.757812 214.375 L 91.96875 218.179688 C 93.320312 220.148438 95.40625 222.113281 96.636719 222.480469 Z M 115.796875 218.917969 C 114.691406 220.023438 111.253906 217.933594 111.988281 216.707031 C 112.601562 215.722656 113.339844 215.847656 114.570312 216.828125 C 115.550781 217.566406 116.042969 218.550781 115.796875 218.917969 Z M 119.972656 223.464844 C 119.972656 224.445312 119.234375 225.304688 118.253906 225.304688 C 116.164062 225.304688 114.8125 223.585938 115.917969 222.359375 C 117.394531 220.882812 119.972656 221.621094 119.972656 223.464844 Z M 105.355469 224.691406 C 105.480469 226.78125 103.144531 226.78125 102.285156 224.691406 C 101.792969 223.339844 102.164062 222.851562 103.515625 223.09375 C 104.496094 223.339844 105.355469 223.957031 105.355469 224.691406 Z M 122.429688 230.957031 C 122.429688 232.0625 121.570312 232.675781 120.339844 232.433594 C 117.269531 231.816406 116.902344 228.992188 119.851562 228.992188 C 121.324219 228.992188 122.429688 229.730469 122.429688 230.957031 Z M 108.917969 232.0625 C 108.917969 233.046875 108.179688 233.90625 107.199219 233.90625 C 105.109375 233.90625 103.757812 232.1875 104.863281 230.957031 C 106.339844 229.484375 108.917969 230.222656 108.917969 232.0625 Z M 124.886719 238.207031 C 124.886719 239.066406 124.027344 240.171875 123.042969 240.539062 C 120.585938 241.398438 118.992188 237.714844 121.324219 236.363281 C 123.289062 235.132812 124.886719 235.871094 124.886719 238.207031 Z M 110.148438 240.046875 C 110.148438 241.398438 109.285156 242.503906 108.304688 242.503906 C 106.460938 242.503906 105.726562 239.925781 107.320312 238.453125 C 108.796875 236.855469 110.148438 237.589844 110.148438 240.046875 Z M 124.886719 247.417969 C 124.886719 248.769531 124.027344 249.875 123.042969 249.875 C 122.0625 249.875 121.203125 248.769531 121.203125 247.417969 C 121.203125 246.066406 122.0625 244.960938 123.042969 244.960938 C 124.027344 244.960938 124.886719 246.066406 124.886719 247.417969 Z M 111.375 249.875 C 111.375 251.472656 110.515625 252.332031 108.917969 252.332031 C 106.585938 252.332031 105.601562 249.875 107.320312 248.28125 C 108.917969 246.558594 111.375 247.542969 111.375 249.875 Z M 124.886719 258.476562 C 124.886719 259.828125 124.027344 260.933594 123.042969 260.933594 C 122.0625 260.933594 121.203125 259.828125 121.203125 258.476562 C 121.203125 257.125 122.0625 256.019531 123.042969 256.019531 C 124.027344 256.019531 124.886719 257.125 124.886719 258.476562 Z M 112.359375 261.300781 C 112.601562 262.773438 111.988281 263.390625 110.269531 263.390625 C 108.425781 263.390625 107.691406 262.652344 107.691406 260.808594 C 107.691406 257.738281 111.742188 258.105469 112.359375 261.300781 Z M 124.640625 269.777344 C 124.148438 273.339844 119.972656 274.445312 119.972656 271.003906 C 119.972656 268.304688 120.957031 267.074219 123.289062 267.074219 C 124.394531 267.074219 124.886719 268.058594 124.640625 269.777344 Z M 112.359375 272.847656 C 112.113281 274.078125 110.761719 275.183594 109.164062 275.429688 C 106.214844 275.921875 106.09375 275.675781 107.199219 272.726562 C 108.304688 269.898438 112.847656 270.144531 112.359375 272.847656 Z M 124.886719 282.429688 C 124.886719 284.273438 124.148438 285.503906 123.167969 285.503906 C 120.21875 285.503906 119.480469 282.800781 121.816406 280.957031 C 124.886719 278.867188 124.886719 278.867188 124.886719 282.429688 Z M 112.601562 285.378906 C 112.601562 287.714844 109.777344 289.679688 108.425781 288.328125 C 106.707031 286.484375 107.8125 283.046875 110.148438 283.046875 C 111.742188 283.046875 112.601562 283.90625 112.601562 285.378906 Z M 284.195312 291.769531 C 282.476562 295.699219 269.703125 309.210938 261.964844 315.109375 C 260.121094 316.582031 254.226562 320.269531 249.1875 323.214844 C 238.75 329.113281 238.992188 329.234375 253.855469 326.65625 C 259.628906 325.671875 264.542969 324.8125 264.664062 324.8125 C 265.402344 324.8125 257.910156 334.765625 248.699219 345.945312 C 240.960938 355.527344 239.363281 356.875 233.710938 358.472656 C 224.625 361.175781 206.691406 364.125 205.707031 363.140625 C 204.480469 361.792969 198.09375 343.976562 194.285156 330.957031 C 192.441406 324.566406 190.601562 318.671875 190.355469 317.8125 C 189.984375 316.953125 193.546875 318.304688 198.214844 320.636719 C 205.707031 324.445312 211.113281 326.289062 207.671875 323.832031 C 202.761719 320.390625 193.792969 301.71875 193.671875 294.839844 C 193.671875 292.996094 194.164062 293.242188 196.375 296.066406 C 197.722656 298.03125 202.269531 303.070312 206.445312 307.246094 C 213.445312 314.492188 214.183594 314.984375 219.585938 314.984375 C 233.34375 314.984375 262.085938 303.683594 278.421875 291.890625 C 282.105469 289.1875 285.300781 287.097656 285.546875 287.34375 C 285.792969 287.589844 285.179688 289.554688 284.195312 291.769531 Z M 128.078125 296.3125 C 125.992188 298.402344 123.65625 297.296875 123.65625 294.101562 C 123.65625 291.03125 126.359375 290.171875 128.324219 292.628906 C 129.554688 294.222656 129.554688 294.960938 128.078125 296.3125 Z M 114.8125 297.539062 C 115.183594 299.628906 114.570312 300.246094 112.726562 300.246094 C 111.007812 300.246094 110.148438 299.507812 110.148438 298.03125 C 110.148438 293.363281 114.199219 292.996094 114.8125 297.539062 Z M 114.8125 297.539062 " fill-opacity="1" fill-rule="nonzero"/><path fill="#000000" d="M 240.4375 159.214844 C 236.753906 160.074219 228.769531 163.636719 228.769531 164.496094 C 228.769531 164.863281 232.207031 165.234375 236.507812 165.355469 C 250.019531 165.480469 262.179688 171.5 268.320312 181.082031 L 270.777344 184.890625 L 270.039062 180.710938 C 268.933594 174.445312 262.667969 165.480469 257.386719 162.53125 C 252.476562 159.828125 244.613281 158.355469 240.4375 159.214844 Z M 240.4375 159.214844 " fill-opacity="1" fill-rule="nonzero"/><path fill="#000000" d="M 251.492188 252.703125 C 255.300781 262.160156 255.175781 267.933594 250.753906 274.078125 C 248.789062 276.902344 248.667969 277.640625 250.140625 277.640625 C 251.125 277.640625 253.089844 276.164062 254.441406 274.445312 C 257.757812 270.144531 257.878906 261.914062 254.5625 255.527344 C 252.105469 250.613281 249.773438 248.648438 251.492188 252.703125 Z M 251.492188 252.703125 " fill-opacity="1" fill-rule="nonzero"/><path fill="#000000" d="M 206.414062 256.511719 C 204.449219 256.757812 202.972656 257.738281 202.972656 258.722656 C 202.972656 260.074219 205.675781 260.441406 216.855469 260.441406 C 228.523438 260.441406 231.226562 260.808594 234.789062 263.019531 C 239.824219 266.09375 242.769531 264.496094 239.332031 260.5625 C 235.523438 256.386719 221.523438 254.667969 206.414062 256.511719 Z M 206.414062 256.511719 " fill-opacity="1" fill-rule="nonzero"/><path fill="#000000" d="M 89.234375 261.914062 C 91.324219 268.917969 91.324219 272.480469 89.480469 276.902344 C 87.148438 282.675781 87.023438 283.78125 89.113281 283.78125 C 90.953125 283.78125 93.65625 276.164062 93.65625 271.003906 C 93.65625 267.445312 90.585938 259.210938 89.234375 259.210938 C 88.867188 259.210938 88.867188 260.441406 89.234375 261.914062 Z M 89.234375 261.914062 " fill-opacity="1" fill-rule="nonzero"/><path fill="#000000" d="M 220.171875 328.621094 C 219.3125 329.605469 218.941406 331.691406 219.433594 333.414062 C 220.785156 338.941406 228.15625 338.941406 229.503906 333.414062 C 230.488281 329.726562 228.15625 326.78125 224.46875 326.78125 C 222.996094 326.78125 221.03125 327.640625 220.171875 328.621094 Z M 220.171875 328.621094 " fill-opacity="1" fill-rule="nonzero"/><path fill="#000000" d="M 219.679688 347.171875 C 218.574219 348.15625 217.714844 349.875 217.714844 350.734375 C 217.714844 351.59375 218.574219 353.316406 219.679688 354.296875 C 223.363281 357.980469 228.769531 355.894531 228.769531 350.734375 C 228.769531 345.574219 223.363281 343.488281 219.679688 347.171875 Z M 219.679688 347.171875 " fill-opacity="1" fill-rule="nonzero"/></svg>